<?xml version="1.0" encoding="utf-8"?>
<!-- Generator: Adobe Illustrator 19.2.1, SVG Export Plug-In . SVG Version: 6.00 Build 0)  -->
<svg version="1.1" id="layer" xmlns="http://www.w3.org/2000/svg" xmlns:xlink="http://www.w3.org/1999/xlink" x="0px" y="0px"
	 viewBox="0 0 652 652" style="enable-background:new 0 0 652 652;" xml:space="preserve">
<style type="text/css">
	.st0{fill-rule:evenodd;clip-rule:evenodd;fill:#282021;}
	.st1{fill-rule:evenodd;clip-rule:evenodd;fill:#FFFFFF;}
	.st2{fill-rule:evenodd;clip-rule:evenodd;fill:#FCEDA6;}
	.st3{fill-rule:evenodd;clip-rule:evenodd;fill:#FACC00;}
	.st4{fill-rule:evenodd;clip-rule:evenodd;fill:#F8BC00;}
	.st5{fill-rule:evenodd;clip-rule:evenodd;fill:#FBECA6;}
	.st6{fill-rule:evenodd;clip-rule:evenodd;fill:#F6B300;}
	.st7{fill-rule:evenodd;clip-rule:evenodd;fill:#F8C300;}
	.st8{fill-rule:evenodd;clip-rule:evenodd;fill:#FCE88E;}
	.st9{fill-rule:evenodd;clip-rule:evenodd;fill:#FCE47A;}
	.st10{fill-rule:evenodd;clip-rule:evenodd;fill:#FCDF53;}
	.st11{fill-rule:evenodd;clip-rule:evenodd;fill:#FDE16B;}
	.st12{fill-rule:evenodd;clip-rule:evenodd;fill:#FCDA45;}
	.st13{fill-rule:evenodd;clip-rule:evenodd;fill:#FCD832;}
	.st14{fill-rule:evenodd;clip-rule:evenodd;fill:#FFF3BF;}
	.st15{fill-rule:evenodd;clip-rule:evenodd;fill:#FCD633;}
	.st16{fill-rule:evenodd;clip-rule:evenodd;fill:#FDF1BD;}
	.st17{fill-rule:evenodd;clip-rule:evenodd;fill:#FCD520;}
	.st18{fill-rule:evenodd;clip-rule:evenodd;fill:#F6C43B;}
	.st19{fill-rule:evenodd;clip-rule:evenodd;fill:#FCD300;}
	.st20{fill-rule:evenodd;clip-rule:evenodd;fill:#F9CA40;}
	.st21{fill-rule:evenodd;clip-rule:evenodd;fill:#F9D133;}
	.st22{fill-rule:evenodd;clip-rule:evenodd;fill:#261F1E;}
	.st23{fill-rule:evenodd;clip-rule:evenodd;fill:#E50E14;}
	.st24{fill-rule:evenodd;clip-rule:evenodd;fill:#E50012;}
	.st25{fill-rule:evenodd;clip-rule:evenodd;fill:#FBCF38;}
	.st26{fill-rule:evenodd;clip-rule:evenodd;fill:#FFFBFB;}
</style>
<g>
	<path class="st0" d="M340.9,72.6c25.4,0.9,50.8,4.2,75.3,10.4c36.5,9.1,70.8,23.4,102,44.5c18.3,12.3,34.9,26.7,49.2,43.5
		c1.7,2,3.6,3.3,6,4.1c9,2.9,17.9,6,26.8,9c2.7,0.9,2.7,0.9,1.6,3.6c-2.5,5.7-4.9,11.5-7.6,17.1c-1.1,2.4-1.1,4.3,0,6.7
		c7.1,14.4,11.9,29.5,14.7,45.3c3.5,19.8,2.9,39.6-1.4,59.2c-7,31.8-22.5,59.2-44.2,83.2c-25.6,28.4-56.8,49-91.6,64.5
		c-19.7,8.7-40.1,15.5-61.1,20.3c-20.4,4.6-40.9,7.6-61.7,9c-22.9,1.5-45.8,0.8-68.6-2c-9.4-1.1-18.6-3-27.9-4.5
		c-0.8-0.1-1.6-0.2-2.4-0.4c-2.2-0.5-3.8,0.1-5.5,1.9c-10.8,11.8-21.8,23.4-32.6,35.1c-14.2,15.2-28.4,30.5-42.6,45.8
		c-0.9,1-1.5,2.3-2.3,3.5c-0.3-0.3-0.5-0.5-0.8-0.8c1-14,2-28,3-41.9c0.9-13,1.9-26,2.8-39.1c0.6-8.7,1.2-17.5,2-26.2
		c0.3-2.5-0.9-3.4-2.9-4.3c-18.6-8.8-36.2-19.4-52.5-32c-22.2-17.2-41.1-37.4-55.4-61.7C49.9,343.5,41.6,319,40,292.5
		c-1.5-23.6,2.4-46.5,11.3-68.4c0.4-1,0.8-2.1,1.1-3.1c0.4-1.4,0.3-2.7-0.9-3.8c-6.9-6.8-13.8-13.7-20.7-20.5
		c-0.1-0.2-0.3-0.5-0.4-0.7c-1.7-2.1-1.7-2.1,0.7-3.2c0.6-0.3,1.3-0.5,1.9-0.8c15.9-6.6,31.7-13.1,47.6-19.8
		c1.7-0.7,3.5-1.8,4.7-3.2c14.7-16.7,31.5-30.9,50-43.2c24.8-16.4,51.6-28.5,80-37.4c21-6.6,42.4-11.1,64.3-13.5
		C299.6,72.7,320.3,71.8,340.9,72.6 M106.6,257.6c0.6,2.8,1.1,5.6,1.7,8.3c1,3.5,1.9,6.9,2.9,10.4c1.6,6.9,3.2,13.7,4.8,20.6
		c1.2,4.3,2.4,8.6,3.6,13c0,0.8-0.2,1.7,0,2.4c1.9,8,3.9,16.1,5.9,24.1c0.6,2.7,1.3,5.3,1.9,8c0.9,3.6,1.7,7.2,2.5,10.9
		c1.1,4.7,2.2,9.4,3.4,14.1c1.9,8.1,3.9,16.2,5.8,24.2c0.2,1.2-0.3,3.4,2,2.3c4-1.9,7.9-4.2,11.8-6.3c1.3-0.5,2.5-0.9,3.8-1.4
		c4.1-2.1,8.3-4.2,12.4-6.3c2-0.9,3.9-1.7,5.9-2.6c3.7-1.8,7.3-3.6,11-5.3c2.1-1,4.2-1.9,6.3-2.9c1.6-0.7,1.7-1.9,1-3.3
		c-0.6-4-1.2-7.9-1.9-11.9c-1.7-9.9-3.4-19.8-5.1-29.7c-0.2-1.2-0.3-2.3-0.5-3.5c-0.8-4.5-1.6-8.9-2.4-13.4
		c-0.2-1.8-0.3-3.6-0.7-5.3c-0.4-1.7,0.2-2.9,1.5-3.9l5.4-3.1c3.2-2,6.3-4,9.5-5.9c1.4-0.8,1.8-2,1.6-3.5c1.3-5,2.6-10,4-15
		c1-2.5,2-5,3.1-7.5c2.3-4,4.6-8.1,6.9-12.2c5.2-7.1,10.6-14.1,17.3-20c2.2-2,4.4-3.9,6.6-5.9c2.6-1.8,5.1-3.8,7.9-5.3
		c5.9-3.2,11.9-6.2,17.9-9.3c-2.4,1.6-4.8,3.2-7.2,4.8c-2.1,1.3-4.2,2.7-6.3,4c-3,2.3-6.1,4.7-9.1,7c-2.3,2.2-4.6,4.3-6.8,6.5
		c-1.6,1.8-3.3,3.6-4.9,5.4c-2.8,3.8-5.6,7.6-8.4,11.3c-1.3,2.3-2.7,4.6-4,6.9c-0.9,1.9-1.8,3.9-2.7,5.8c-0.8,1.9-1.6,3.9-2.4,5.9
		c-0.5,1.4-1,2.8-1.5,4.2c-2.7,7.3-3.7,14.8-3.8,22.6c0.4,4.4,0.9,8.9,1.3,13.3c0.9,3.3,1.8,6.7,2.7,10c1.9,3.6,3.7,7.3,5.6,10.9
		c1,1.4,2,2.8,2.9,4.3c2.7,4.1,6.2,7.5,10.3,10.2c1.4,1,2.8,2,4.3,3c3.7,2.9,7.9,4.8,12.5,6.2c9.8,4,20.1,4.6,30.5,4
		c7.3-0.4,14.5-1.5,21.4-4.3c4.2-1.6,8.4-3.3,12.5-4.9c2.6-1.4,5.3-2.7,7.9-4.1c2.7-1.7,5.3-3.3,8-5c2.5-1.9,5-3.8,7.5-5.7
		c2.5-2.3,5-4.6,7.5-6.9c1.9-2,3.8-4.1,5.7-6.1c2.9-3.8,5.8-7.7,8.7-11.5c2.5-4.7,5-9.5,7.5-14.2c1-2.8,2-5.6,3-8.4
		c1.1-4.5,2.1-8.9,3.2-13.4c0.1-1.1,0.2-2.2,0.3-3.4c0.1-2.5,0.3-5,0.4-7.5c-0.4-4.1-0.8-8.3-1.3-12.4c0-1-0.1-2.1-0.1-3.1
		c0.2,0,0.3-0.1,0.5-0.1c0.7,1.6,1.3,3.2,2,4.8c0.5,2.2,1.1,4.5,1.6,6.7c0.3,3.6,0.6,7.2,0.9,10.9c-0.3,3.9-0.5,7.8-0.8,11.7
		c0,0.3,0,0.6-0.1,0.8l-0.3,1.6c-0.4,1.7-0.8,3.4-1.2,5.1c-0.7,2.4-1.4,4.9-2.1,7.3l0,0c-2,4.5-3.9,8.9-5.9,13.4
		c-5,7.1-10.1,14.3-15.1,21.4v0.1c-0.4,0.4-0.8,0.8-1.3,1.2c-0.9,0.9-1.7,1.7-2.5,2.6c-1.9,0.9-2.3,2.6-2.6,4.4
		c-1.6,8.5-3.4,16.9-5.1,25.3c-0.3,1.5-0.6,3-0.9,4.5c-0.2,1,0,1.7,1.2,1.5c4.1-0.5,8.2-1.1,12.3-1.6l1.7-0.1
		c8.6-0.9,17.3-1.7,25.9-2.6c2.2-0.2,4.4-0.5,6.6-0.5c1.4,0,2-0.7,2.2-1.9c0.6-2.4,1.2-4.8,1.7-7.2c2.1-8.4,4.3-16.7,6.4-25.1
		c1-3.9,2-7.9,3-11.8c0.9-3.3,1.7-6.7,2.5-10c1-4.1,2.1-8.2,3.1-12.3c0.5-2.5,2.9-1.8,4.4-2.7c4.5-0.8,8.9-1.6,13.4-2.4
		c9.6-1.6,18.8-4.3,27.7-8.2h0l0.4,0l0.3-0.2c1.8-0.7,3.6-1.5,5.4-2.2c3.5-1.7,7-3.5,10.5-5.2c1.6-0.9,3.3-1.9,4.9-2.8
		c3.9-2.7,7.8-5.5,11.6-8.2c1.4-1.2,2.8-2.3,4.2-3.5c3.3-3.5,6.5-7,9.7-10.5c0.7-0.9,1.4-1.7,2-2.6c4.2-5.7,6.3-12.2,7.5-19.1
		c1.1-3.9,0.9-7.8-0.1-11.7c-0.2-5.5-3.2-10.1-4.7-15.1c-1.5-2.8-3.1-5.5-4.6-8.3c-2.6-4.2-5.8-7.7-9.8-10.7
		c-1.1-0.9-2.2-1.8-3.4-2.7c-3.9-2.4-7.8-4.8-11.7-7.2c-2.2-0.9-4.4-1.8-6.7-2.8c-3.3-1.1-6.7-2.3-10-3.4
		c-6.1-1.3-12.3-2.6-18.4-3.9c-4.4-0.5-8.8-0.9-13.3-1.4c-6.1-0.2-12.3-0.4-18.4-0.6c-4.2-0.1-8.3-0.3-12.5-0.4
		c-3.6-0.2-7.2-0.4-10.8-0.6c0.9-0.3,1.8-0.6,2.7-0.9c-9.5-0.4-18.9-0.4-28.3-0.4c-0.7,0-1.4,0.6-2.1,0.9c-1.2,0-2.5,0.1-3.7,0.1
		c-1.6,0-2.4,0.4-1.7,2.2c1,2.8,1.9,5.7,2.9,8.5c1.2,4.2,2.4,8.3,3.6,12.5c0.3,1.2,0.5,2.4,0.9,3.6c0.9,2.9,1.9,5.7,2.9,8.5
		c3.2,0.2,6.3,0.3,9.5,0.5c3.7,0.6,3.7,0.6,2.9,4.2c-0.2,1-0.3,2.1-0.4,3.2c-0.1,0.5-0.3,1-0.4,1.6c-0.9,4.2-1.8,8.3-2.7,12.5
		c-0.3,1.7-0.6,3.4-1,5.1c-0.1,1-0.2,1.9-0.4,2.9c-0.2,0.7-0.4,1.4-0.6,2.1c-0.2,0.6-0.4,1.3-0.7,2c-0.3,0.8-0.8,1.5-1.1,2.3
		c-0.6-0.6-1.1-1.2-1.7-1.8c-1-1.5-2-2.9-3-4.3c-2.8-3-5.7-6-8.5-9c-2.8-1.9-5.6-3.9-8.3-5.8c-3.6-1.7-7.3-3.4-10.9-5
		c-1.9-0.6-3.9-1.2-5.8-1.7c-3.7-0.6-7.3-1.3-11-1.9c-6.4-0.8-12.8-0.8-19.2,0.5c-3.7,0.7-7.3,1.5-10.9,2.2
		c-1.9,0.6-3.9,1.2-5.8,1.8c-4.2,1.6-8.3,3.3-12.5,4.9c-0.6,0.1-1.1,0.1-1.7,0.2c0.5-3.3,0.9-6.7,1.4-10c0.6-6.5-0.8-12.7-4-18.4
		c-1.8-4.3-4.6-7.8-8.1-10.9c-1.8-1.6-3.6-3.3-5.3-4.9c-3.8-2.5-7.7-5-11.5-7.5c-1.3-0.6-2.7-1.2-4-1.8c-4.2-2.2-8.7-3.8-13.4-4.2
		c-5.8-1.8-11.6-2.2-17.6-2.2c-4.4,0.2-8.9,0.4-13.3,0.6c-6.1,0.9-12.2,1.8-18.3,2.6c-4,0.9-7.9,1.9-11.9,2.8
		c-1.9,0.6-3.9,1.1-5.8,1.6c-3.8,1.2-7.7,2.4-11.5,3.6c-11.1,4.4-22.3,8.7-33.4,13.1c-3.9,1.6-7.9,3.3-11.8,4.9
		c-1.9,0.8-3.7,1.5-5.6,2.3c-3.9,1.6-7.8,3.2-11.7,4.9c-7.4,3-14.7,6-22.1,9c-1.4,0.6-1.8,1.2-0.6,2.3c1.7,1.6,3.3,3.3,5,4.9
		c0.2,0.5,0.4,1.1,0.7,1.4c6.7,6.6,13.3,13.2,20,19.8c1,1.1,2,1.2,3.3,0.7c3.4-1.4,6.9-2.7,10.4-4c3.3-0.8,3.3-0.8,4,2.3
		c0.5,1.8,1,3.6,1.5,5.5c0.8,3.3,1.5,6.6,2.3,9.9c0.9,3.7,1.7,7.4,2.6,11C105.6,253.8,106.1,255.7,106.6,257.6 M548.8,275.2l3.8-8.4
		c0.1-0.5,0.3-0.9,0.4-1.4c2-4.5,3.9-9,5.9-13.5c3.1-7.2,6.2-14.5,9.2-21.7c1.9-4.2,3.9-8.3,5.8-12.5c2-4.5,4-9,5.9-13.5
		c1.2-2.5,2.4-5,3.6-7.5c0.7-1.5,0.3-2.2-1.3-2.7c-7-2.2-13.9-4.5-20.9-6.7c-3.7-1.2-7.3-2.4-11-3.7c-1.5-0.5-3.1-0.9-4.6-1.3
		c-4.2-1.5-8.5-2.9-12.7-4.4c-4.8-2-4.8-2-5.8,3.1c-0.2,0.8-0.1,1.6-0.2,2.4c-0.8,3.9-1.6,7.8-2.4,11.7c-0.6,3.3-1.3,6.6-1.9,10
		c-0.9,4.4-1.8,8.8-2.6,13.3c-0.8,3.9-1.6,7.9-2.4,11.8c-0.3,1.5-0.6,3-0.9,4.6c-0.8,3.5-1.5,6.9-2.3,10.4c-1,4.5-2.1,8.9-3.1,13.4
		c-0.4,1.6-0.8,3.3-1.2,4.9c-1.1,4.5-2.1,9-3.2,13.5c-0.2,0.2-0.3,0.4-0.2,0.7c-0.8,3.1-1.7,6.1-2.5,9.2c-0.8,2.5-1.6,5-2.6,7.4
		c-0.6,1.6-0.1,2.2,1.5,2.6c10.4,2.2,20.8,4.4,31.3,6.7c1.5,0.3,2.6,0.3,3.3-1.4c1.8-4.6,3.7-9.2,5.6-13.9c1.4-3.2,2.8-6.4,4.2-9.6
		C547.8,277.4,548.3,276.3,548.8,275.2 M486.2,331.9c-1.1,1.1-2.3,2.3-3.4,3.4c-3.2,3-5.7,6.5-6.9,10.7c-1.7,2.9-1.8,6-1.6,9.2
		c-0.1,4.7,0.9,9,4,12.7c2.3,1.9,4.7,3.8,7,5.7c3.5,2.5,7.3,3.9,11.6,3.5c4.9,0.6,9.2-1.3,13.4-3.4c7.6-4,13.7-9.4,16.8-17.6
		c2-3.4,2.7-7,2.3-10.9c0.3-4.9-1.7-8.9-4.8-12.6c-2.1-3.3-4.8-5.8-8.5-7.2c-5.5-2.8-11-2.7-16.7-0.9
		C494.3,325.5,489.8,328,486.2,331.9 M105.2,160.5c1.6-0.5,3.2-1,4.7-1.6c16-6.4,31.8-13,48.7-16.8c10.3-2.3,20.7-4.3,31.3-4.6
		c0.3,0,0.6,0,0.8,0h14.2c0.3,0,0.6,0,0.8,0c7.3,0,14.4,1.2,21.3,3.3c24.9,7.6,44.2,21.7,52.7,47.5c0.5,1.6,1.2,1.8,2.7,1.5
		c4.3-0.8,8.7-1.8,13.1-2.2c14.5-1.1,28.8,0,42.6,5.3c0.6,0.2,1.2,0.1,1.8,0.1c0-0.5,0-1.1-0.2-1.6c-1.7-5.9-3.4-11.7-5.1-17.6
		c-2.5-8.6-5.1-17.3-7.7-25.9c-0.4-1.4-0.6-2.5,1.4-2.4c5,0.1,10,0.2,15,0.3c0,1.3,0.8,1.5,1.9,1.5c9.1,0,18.2,0,27.2-0.1
		c0.6,0,1.2-0.8,1.7-1.2c6.2,0.1,12.5,0,18.7,0.3c13.3,0.5,26.7,0.8,39.9,1.9c13.6,1.1,26.8,4.6,39.4,10
		c13.8,5.8,25.9,14.1,34.9,26.2c1.2,1.6,2.6,3,3.8,4.5c0.6-2,1.2-3.9,1.7-5.9c2-8.4,3.9-16.8,5.9-25.2c0.6-2.6,0.6-2.6,3.3-1.7
		c4.1,1.4,8.2,2.7,12.2,4.1c5.3,1.8,10.5,3.6,15.8,5.3c0.5,0.2,1.2-0.2,1.8-0.3c-0.2-0.5-0.4-1.1-0.7-1.4c-2.3-2.3-4.6-4.5-6.9-6.7
		c-25.9-24-55.9-41.5-88.7-54.2c-38.3-14.8-78.1-22.3-119.2-23.4c-32.3-0.9-64.2,2-95.6,9.4c-37.9,9-73.4,23.4-105.7,45.6
		c-10.9,7.5-21.3,15.5-30.6,25c-0.4,0.3-0.9,0.5-1.3,0.8C103.9,160.5,104.6,160.5,105.2,160.5 M534.2,319.1
		c3.6,4.7,6.5,9.5,7.9,15.2c2.9,11.3,0.8,21.8-4.9,31.7c-10.5,18.5-32.3,28.1-49.3,25.4c-16.4-2.6-28.3-15.6-28.6-32.3
		c-0.2-15.1,6.4-27,17.5-36.7c5.5-4.8,11.9-8.1,18.9-10.3c0.5-0.2,0.9-0.5,1.4-0.7c-0.5-0.3-1-0.8-1.5-1c-2.7-0.7-5.4-1.2-8.1-1.8
		c-3.5-0.8-3.5-0.8-2.7-4.4c1.2-5,2.4-10,3.6-15c0.4-1.6,0.8-3.2,1.1-4.9c0.3-1.4-0.4-1.8-1.6-1.3c-0.5,0.2-1,0.6-1.4,0.9
		c-20.2,13.3-42.7,21.2-66.2,26.3c-2.7,0.6-3.6,1.8-4.2,4.2c-5.2,20.3-10.4,40.6-15.6,60.9c-1.3,5.2-1.4,5.1-6.7,5.9
		c-19.3,3-38.7,6.1-58,9.1c-5.5,0.9-11,1.8-16.4,2.6c-3.8,0.6-3.9,0.5-3.2-3.1c0.4-2.1,0.9-4.1,1.3-6.1c1.2-5.7,2.3-11.4,3.4-17.2
		c0.1-0.6,0-1.3-0.1-2c-0.6,0.1-1.3,0.2-1.9,0.4c-0.7,0.2-1.3,0.6-1.9,0.8c-18.6,8.1-37.9,11.6-58.1,8.9
		c-20.4-2.7-37.5-11.6-50.7-27.6c-0.7-0.8-1.4-1.6-2.6-3c0.2,2,0.2,3.2,0.4,4.4c1.5,8.9,3,17.8,4.6,26.7c0.6,3.7,0.6,3.7-2.8,5.2
		c-4.9,2.3-9.8,4.6-14.7,6.9c-20.7,9.7-41.4,19.5-62.1,29.2c-3.4,1.6-3.4,1.6-4.3-2.2c-1.6-6.9-3.2-13.8-4.8-20.7
		c-11.2-48.3-22.5-96.5-33.7-144.8c-1.1-4.6-1.1-4.7-5.4-2.9c-2.6,1.1-4.3,0.9-6.4-1.4c-5-5.4-10.3-10.5-15.6-15.7
		c-2.5-2.4-2.5-2.4-3.8,0.9c0,0.1-0.1,0.3-0.2,0.4c-7.6,21.2-11,42.9-9,65.5c2,23.2,9,44.8,20.5,65c16.6,29.2,39.9,52.2,67.4,71
		c13.6,9.3,27.9,17.2,42.8,24.1c3.8,1.8,3.4,0.9,3.1,5.2c-0.3,5.1-0.7,10.3-1.1,15.4c-1.7,23.7-3.4,47.4-5,71.1
		c-0.1,1.1,0.1,2.2,0.1,3.3c0.9-0.7,1.9-1.5,2.8-2.2c0.3-0.3,0.6-0.6,0.9-0.9c20.9-22.3,41.7-44.7,62.5-67.1c2-2.1,3.7-2.6,6.5-2
		c21.9,4.8,44.2,7.1,66.5,7.9c13.9,0.5,27.8-0.1,41.6-1.2c22.1-1.7,43.8-5.4,65.2-11.2c37.5-10.2,72.3-25.9,103.5-49.3
		c23.5-17.7,43.4-38.6,57.8-64.4c22.9-41.2,27.2-84.2,11.6-129c-1.2-3.4-2.7-6.7-4.1-10c-0.2-0.4-0.7-0.7-1-1.1
		c-0.3,0.4-0.7,0.8-0.9,1.2c-0.3,0.6-0.6,1.2-0.9,1.9c-8.8,19.9-17.6,39.9-26.5,59.8c-5.2,11.8-10.4,23.6-15.7,35.4
		c-1.4,3.2-1.5,3.2-4.9,2.4C538.5,320,536.3,319.5,534.2,319.1"/>
	<path class="st1" d="M534.2,319.1c2.1,0.5,4.3,0.9,6.4,1.4c3.5,0.8,3.5,0.8,4.9-2.4c5.2-11.8,10.5-23.6,15.7-35.4
		c8.8-19.9,17.6-39.9,26.5-59.8c0.3-0.6,0.5-1.3,0.9-1.9c0.3-0.4,0.6-0.8,0.9-1.2c0.3,0.4,0.8,0.7,1,1.1c1.4,3.3,2.9,6.6,4.1,10
		c15.6,44.7,11.3,87.7-11.6,129c-14.4,25.8-34.3,46.7-57.8,64.4c-31.1,23.4-66,39.1-103.5,49.3c-21.4,5.8-43.1,9.5-65.2,11.2
		c-13.9,1.1-27.7,1.7-41.6,1.2c-22.4-0.8-44.6-3.1-66.5-7.9c-2.7-0.6-4.5-0.1-6.5,2c-20.8,22.4-41.7,44.7-62.5,67.1
		c-0.3,0.3-0.5,0.6-0.9,0.9c-0.9,0.7-1.9,1.5-2.8,2.2c0-1.1-0.2-2.2-0.1-3.3c1.7-23.7,3.3-47.4,5-71.1c0.4-5.1,0.8-10.2,1.1-15.4
		c0.3-4.3,0.7-3.5-3.1-5.2c-14.9-6.9-29.2-14.8-42.8-24.1c-27.6-18.9-50.8-41.8-67.5-71c-11.5-20.2-18.5-41.8-20.5-65
		c-2-22.5,1.4-44.3,9-65.5c0-0.1,0.1-0.3,0.2-0.4c1.3-3.4,1.3-3.4,3.8-0.9c5.2,5.2,10.6,10.3,15.6,15.7c2.1,2.2,3.7,2.5,6.4,1.4
		c4.3-1.8,4.3-1.6,5.4,3c11.2,48.3,22.4,96.5,33.7,144.8c1.6,6.9,3.2,13.8,4.8,20.7c0.9,3.8,0.9,3.8,4.3,2.2
		c20.7-9.7,41.4-19.5,62.1-29.2c4.9-2.3,9.8-4.6,14.7-6.9c3.5-1.6,3.5-1.6,2.8-5.3c-1.5-8.9-3.1-17.8-4.6-26.7
		c-0.2-1.2-0.2-2.4-0.4-4.4c1.2,1.3,1.9,2.1,2.6,2.9c13.2,16,30.3,24.9,50.7,27.6c20.2,2.7,39.5-0.8,58.1-8.9
		c0.6-0.3,1.2-0.6,1.9-0.8c0.6-0.2,1.3-0.3,1.9-0.4c0,0.6,0.2,1.3,0.1,2c-1.1,5.7-2.3,11.5-3.4,17.2c-0.4,2-0.9,4.1-1.3,6.1
		c-0.7,3.6-0.6,3.7,3.2,3.1c5.5-0.8,11-1.7,16.4-2.6c19.3-3,38.7-6.1,58.1-9.1c5.3-0.8,5.4-0.8,6.7-5.9
		c5.2-20.3,10.4-40.6,15.6-60.9c0.6-2.3,1.4-3.6,4.2-4.2c23.5-5.1,45.9-12.9,66.2-26.3c0.5-0.3,0.9-0.7,1.4-0.9
		c1.2-0.6,1.9-0.1,1.6,1.3c-0.3,1.6-0.7,3.3-1.1,4.9c-1.2,5-2.4,10-3.6,15c-0.8,3.6-0.8,3.6,2.7,4.4c2.7,0.6,5.4,1.2,8.1,1.8
		c0.5,0.1,1,0.6,1.5,1c-0.5,0.2-0.9,0.5-1.4,0.7c-7,2.2-13.4,5.5-18.9,10.3c-11.1,9.7-17.8,21.7-17.5,36.7
		c0.3,16.8,12.2,29.7,28.6,32.3c17.1,2.7,38.8-6.9,49.3-25.4c5.6-9.9,7.7-20.4,4.9-31.7C540.7,328.6,537.7,323.8,534.2,319.1
		 M233.3,408.1c-4.1-0.1-7.5,1.8-10.4,4.5c-4.2,3.9-6.7,8.9-7.6,14.5c-1.6,9.6-0.1,18.5,6.7,25.9c3.2,3.5,7.1,5.6,12.1,5.4
		c1.2,0.1,2.5,0.2,3.7,0.2c55.4,0,110.7,0,166,0c1.2,0,2.5-0.1,3.7-0.2c6.5-0.1,11-3.8,14-8.9c6.3-10.7,6.3-21.6,0-32.3
		c-3.1-5.2-7.6-8.8-14-9c-1.2-0.1-2.5-0.2-3.7-0.2c-55.6,0-111.2,0-166.9,0C235.8,407.9,234.6,408,233.3,408.1"/>
	<path class="st1" d="M189.9,137.5c-10.6,0.3-21,2.3-31.3,4.6c-16.9,3.7-32.8,10.3-48.7,16.8c-1.5,0.6-3.1,1.1-4.7,1.6
		c-0.2-0.3-0.4-0.5-0.6-0.8c9.2-9.5,19.7-17.5,30.6-25c32.2-22.1,67.8-36.6,105.7-45.6c31.4-7.4,63.3-10.2,95.6-9.4
		c41.1,1.1,80.8,8.6,119.2,23.4c32.8,12.7,62.8,30.1,88.7,54.2c2.3,2.2,4.6,4.4,6.9,6.7c0.3,0.4,0.5,0.9,0.7,1.4
		c-0.6,0.1-1.3,0.5-1.8,0.3c-5.3-1.7-10.5-3.5-15.8-5.3c-4.1-1.4-8.2-2.8-12.2-4.1c-2.6-0.9-2.7-0.9-3.3,1.7
		c-2,8.4-3.9,16.8-5.9,25.1c-0.5,2-1.1,4-1.7,5.9c-1.3-1.5-2.7-3-3.8-4.6c-9.1-12.2-21.1-20.4-34.9-26.2
		c-12.6-5.3-25.8-8.8-39.4-9.9c-13.3-1.1-26.6-1.4-39.9-1.9c-6.2-0.2-12.5-0.2-18.7-0.3c-10.3-0.1-20.6-0.2-30.9-0.3
		c-5-0.1-10-0.2-15-0.3c-2,0-1.8,1-1.4,2.4c2.6,8.6,5.1,17.2,7.7,25.9c1.7,5.8,3.4,11.7,5.1,17.6c0.1,0.5,0.1,1,0.2,1.6
		c-0.6,0-1.3,0.1-1.8-0.1c-13.7-5.3-28-6.4-42.6-5.3c-4.4,0.3-8.8,1.3-13.1,2.2c-1.5,0.3-2.1,0.1-2.7-1.5
		c-12.2-37-52.6-53.2-89.1-50.9C190.5,137.4,190.2,137.4,189.9,137.5"/>
	<path class="st2" d="M234.1,348.6c-1.4-1-2.8-2-4.3-3c0.6-0.8,1.1-1.5,1.7-2.3c2.2-3.2,2.3-6.2-0.5-9.2c-2.8-3-5.8-3-9.1-0.4
		c-0.7,0.6-1.6,1.1-2.3,1.6c-1-1.4-1.9-2.8-2.9-4.3c0-1.9,0.1-3.9,0-5.8c-0.2-3.4-1.9-4.9-5.6-5.1c-0.9-3.3-1.8-6.7-2.7-10
		c0.4,0,0.8,0,1.2,0c4.9,0,7.2-2.4,7-7.3c-0.1-1.5-0.5-2.9-0.8-4.4c4.2-1.9,4.2-1.9,4.2-7.1c0-0.7,0-1.4,0-2.1
		c5.6-4.4,6.9-4.4,12.5,0c0,1.1,0,2.2,0,3.3c0.1,5.8-0.7,5,5,5.1c-0.3,0.5-0.6,0.9-0.9,1.3c-2.5,3-2.1,7.6,0.9,9.8
		c2.3,1.8,6.4,1.8,8.5-0.1c2.3-2,2.8-5.8,1.1-8.6c-0.5-0.8-0.8-1.7-1.2-2.5c5.6-0.1,5,0.8,5-5.1c0-1.1,0-2.2,0-3.3
		c1.9-1.8,4-3,6.8-2.6c0.7,0.1,1.5-0.5,2.2-0.8c0.5,0.8,0.9,1.6,1.4,2.4c1.8,3.6,3.6,7.2,5.4,10.8c-0.3,0.9-0.7,1.8-0.8,2.7
		c-0.3,5.2,2.5,8.8,7.7,8.1c2.1-0.3,3.9-1.3,4.8-3.4l9.1,1.2c-0.5,0.6-1,1.1-1.5,1.7c-1.2,1.4-2.7,2.7-3.4,4.3
		c-1.4,2.9,0,6.2,3.1,7.8c3.5,1.8,5.6,1.4,8.3-1.8c2.4-2.9,2.3-5.3-0.1-8c-1.2-1.4-2.6-2.7-3.9-4c2.5-0.4,5-0.9,7.4-1.3
		c1,0.9,2,1.8,3.1,2.6c3.3,2.4,9.1,0.6,9.9-4.1c0.3-1.6,0.3-3.3,0.4-4.9c4.2-4.2,8.3-8.4,12.5-12.6c1.1,1.3,3.3,2.7,3.2,3.9
		c-0.6,4.3,1.6,5.7,5.2,6.1c-0.6,0.7-1.2,1.5-1.8,2.2c-1.9,2.6-2,4.3-0.4,6.8c2.1,3,4.9,4.2,7.7,3.3c2.8-0.9,4.2-3.2,4.6-6.1
		c0.3-2.7-1.2-4.3-2.6-6.2c1.5-0.2,3-0.2,4.3-0.6c0.6-0.2,1.5-1.3,1.4-1.6c-1.7-3.7,0.8-6.1,2.7-8.6c2.5-1,5-1,7.5,0
		c1.8,2.3,3.8,4.4,3.4,7.7c0,0.4,0.9,1.3,1.5,1.4c1.2,0.3,2.5,0.1,3.7,0.2c-2.5,4.7-5,9.5-7.5,14.2c-0.5-0.1-1.1-0.2-1.6-0.3
		c-4.4-1.3-6.9-0.6-9,2.7c-1.7,2.7-1.3,5.1,1.6,8.4c0.2,0.2,0.3,0.5,0.4,0.7c-1.9,2-3.8,4.1-5.7,6.1c0-1.1,0-2.3-0.2-3.3
		c-0.7-3.6-4.2-5.6-7.7-4.7c-3,0.8-4.7,2.8-5.5,5.6c-0.6,2.3,1.5,6,4,7.1c1.2,0.5,1.8,1,1.8,2.3c-2.5,1.9-5,3.8-7.5,5.7
		c0-0.8,0-1.6-0.1-2.5c-0.4-3.6-2.4-5.6-6.1-6.1c-2.4-0.3-6.2,2.2-7.1,4.7c-0.9,2.5,0.3,6,2.7,7.6c0.8,0.5,1.7,0.9,2.6,1.3
		c-2.6,1.4-5.3,2.7-7.9,4.1c-0.8-5-4.2-7.7-8.7-6.8c-3.4,0.6-5.3,4.9-4.2,9.3c0.2,0.8,0.3,1.6,0.4,2.4c-6.9,2.8-14.1,3.9-21.4,4.3
		c-10.4,0.6-20.7,0-30.5-4c0.3-0.9,0.6-1.8,0.9-2.7c1.4-3.3,0.6-6.6-2.1-8.3c-2.9-1.8-6.5-1.4-8.9,1.3
		C235.5,346.1,234.9,347.4,234.1,348.6 M279.2,349.2c0-3.9-2.5-6.4-6.2-6.6c-3.8-0.2-6.9,1.8-7.1,7.2c-0.1,3.5,3.1,6.3,6.8,6.2
		C276.6,356,279.2,353.2,279.2,349.2 M288.8,345.2c5.2,0.1,6.7-3.2,7-6.4c0.2-3.4-3.6-6.9-7-6.9c-3.3,0-7.2,3.5-7,6.9
		C282,342,283.6,345.3,288.8,345.2 M219.9,315.9c0,3.7,2.4,6.5,5.6,6.8c4.1,0.3,7.7-4.2,7.7-6.7c0-3.5-3-6.6-6.4-6.7
		C222,309.3,220,311.2,219.9,315.9 M326.7,316.1c0-3.8-2.6-6.7-6.1-6.8c-4.2,0-7.2,2.6-7.2,6.2c0,3.9,2.8,7,6.4,7.1
		C323.7,322.8,326.7,319.9,326.7,316.1 M264.2,315.4c-0.1-3.7-3.2-6.2-7.2-6.1c-3.4,0.1-6.2,3-6.1,6.4c0.1,4,3.3,7.3,7,6.9
		C261.5,322.3,264,319.8,264.2,315.4 M279.2,326.5c0-4.6-1.7-6.3-6.5-6.3c-3.8,0-6.7,2.6-6.8,6.1c-0.1,3.4,3.6,7.2,6.8,7.1
		C276.6,333.2,279.2,330.5,279.2,326.5 M304.3,332.7c3.7,0,6.6-2.8,6.6-6.3c0-3.5-3.5-6.8-7.4-6.9c-3.4-0.1-5.8,2.9-6,7
		C297.3,329.9,299.6,333.2,304.3,332.7 M257.2,345.2c4,0,6.9-2.6,7-6.1c0.1-4.4-2.8-7.3-7.2-7.2c-2.6,0.1-6.2,4-6.1,6.7
		C250.9,342.4,253.6,345.2,257.2,345.2 M241.5,332.7c3.7,0.9,6.2-2.4,6.7-6.2c0.4-3.1-4.1-7.1-7.4-7c-3.2,0.1-5.8,3.1-5.8,6.9
		C234.9,331,236.8,332.7,241.5,332.7"/>
	<path class="st2" d="M156.7,388.2c-1.2,0.5-2.5,0.9-3.8,1.4c-0.5-0.1-1.1-0.1-1.6-0.3c-5.1-1.6-6.7-1-10.1,3.2
		c-0.4,0.6-1.4,0.7-2.1,1.1c-1.9-8.1-3.9-16.2-5.8-24.2c1.1-1,2.1-2.1,3.3-3c3.6-2.6,3.6-7.9-0.7-10.3c-1.6-0.9-4-0.6-6-0.9
		c-0.9-3.6-1.7-7.2-2.5-10.9c1,0.3,2.1,0.5,3.1,0.7c3.8,0.8,6.6-0.5,8-4c0.7-1.9,1.2-4-0.6-5.7c-1.9-1.9-3.7-4.6-6.9-3.4
		c-2.3,0.8-4.6,1.9-5.6,4.4c-2-8-4-16.1-5.9-24.1c-0.2-0.8,0-1.6,0-2.4c0.9-1.6,2.2-3.1,2.7-4.9c0.8-2.8-0.5-5.3-2.4-7.3
		c0.9-0.3,1.7-0.6,2.5-0.8c2.7-0.5,3.4-0.9,3.2-3.7c-0.1-2.6,1.3-4.4,2.6-6.3c2.5,0,5,0,7.5,0c0.8,2,3.7,2.7,3.3,5.5
		c-0.4,2.4,0.4,3.9,3,4.4c0.5,0.1,0.8,0.6,1.2,1c-0.8,1.5-2,3-2.4,4.6c-0.9,3.6,1.8,7.3,5.5,7.9c4.1,0.6,7.4-2.2,7.8-6.1
		c0.3-2.6-1.2-4.4-2.5-6.4c1-0.3,2-0.5,2.9-0.9c0.8-0.4,2-1.2,2-1.6c-0.6-3.3,1.9-5.5,2.7-8.3c2.8,0,5.5,0,8.3,0
		c1.5,2.2,3.9,4.2,3,7.1c-0.7,2.3,0.3,2.7,2.1,2.8c1.1,0.1,2.2,0,3.3,0c-0.5,0.6-0.9,1.4-1.5,1.9c-2.7,2.1-2.1,5-1.5,7.6
		c0.6,2.6,4,4.2,7,3.8c1.2-0.1,2.4-0.5,3.6-0.8c0.8,4.5,1.6,8.9,2.3,13.4c-0.5-0.2-1.2-0.1-1.5-0.5c-1.7-2.2-4-2.1-6.4-2
		c-2.7,0.2-4.9,1.8-5.3,3.8c-0.7,3.2,0.5,7,2.5,8.3c0.2,0.1,0.5,0.3,0.7,0.4c4.3,1.4,7.7-0.3,9.5-4.6c0.3-0.6,0.6-1.2,1-1.8
		c1.7,9.9,3.4,19.8,5.1,29.7c-2.1,1.5-3,3.6-3,6.2c0,3.5,1.1,4.9,4.9,5.6c0.7,1.4,0.6,2.6-1,3.3c-2.1,0.9-4.2,1.9-6.3,2.9
		c-0.3-1.3-0.5-2.7-0.9-4c-1-3-4.1-5-6.6-4.6c-3.8,0.6-5.6,2.9-6,6.7c-0.3,3,2,4.7,2.6,7.2c-1.9,0.9-3.9,1.7-5.8,2.6
		c-1.9-4.2-5.6-5.4-9.2-2.8C156.7,381.3,156.2,384.6,156.7,388.2 M154,349c0-3.6-2.9-6.3-6.7-6.3c-4,0-6.7,2.8-6.7,6.8
		c0.1,3.8,2.8,6.3,6.5,6.6C150.5,356.3,154.5,353.2,154,349 M147.4,378.6c4,0,6.6-2.5,6.6-6.2c0-3.3-3.4-7.1-6.6-7.1
		c-3.9-0.1-6.8,3.1-6.8,7.3C140.7,376.2,143.4,378.6,147.4,378.6 M169.9,339.2c0-4.2-2.4-7.2-6-7.3c-3.4-0.1-7.1,3.4-7.2,6.7
		c0,4.1,2.5,6.6,6.7,6.7C167.9,345.3,169.9,343.5,169.9,339.2 M169.9,361.6c0-4.4-1.9-6.4-6.2-6.4c-4.2,0-7,2.8-7.1,7
		c-0.1,2.7,4.1,6.4,7.1,6.4C167.2,368.5,169.8,365.6,169.9,361.6 M147,332.7c4.9,0.1,6.8-1.7,7-6c0.2-3.8-2.1-6.8-6.6-6.5
		c-4,0.2-6.7,2.4-6.8,6.1C140.6,330,143.1,332.6,147,332.7 M139,316c0-4.1-2.8-6.7-7.2-6.7c-3.5,0-6.2,3-6.1,6.8
		c0.1,4.3,2.5,6,6.6,6.5C135.1,323,139,318.9,139,316 M157.4,315.6c0,4.1,2.7,7.1,6.3,7c3.5,0,6.2-3,6.2-6.7c0-4.7-1.9-6.7-6.4-6.6
		C159.1,309.4,157.4,311.2,157.4,315.6 M172.4,349.1c0,4,2.5,6.8,6.4,6.9c3.1,0.1,6.8-3.6,6.9-7c0.1-2.7-4-6.4-7-6.4
		C175,342.7,172.4,345.3,172.4,349.1"/>
	<path class="st3" d="M241.7,228.3c3-2.3,6.1-4.7,9.1-7c0,1.2,0,2.5,0.1,3.7c0.3,3,2.5,5.4,5.4,5.8c3.9,0.6,6.4-1.2,7.9-5.8
		c1.8,0.2,3.5,0.4,5.3,0.6c1.2,0.1,2.4,0.3,3.7,0.2c2.9-0.2,5.7-0.5,8.6-0.8c1.9,5.5,6.7,7.5,11.2,4.3c1.3-1,2-2.8,3-4.3
		c5.8,0,11.7,0,17.5,0c0.3,1,0.4,2.2,1,3c1.7,2.2,4,3.4,6.8,2.8c3.2-0.6,5-2.6,5.5-5.8c2.9,0.2,5.7,0.4,8.6,0.6
		c0.8,0,1.6,0.2,2.4,0.1c2.2-0.2,4.3-0.5,6.5-0.7c0.2,0.4,0.4,0.7,0.5,1.1c2.2,5.2,7.4,6.3,11.4,2.4c0.8-0.7,1.7-1.4,2.5-2.1l3,4.3
		c-1.9,2.3-2.2,4.9-0.8,7.4c1,1.8,4.8,3.8,6.6,3.3c2.8-0.8,4.9-2.7,5.7-5.4c0.8-2.5-0.4-4.4-2-6.3c-1.5-1.8-3.4-1.4-5.3-1.6
		c0-0.7-0.1-1.4-0.1-2c0.1-1,0.2-1.9,0.4-2.9c0.6,0.1,1.5-0.1,1.9,0.3c2.3,2.1,5,2.4,7.9,2.2c1.5,3.6,3.7,5.2,7,5
		c3.6-0.2,5.7-2.3,6.4-5.8c6.1,0.3,12.2,0.6,18.3,0.8c0,0.6-0.1,1.3,0.2,1.6c3.7,4.4,9.7,4.8,11.9,0.2c0.2-0.4,0.8-0.7,1.2-1.1
		c0.1,0.1,0.3,0.2,0.4,0.3c-1,4.7-2,9.3-3,14c-0.9-0.1-1.9-0.1-2.8-0.3c-3.4-0.8-7.4,1.4-7.7,4.7c-0.2,2.1,0.5,4.3,0.7,6.4
		c-0.6,0.3-1.3,0.6-2,0.9c-0.8,0.3-1.5,0.6-2.3,0.9c-0.8-0.4-1.7-0.8-2.5-1.3c-3.3-2-6-1.7-9.2,1.2c-1.5-0.6-3.8,0-4.1-2.5
		c1.4-3.1,1.5-6.2-1-8.7c-2.6-2.5-5.6-2.6-8.2-0.7c-3.1,2.3-4.1,5.2-2.8,8.6c0.3,0.9,0.9,1.7,1.3,2.6c-1.9,0-3.9,0-5.8,0
		c-0.7-1.6-1.3-3.2-2-4.8c-0.1,0-0.3,0.1-0.4,0.1c0,1,0.1,2.1,0.1,3.1c-3.1-0.2-6.3-0.3-8.6,2.5c-1.1-0.9-2.2-1.7-3.4-2.6
		c0.1-0.5,0.2-1.1,0.4-1.6c1.2-3,0-5.3-2.2-7.3c-2.1-2-4.4-2.1-7.1-0.9c-3,1.3-3.9,3.7-3.6,6.7c0.1,1.3,0.6,2.6,0.9,4
		c-1.7,0.6-3.4,1.1-5.1,1.7c-3.4-3-6.9-3.5-10.5-0.2c-0.3,0.2-0.8,0.2-1.2,0.3c-0.9-1.6-1.7-3.2-2.5-4.8c0-1.1,0.2-2.2,0-3.3
		c-0.7-3.9-4.4-5.9-8.3-4.6c-2.6-1-5.1-2-7.7-3c0-0.8,0-1.7,0.2-2.5c0.6-3.4-3.6-7.7-6.7-7.7c-4.2-0.1-6.7,2.8-6.7,7.5
		c0,0.8,0,1.7,0.1,2.5c-3.5,1.2-7.3,2-10.4,3.8c-4.9,2.8-9.3,6.4-13.9,9.6c-1.9,0.6-3.8,1.1-5.7,1.7c-1.4-0.6-2.8-1.1-4.2-1.7
		c0.3-1.1,0.7-2.1,0.8-3.2c0.3-2.7-1.6-5.5-4.4-6.9c-2.5-1.3-4.5-0.2-6.4,1.3c-3,2.4-3.3,4.4-1.8,8.8c-2,0.6-3.9,1.1-5.9,1.7
		c-2.9-1.8-5.8-2.5-8.7-0.2c-0.3,0.2-0.8,0.2-1.2,0.2c-1.4-0.3-2.8-0.6-4.3-0.9c1.5-3.4,2.5-6.7-0.9-9.7c-0.5-0.4-0.6-1.2-0.8-1.8
		c1.6-1.8,3.3-3.6,4.9-5.4c0.8,4.8,3.7,7.5,7.5,6.8c3.1-0.6,6.2-4.5,5.9-7.5C248,230.9,245.4,228.6,241.7,228.3 M279.2,234.6
		c0-4.1-2.9-7.2-6.5-7c-4.3,0.2-6.9,2.8-6.9,7.1c0,3.1,3.5,7.1,6.5,7C276.8,241.4,279.5,238.9,279.2,234.6 M404.4,235.2
		c0-4.6-2.5-7.7-6.3-7.7c-3.5,0-7,3.7-7,7.4c0,3,3.6,6.6,6.8,6.7C401.4,241.9,404.3,238.9,404.4,235.2 M341.8,234.5
		c0-3.9-2.7-6.9-6.2-6.9c-3.7,0-7.3,3.9-7.1,7.7c0.2,3,3.9,6.5,7.1,6.4C339.2,241.7,341.9,238.6,341.8,234.5"/>
	<path class="st4" d="M60.4,205.3c-1.7-1.6-3.3-3.3-5-4.9c-1.2-1.1-0.8-1.8,0.6-2.3c7.4-3,14.7-6,22.1-9c0,0.6,0,1.1,0.1,1.7
		c1.2,3.9,4.8,6,8.3,4.7c4.6-1.7,6.2-5,4.3-9.4c-0.3-0.6-0.6-1.2-0.9-1.8c1.9-0.7,3.8-1.5,5.6-2.2c3.6,4.9,9.3,4,11.9-2
		c1.2,0.3,2.6,0.4,3.7,0.9c0.5,0.2,0.8,1,1.2,1.6c-0.7,1.2-1.4,2.3-2.2,3.4c-1.3,1.8-1.1,3.5-0.3,5.4c1.2,2.9,4.4,4.9,7.2,4.4
		c3.1-0.5,5.1-3.3,5.4-6.7c0.3-2.8-0.9-4.7-2.6-6.6c1.5-2.1,3.7-1.7,5.9-1.7c1.4,2.2,3.2,3.8,5.9,4.2c3.5,0.5,5.6-1.6,7.4-4.2
		c1.4,0.6,2.8,1.2,4.2,1.7c-0.8,1.6-1.8,3.1-2.3,4.8c-0.9,2.9,0.5,5,2.6,6.8c2.3,2.1,4.8,2,7.3,0.8c2.3-1.1,3-3.2,3.4-5.8
		c0.3-2.7-1.5-4-2.6-5.8c0.8-0.6,1.6-1.2,2.5-1.6c0.8-0.4,1.7-0.6,2.6-0.9c0.8,0.8,1.5,1.5,2.3,2.3c2.6,2.4,5.8,2.7,8.6,0.5
		c0.9-0.8,1.6-1.8,2.4-2.8c1.7,0.6,3.4,1.2,5,1.7c-0.5,0.7-1,1.3-1.5,2c-1.5,2.4-1.5,5.1-0.7,7.5c0.9,2.8,5.2,4.4,7.9,3.4
		c3.5-1.3,5.6-5,4.5-8.1c-0.6-1.7-1.9-3.3-2.8-4.9c1.7-1.6,3.7-2,5.9-1.7c1.6,2,3.1,4,6.1,4.2c3.5,0.3,5.5-1.8,7.3-4.2
		c1.5,0.6,3.8,0,4.2,2.5c-0.6,0.9-1.2,1.8-1.8,2.7c-1.5,2.5-0.7,4.8,1,6.9c1.8,2.1,4,3.5,6.9,2.7c2.6-0.7,4.3-3,4.8-5.7
		c0.5-2.8-0.9-4.7-2.5-6.6c1.1-2.7,3.5-2.5,5.8-2.5c3,4.9,6.7,5.6,10.9,2.1c0.5-0.4,1.1-0.8,1.6-1.2c1.7,0.3,3.4,0.6,5,0.9
		c-1.8,2.2-3,4.6-2.5,7.5c0.4,2.5,1.7,4.3,4,5.3c2.3,1,4.3,0.4,6.1-1c4-3,4.1-6.1,0.6-11c1-2.5,3.3-1.4,5.1-1.7
		c3,3,6.5,4.5,10.7,2.5c3.2,5.7,4.6,11.9,4,18.4c-0.5,0-0.9,0-1.4,0c-0.3-4.7-3.4-8.4-6.9-8.2c-3.7,0.2-6.4,3.8-6.5,8.6
		c0,0.1,0,0.3,0,0.4c-1.9,0-3.8,0-5.7,0c-1.2,0-1.8,0.5-1.8,1.7c-1.7,0.3-3.3,0.5-5,0.8c-0.3-3.6-3.1-2.1-5.1-2.5
		c-0.3-1.6-0.3-3.3-0.9-4.8c-1.2-3.3-4.9-4.8-8.3-3.6c-3.6,1.3-5.1,3.9-4.9,7.6c-1.8-0.2-3.5,1-5.5,0.1c-1.5-0.7-2.9,0.4-2.9,2.4
		c-3.6-0.4-5.7,1.7-7.6,4.3c-1.7-0.6-3.3-1.2-5-1.8c0.9-1.2,1.8-2.4,2.7-3.7c1.4-2.2,0.8-4.3-0.5-6.2c-1.5-2.2-3.7-3.5-6.3-3.3
		c-4.6,0.4-7.2,6.1-5.1,10.2c0.4,0.7,0.6,1.5,1,2.2c-2.2,0.2-4.5,0.4-6.7,0.6c-1.7-3.3-4.8-2.1-7.5-2.3c0-1.1-0.5-1.8-1.7-1.7
		c-1.4,0-2.7,0-4.1,0c0-1.1,0.1-2.2,0-3.3c-0.4-4-4.5-6.4-8.4-5.1c-4.2,1.4-4.9,4.7-4.9,8.4c-2.2,0.6-4.5,1.1-6.7,1.7
		c-1.7,0-3.3,0-5,0c-0.4-0.5-0.9-1.4-1.3-1.4c-1.5,0-3.1,0.3-4.6,0.5c0-1.1,0.1-2.2,0-3.3c-0.3-3.5-4-6.8-7.2-6.6
		c-3.5,0.2-6,3.1-6.1,7c0,1,0,1.9,0,2.9c-2.2,0.5-4.7-1-6.7,0.9c-1.7,0-3.3,0-5,0c0-1.2-0.5-1.7-1.8-1.7c-1.6,0-3.3,0-4.9,0
		c0-1,0-1.9,0-2.9c-0.3-4.2-4.5-6.9-8.5-5.5c-3.9,1.3-5.3,4.5-4,9.2c-1.6,0-3.3,0-4.9,0c-1.2,0-1.8,0.5-1.8,1.7
		c-2.2-0.3-4.4-0.5-6.6-0.8c-1.7-0.3-3.4-0.6-5.1-0.9c0-1.1,0.1-2.2,0-3.3c-0.3-3.4-3.8-6.7-6.8-6.5c-3.9,0.2-6.4,2.8-6.5,7
		c0,0.7,0,1.4,0,2.1C62.2,204,61.3,204.7,60.4,205.3"/>
	<path class="st5" d="M377.7,366.8c-8.6,0.9-17.3,1.7-25.9,2.5c0.7-0.5,1.5-1.1,2.2-1.6c2.2-1.3,4.3-2.5,4.5-5.4
		c0.2-3.4-2-6.4-5.2-7c-3.1-0.6-6.9,1.2-8,3.8c-1.4,3.3,0.1,6.8,3.4,8.7c0.6,0.3,0.9,1.1,1.4,1.6c-4.1,0.5-8.2,1.1-12.3,1.6
		c-1.2,0.2-1.4-0.6-1.2-1.5c0.3-1.5,0.6-3,0.9-4.5c1.7-8.4,3.4-16.9,5.1-25.3c0.3-1.8,0.7-3.5,2.6-4.4c0,1.2,0,2.5,0,3.7
		c0.1,2.9,2.4,5.8,5,6.2c3.9,0.5,7.3-1.5,8.2-4.7c0.8-2.7-1.3-6.7-4.2-7.7c-1.7-0.6-3.4-0.9-5.2-1.3c5-7.1,10.1-14.3,15.1-21.4
		c1.1,0,2.2,0.1,3.3,0c2.7-0.2,4.6-1.5,5.6-4c0.9-2.3,1-4.4-1.1-6.4c-0.9-0.8-1.3-2.1-2-3.1l0,0c1.1,0.1,2.2,0.1,3.3,0.2
		c2.1,0.3,2.9-0.6,2.8-2.7c0-1.6,0.5-3.2,0.8-4.8c4-3.9,10.1-3.6,12.5,0.8c0,1.7,0,3.3,0,4.9c0,1.7,0.8,2.5,2.5,2.6
		c0.8,0,1.6,0,2.5,0c-0.6,0.7-1.2,1.5-1.8,2.2c-2.1,2.8-2,4.6,0.1,7.4c2,2.6,4.5,3.3,7.6,2.9c-0.9,3.3-1.7,6.7-2.5,10
		c-3.5,0-5.7,1.8-6.2,5.2c-0.5,2.8,0.3,5.3,3.2,6.6c-2.1,8.4-4.3,16.7-6.4,25.1c-0.6-0.3-1.2-0.7-1.8-1c-2.6-1.5-6.3-1.1-8.4,0.9
		c-2.2,2.1-2.6,4.4-1.2,7.5C377.1,365.2,377.4,366,377.7,366.8 M360.1,348.8c0,4.4,2.6,7.2,6.7,7.2c3.8,0,6.4-2.7,6.7-6.5
		c0.2-3.4-3-7.2-7.1-6.9C362.8,342.9,360.2,345.3,360.1,348.8 M389.3,316.2c0-4-2.4-6.8-6-6.9c-4.6-0.2-6.8,2.2-7.3,6.6
		c-0.3,2.9,3.6,6.6,6.8,6.7C386.3,322.8,389.3,319.9,389.3,316.2 M389.3,338.8c0-3.8-2.6-6.8-6.1-6.9c-3.4-0.1-7.5,3.3-7.2,6.6
		c0.3,4.3,2.2,6.6,6.3,6.8C386.4,345.4,389.3,342.6,389.3,338.8 M366.7,320.2c-4.6,0-6.7,1.9-6.6,6.1c0.1,3.9,2.9,6.5,6.9,6.5
		c3.9,0,6.6-3,6.4-6.9C373.4,322.5,370.5,320.1,366.7,320.2"/>
	<path class="st6" d="M250.9,181.6c-1.8,0.3-4-0.8-5.1,1.7c-2.8-0.3-5.5-0.5-8.3-0.8c-1.7-0.3-3.4-0.6-5.1-0.9
		c0.6-1.8,0.9-3.6,0.1-5.5c-2.1-5-7.7-5.9-11.4-2c-1.9,2.1-0.9,4.5-1.2,6.7c-2.3,0.1-4.7-0.2-5.8,2.5c-2.8-1.3-5.6-1.3-8.3,0
		c-0.4-2.6-2.7-1.9-4.2-2.5c0-0.8,0.1-1.6,0-2.5c-0.2-4.1-2.8-6.7-6.7-6.7c-3.9,0-6.5,2.6-6.7,6.7c0,0.8,0,1.6,0,2.5
		c-2.2-0.3-4.2,0.1-5.9,1.7c-2.5,0-5,0-7.4,0c-1.7-0.6-3.4-1.1-5-1.7c0-1.1,0-2.2,0-3.3c0.2-3.1-1.9-4.4-4.3-5.4
		c-2.1-0.9-4.2-0.8-6.1,1c-2.3,2.2-3.4,4.6-3,7.7c-0.9,0.3-1.8,0.5-2.6,0.9c-0.9,0.4-1.6,1.1-2.4,1.6c-2.8-0.3-5.6-0.5-8.3-0.8
		c-1.4-0.6-2.8-1.2-4.2-1.7c0-0.8,0.1-1.6,0-2.5c-0.1-3.3-1.9-5.7-4.7-6.5c-2.7-0.8-5.8,0.3-7.7,2.7c-1.7,2-0.6,4.2-0.9,6.3
		c-2.1,0-4.3-0.4-5.8,1.7c-2.5,0-5,0-7.5,0c-0.4-0.6-0.7-1.4-1.2-1.6c-1.2-0.5-2.5-0.6-3.7-0.9c0-1-0.1-2-0.2-3
		c11.2-4.4,22.3-8.7,33.5-13.1c0,0.7,0,1.4,0,2.1c0,3.1,1.7,5.3,4.6,6.2c2.7,0.9,5.3,0.6,7.4-2c2-2.4,1.6-4.8,0.7-7.3
		c-0.3-0.9-0.8-1.7-1.2-2.6c2-0.6,3.9-1.1,5.9-1.6c2.4,3.5,3.9,4.3,6.9,3.4c3.7-1.1,4.8-2.4,5-6.2c6.1-0.9,12.2-1.8,18.3-2.6
		c0,1.2-0.1,2.5,0,3.7c0.7,4.6,6.4,7,10.1,4.1c2.9-2.1,3.5-5.1,3.1-8.4c6-0.1,11.9,0.4,17.6,2.2c0.7,6.3,5.7,9.4,10.5,6.5
		c1.1-0.6,1.9-1.5,2.9-2.3c1.3,0.6,2.7,1.2,4,1.8c-0.4,0.9-1.1,1.7-1.3,2.6c-0.6,2.3-0.9,4.4,0.8,6.6c1.9,2.4,4.4,2.8,7,2.4
		c2.3-0.4,3.8-2.1,4.9-4.1c1.8,1.6,3.6,3.3,5.3,4.9C250,175.2,251,178.6,250.9,181.6 M216.6,166c0-3.8-2.6-6.8-6.1-6.9
		c-3.9-0.1-7.1,2.7-7.3,6.4c-0.1,4.1,2.7,6.9,7,7C214,172.5,216.6,169.9,216.6,166 M172.4,165.9c0,4.7,1.9,6.6,6.5,6.6
		c4.8,0,6.4-2.8,6.8-6.2c0.4-3.5-3.6-7.2-7.1-7.1C175,159.2,172.4,162.1,172.4,165.9"/>
	<path class="st4" d="M370.2,204.2c0.1-1.1,0.2-2.2,0.4-3.2c0.8-3.7,0.8-3.7-2.9-4.2c0-0.3,0-0.6,0-0.9c5.9-2.9,7.6-6.1,4.3-11.7
		c-0.1-0.2-0.1-0.5-0.1-0.8c1.7-0.3,3.4-0.6,5.1-0.9c5,3.6,6.6,3.6,11.6,0c1.4,0.6,2.8,1.1,4.2,1.7c-0.4,1.2-0.9,2.3-1.3,3.5
		c-1,2.9,0.6,4.8,2.6,6.5c1.9,1.6,4,2.3,6.5,1.2c4.9-2.3,5.8-6.8,2.2-11.9c1.7-0.6,3.4-1.1,5.1-1.7c0.4,0.3,0.9,0.6,1.3,1
		c4.3,3.7,7.4,3.5,11.2-0.9c1.9,0,3.7,0.1,4.2,2.5c-0.3,0.5-0.6,0.9-0.9,1.4c-1.3,2.4-1,6,0.7,8c1.7,1.9,4.6,2.6,7.5,1.6
		c3.1-1.1,4.5-2.7,4.3-6.1c-0.1-1.9-1.1-3.8-1.6-5.7c1.7-0.3,3.4-0.6,5.1-0.9c5,3.6,6.6,3.6,11.6,0c1.4,0.6,2.8,1.1,4.2,1.7
		c-0.5,1.5-1.4,3.1-1.5,4.6c-0.2,3,3.1,6.5,6.1,7c2.8,0.4,5.9-1.7,7.2-4.5c1.2-2.7-0.6-4.7-0.9-7.1c1.7-0.6,3.4-1.1,5-1.7
		c5.3,3.7,8.1,3.5,11.7-0.9c1.1,0.9,2.2,1.8,3.4,2.7c-0.2,0.9-0.4,1.8-0.6,2.7c-0.9,3.8,0.4,6.1,3.7,8c2.4,1.4,4.5,0.1,6.7-0.1
		c1.5,2.8,3.1,5.5,4.6,8.3c-1.5,0.9-2.9,1.8-4.4,2.6c-2.5-0.8-5-1.6-7.5-0.1c-0.5-0.5-0.8-1.4-1.4-1.5c-1.2-0.3-2.4-0.1-3.7-0.1
		c0-1.1,0.1-2.2,0-3.3c-0.3-3.5-4-6.9-7.3-6.6c-3.5,0.3-6,3.1-6.1,7c0,1,0,1.9,0,2.9c-2,0.6-3.9,1.1-5.9,1.7c-2.5-1-5-1-7.5,0
		c-1.7-0.6-3.4-1.1-5-1.7c0-1.2,0.1-2.5,0-3.7c-0.2-3.4-2.3-5.4-6.1-6c-2.4-0.4-5.5,1.5-6.4,4.1c-0.5,1.5-0.6,3.2-0.9,4.8
		c-2,0.6-4,1.1-5.9,1.7c-2.2,0-4.4,0-6.6,0c-1.7-0.3-3.4-0.6-5.1-0.9c0-1.1,0.1-2.2,0-3.3c-0.3-3.5-4-6.9-7.3-6.6
		c-3.5,0.3-6,3.1-6.1,7c0,1,0,1.9,0,2.9c-2.1,0-4.3-0.4-5.8,1.7c-2.9-0.9-5.8-1.6-8.3,0.8c-0.5-2.4-2.3-2.5-4.2-2.5
		c0-1.1,0.1-2.2,0-3.3c-0.1-3.3-1.2-4.7-4.2-5.8c-2.9-1.1-5.2-0.4-7.3,1.8c-2,2.1-2,4.7-1.9,7.3
		C374.1,206.3,372.1,204.2,370.2,204.2"/>
	<path class="st6" d="M455.3,184.2c-1.4-0.6-2.8-1.1-4.2-1.7c0.3-1.6,0.8-3.2,0.8-4.8c0.1-3-2.4-5.6-5.5-6.1
		c-3.3-0.5-5.7,1.2-7.1,4.1c-1.3,2.5,0.2,4.5,0.2,6.7l-5.1,0.9c-3.4-1-6.8-1.9-10,0.8c-0.5-2.3-2.3-2.5-4.2-2.5
		c0.3-0.8,0.7-1.5,0.8-2.3c0.3-4.1-2.5-7.5-6.3-7.7c-4.2-0.2-7,2.6-7.1,7.1c0,1,0,1.9,0,2.9c-1.7,0.6-3.4,1.1-5.1,1.7
		c-3.4-0.9-6.8-1.9-10,0.9c-1.4-0.6-2.8-1.1-4.2-1.7c0.3-1.5,0.8-2.9,0.8-4.4c0-3.2-2.3-5.9-5.4-6.4c-3.4-0.6-5.8,1.2-7.4,4.4
		c-1.2,2.4,0.5,4.3,0.3,6.4c-1.7,0.3-3.4,0.6-5.1,0.9c-1.9-0.3-3.8-0.8-5.7-0.8c-3.3,0-5.9,2.7-6,6c-0.1,4.7,2.3,7,7.5,7.3
		c0,0.3,0,0.6,0,0.9c-3.2-0.1-6.3-0.3-9.5-0.4c-1-2.8-2-5.7-2.9-8.5c-0.4-1.2-0.6-2.4-0.9-3.6c3.3-2.2,4.5-4.5,3.7-7.4
		c-1-3.8-2.7-5-7.3-5.1c-0.9-2.8-1.8-5.7-2.9-8.5c-0.6-1.8,0.1-2.2,1.7-2.2c1.2,0,2.5,0,3.7-0.1c2.5,0.2,5,0.4,7.6,0.6
		c-0.3,1.1-0.6,2.1-0.9,3.2c-0.7,3.1,0.7,5.3,3.1,7.1c1.6,1.2,5.5,0.9,7.4-0.4c2.4-1.7,3.1-4.1,2.7-6.9c-0.1-0.9-0.5-1.8-0.8-2.7
		c2.8-0.2,5.7-0.3,8.5-0.5c3.6,0.2,7.2,0.4,10.8,0.6c-0.5,2.5-1.4,4.9,0.4,7.5c1.7,2.5,4.1,3.7,7.4,3.1c2.3-0.4,4.6-3.4,4.7-6
		c0-1.4,0-2.8,0-4.2c6.1,0.2,12.3,0.4,18.4,0.6c0.2,2.2-0.1,4.5,0.7,6.4c1.2,2.7,5.5,4,8.3,3.2c2.1-0.6,4.1-3.6,4.3-6.5
		c0-0.5,0-1.1,0-1.6c6.1,1.3,12.3,2.6,18.4,3.9c2.2,4.5,4.9,5.4,10,3.4c2.2,0.9,4.4,1.8,6.7,2.8c-0.9,2.7-1.5,5.4,0,8.1
		c-1.7,0.6-3.4,1.1-5,1.7C462.5,181.8,458.9,181.8,455.3,184.2"/>
	<path class="st5" d="M527.2,356.1c-3.1,8.2-9.2,13.6-16.8,17.6c-4.2,2.2-8.5,4.1-13.4,3.4c0.3-0.8,0.7-1.5,1-2.3
		c1.2-2.5,1.2-5.1-0.8-6.9c-2.1-1.9-4.4-3.7-7.8-2c-3.1,1.5-4,2.7-4.1,7.6c-2.3-1.9-4.7-3.8-7-5.7c3.7-1.4,5.9-4.1,5.2-6.9
		c-1.2-4.4-3.1-6.4-7.1-5.8c-0.7,0.1-1.4,0-2.1,0c-0.2-3.2-0.1-6.4,1.6-9.2c1.6-0.6,3.5-0.8,4.8-1.8c3.2-2.3,3.6-5.5,2.1-9
		c1.1-1.1,2.2-2.3,3.4-3.4c1,0.2,2.1,0.5,3.1,0.7c3.7,0.8,6.9-0.2,8.6-3.1c0.9-1.5,1-3.3,1.5-5c5.7-1.8,11.3-1.9,16.7,0.9
		c0.3,0.9,0.7,1.8,0.8,2.7c0.1,3,2.3,3.8,4.5,4.5c1,0.3,2.1,0,3.2,0c3.1,3.6,5,7.7,4.7,12.5c-1-0.7-2-1.5-3.1-1.9
		c-2.4-0.9-4.6-1.1-7,0.8c-2.8,2.2-2.6,5.1-2.1,7.9c0.4,2.1,3.7,4,6.7,4.1C525,356.1,526.1,356.1,527.2,356.1 M498.7,348.9
		c0-3.5-3-6.2-6.8-6.2c-3.9,0-6.7,2.9-6.6,6.9c0.1,3.7,2.8,6.4,6.6,6.5C496,356.1,498.7,353.2,498.7,348.9 M514.5,362
		c0-4.8-1.8-6.6-6.3-6.8c-3.8-0.2-7.2,3.1-7.1,6.5c0.1,2.9,3.6,6.8,6.6,6.9C511.5,368.7,514.5,365.9,514.5,362 M514.5,338.7
		c0.8-4.3-2.9-6.3-6.5-6.8c-3.1-0.4-6.9,3.9-6.8,7.1c0.1,3.5,2.9,6.1,6.5,6.2C511.6,345.3,514.5,342.6,514.5,338.7"/>
	<path class="st7" d="M139,204.2c1.5-0.2,3.1-0.5,4.6-0.5c0.4,0,0.9,0.9,1.3,1.4c-0.7,0.6-1.5,1.1-2.2,1.8c-2.7,2.7-2.7,6.7-0.2,9.6
		c2.1,2.4,6.5,2.8,8.9,0.8c3-2.5,3.6-6.5,1.4-9.5c-0.8-1.1-2-1.8-3-2.7c2.2-0.6,4.5-1.1,6.7-1.7c4.7,6,10,6,13.4,0
		c1.4,0,2.7,0,4.1,0c1.2,0,1.7,0.6,1.7,1.7c-0.8,1.2-1.6,2.4-2.4,3.6c-2.1,0.4-4.2,1.1-6.3,1.3c-2,0.2-2.2,1-1.6,2.7
		c0.6,1.8,0.8,3.7,1.1,5.6c-5-1.7-7.5-0.7-9.3,4c-0.4,1.1-0.4,2.4-0.6,3.6c-1.5,0-3.1-0.2-4.6,0.1c-1.1,0.2-2,1.1-3,1.6l-2.5,0
		c0-1.2-0.6-1.7-1.8-1.7c-1.9,0-3.8,0-5.8,0c0-0.7,0-1.4,0-2.1c-0.1-2.7-1.5-4.6-4-5.7c-2.5-1.1-4.8-0.6-7,0.8
		c-2.7,1.7-2.5,4.3-2.4,7c-2.6,0-5.2,0-7.8,0c-1.2,0-2.2,0.1-2.2,1.7c-0.6,0-1.1,0-1.7,0c-2.2-0.6-4.4-1.1-6.7-1.7
		c0-0.5,0-1.1,0-1.6c-0.1-3.8-2.5-6.4-6.1-6.7c-3-0.2-6.4,1.3-6.4,5.7c-3.5,1.3-6.9,2.6-10.4,4c-1.3,0.5-2.2,0.4-3.3-0.7
		c-6.6-6.6-13.3-13.2-20-19.8c-0.3-0.4-0.5-0.9-0.7-1.4l2.7-2c1.2,3.4,3.8,4.1,7.1,4.3c3.1,0.2,4.1-2.4,6.2-3.5
		c1.7,0.3,3.4,0.6,5.1,0.9c-0.9,1.2-2,2.3-2.7,3.6c-1.7,3.2-0.3,7.7,2.8,9.3c3.1,1.6,7.4,0.1,9.1-3.3c1.7-3.3,0.9-5.9-2.6-8.9
		c0-1.2,0.6-1.7,1.8-1.6c1.6,0,3.3,0,4.9,0c4.2,5.2,9.4,4.9,12.6-0.8c1.6,0,3.3,0,4.9,0c1.2,0,1.7,0.5,1.7,1.7
		c-3.2,1.5-4.7,4.1-4.9,7.4c-0.1,2.4,2.8,5.4,5.1,5.9c3,0.6,6.1-0.3,7.3-2.5c1.7-3.2,2.1-5.4-0.7-8.5c-0.6-0.7-1.2-1.5-1.8-2.2
		c2-1.9,4.5-0.4,6.7-0.9c1.8,2.7,4.3,3.4,7.4,3.5C136,207.7,136.9,205.1,139,204.2"/>
	<path class="st3" d="M115.6,227.6c0-1.5,0.9-1.7,2.2-1.7c2.6,0,5.2,0,7.8,0c0.9,3.4,3.4,4.9,6.7,4.9c3.3,0,5.8-1.5,6.7-5
		c1.9,0,3.8,0,5.8,0c1.2,0,1.8,0.5,1.8,1.7c-0.9,0.4-1.7,0.9-2.6,1.3c-3.7,1.9-4.9,7.9-0.7,11c2.8,2,6.7,2.2,8.9-0.1
		c2.6-2.6,2.5-6.9-0.1-9.6c-1-0.9-2.1-1.7-3.1-2.6c1-0.6,1.9-1.4,3-1.6c1.5-0.3,3-0.1,4.6-0.1c1.7,3,3.9,5.5,7.6,4.9
		c1.6-0.3,3.1-1.5,4.7-2.4c1.8,8,3.6,16,5.3,24c-0.3,0.3-0.6,0.7-0.9,1.1c-1.4-0.6-2.8-1.1-4.2-1.7c0.3-1.5,0.8-2.9,0.8-4.4
		c0.2-4.2-2.6-7.3-6.3-7.2c-3.9,0.1-7.6,4.2-7,8.1c0.2,1.2,1.1,2.4,1.6,3.5c-2.1-0.5-3.6,0.6-5.1,1.7c-3.4-3-7-3.5-10.8-0.8
		c-1.4-0.3-2.8-0.6-4.3-0.9c0.2-1.2,0.5-2.4,0.6-3.6c0-1.2,0-2.4-0.4-3.5c-1.3-3.1-4.3-4.7-7.1-4c-4.5,1.1-5.8,2.8-5.5,7.2
		c0.1,1.3,0.6,2.6,0.9,4c-1.7,0.3-3.4,0.6-5.1,0.9c-0.6-0.2-1.3-0.3-1.9-0.7c-2.3-1.4-4.6-1.4-7,0c-0.6,0.3-1.2,0.5-1.9,0.7
		c-1.1-0.9-2.3-1.8-3.4-2.7c0-0.9,0-1.9,0-2.8c-0.1-3.9-0.7-4.8-4.7-6.4c-0.8-3.3-1.5-6.6-2.3-9.9c3.4-0.2,6.1-1.5,7-5.1
		c2.2,0.6,4.4,1.2,6.7,1.7c-2.7,1.7-4.7,4.1-4.8,7.2c-0.1,2.5,1.3,5,4.1,6.1c3.2,1.3,5.1,1,7.5-1.3c2-2,2.8-4.2,1.7-7
		C121.2,229.3,118.8,228,115.6,227.6"/>
	<path class="st7" d="M313.4,225c-5.8,0-11.7,0-17.5,0c-0.7-4.6-3.2-7.4-6.7-7.5c-4.1-0.1-6.7,2.6-7.5,7.5c-2.8,0.3-5.7,0.6-8.5,0.7
		c-1.2,0.1-2.4-0.1-3.7-0.2c-1.8-0.2-3.5-0.4-5.3-0.6c-0.3-5.2-1.8-6.7-7.2-7.8c2.4-1.6,4.8-3.2,7.2-4.8l-0.1,0.1
		c0.6-0.1,1.1-0.1,1.6-0.2c0.3,0.5,0.5,1,0.7,1.5c2,5.1,7.4,6.3,11.1,2.4c2.6-2.7,2-5.8,0.7-8.8l5.8-1.8c4.4,3.6,8.7,2.7,11-2.2
		c6.4-1.2,12.8-1.3,19.2-0.5c0.3,2.7,1.8,4.4,4.5,4.5c2.4,0,5.5,1.1,6.5-2.6c1.9,0.6,3.9,1.2,5.8,1.7c-0.6,0.8-1.1,1.6-1.6,2.4
		c-2.1,3,0.2,8.8,4.7,9.4c4.5,0.5,7.4-1.9,7.8-6.8c2.8,1.9,5.6,3.9,8.3,5.9c-3.5,1.3-5.4,3.8-5.9,7.6c-2.2,0.2-4.3,0.5-6.5,0.7
		c-0.8,0.1-1.6-0.1-2.4-0.1c-2.9-0.2-5.7-0.4-8.6-0.6c0.2-2.6-0.6-4.9-2.9-6.4c-2.2-1.4-4.6-1.6-7-0.4
		C314.2,219.7,313.3,222.1,313.4,225 M303.8,218.4c4.2,0,7.2-2.7,7.1-6.4c-0.1-4.2-2.7-6.9-6.6-6.9c-4.1,0-6.8,2.8-6.7,7.2
		C297.6,215.8,300.2,218.4,303.8,218.4"/>
	<path class="st7" d="M451.9,204.2c1.7,0.6,3.3,1.1,5,1.7c-0.9,1.5-2.7,2.4-2.8,4.7c-0.2,2.8,1,6.1,3.3,7.2c2.5,1.2,6.5,0.8,8.1-0.9
		c1.8-1.9,2.3-6.2,1-8.3c-0.6-0.9-1.4-1.7-2.1-2.6c2-0.6,3.9-1.1,5.9-1.7c1.9,3.1,4.8,4,8,3.2c1.9-0.5,3.6-2.1,5.3-3.3
		c1.2,0,2.5-0.1,3.7,0.1c0.5,0.1,0.9,1,1.4,1.5c-0.6,0.5-1.4,0.9-1.9,1.6c-2.2,2.9-2,6.6,0.4,9.1c2.2,2.2,6.5,2.6,8.7,0.9
		c3.6-2.7,3.4-6,1.9-9.1c-0.4-0.9-1.1-1.6-1.6-2.4c1.5-0.9,2.9-1.8,4.4-2.6c1.5,5,4.5,9.6,4.7,15.1c-1.1,0.9-2.7,1.6-3.1,2.8
		c-0.7,1.7-0.6,3.7-0.9,5.6c-1.8,0-3.6-0.1-5.3,0.1c-0.5,0.1-0.9,1-1.4,1.5c-1.4-0.3-2.8-0.5-4.2-0.7c-2-1.9-4.5-0.4-6.7-0.9
		c-0.2-1.5-0.2-3-0.6-4.4c-1-3.6-3.5-5.2-7-4.8c-3.4,0.4-5.7,3.1-5.8,6.7c0,0.8,0,1.7,0,2.5c-2.5,0.5-5.2-1-7.5,0.9
		c-0.5,0-1.1,0-1.6-0.1c-0.4-0.5-1-1.5-1.2-1.4c-1.1,0.3-2,1-3,1.5c-2.9-4.5-6.9-7.5-11.7-9.5c-3-1.3-6.1-2.5-9.2-3.7
		c0.9-3.8-0.7-6.8-3.3-9.4c2-0.6,4-1.1,5.9-1.7C442,209.1,447.6,209.4,451.9,204.2"/>
	<path class="st7" d="M517.6,230c0.8-3.9,1.6-7.9,2.4-11.8c0.8,0,1.6,0.1,2.5,0.1c2.8,0.2,5.3-0.4,6.7-3c1.4-2.6,1.5-5.2-0.7-7.6
		c-0.6-0.6-0.6-1.8-0.8-2.6c1.7-0.6,3.4-1.2,5-1.8c1.8,3,4.2,4.6,8,4.3c2.6-0.2,3.4-2.6,5.3-3.4c2,0.3,4,0.6,5.9,0.9
		c-0.6,0.5-1.3,1-1.9,1.5c-2.9,2.7-3.1,6.7-0.7,9.7c1.9,2.3,6.3,3.1,8.6,1.5c3.5-2.5,4.1-5.3,2.2-9.4c-0.4-0.9-1.1-1.6-1.6-2.4
		c1.3-2.9,3.8-1.3,5.8-1.7c4,4.9,8.6,4.9,12.5,0c0.9,0,1.8,0,2.8,0c-2,4.5-4,9-5.9,13.5c-0.8,0-1.6-0.1-2.5-0.1
		c-5.5-0.4-6.5,2.6-7.7,6.3c-0.3,0.9-0.1,1.9-0.1,2.9c-1.1,0.3-2.2,0.8-3.3,0.9c-1.2,0.1-1.8,0.5-1.8,1.7c-2.4-1.4-4.9-1.4-7.5-0.8
		c-1.2-2.1-3.2-1.6-5.1-1.7c0-0.8,0.1-1.6,0-2.5c-0.2-4.1-2.8-6.7-6.7-6.7c-3.9,0-6.5,2.6-6.7,6.7c0,1.1,0,2.2,0,3.3
		c-2.1-0.8-4.1-0.9-5.1,1.7c-2.9-1.7-5.8-2-8.7,0.1C518.7,229.7,518.1,229.8,517.6,230"/>
	<path class="st7" d="M370.2,204.2c1.9,0,3.9,2.1,5.8,0c2,2.5,4.5,3.7,7.9,3.5c2.7-0.1,3.4-2.6,5.5-3.4c1.9,0,3.7,0.1,4.2,2.5
		c-3,3.3-3.2,6-0.7,9.5c1.3,1.9,5.1,3,7.6,2.1c2.6-0.9,4.6-4.3,3.9-7.8c-0.3-1.6-1.6-3-2.4-4.6c1.5-2.1,3.7-1.6,5.8-1.7
		c1.9,3,4.8,4,8,3.2c1.9-0.5,3.6-2.1,5.3-3.2c1.7,0.3,3.4,0.6,5.1,0.9c-0.8,0.9-1.6,1.8-2.3,2.8c-1.6,2.3-1.5,5,0.1,7.4
		c-0.9,3.9-1.7,7.8-2.5,11.7c-0.1-0.1-0.3-0.2-0.4-0.3c0-0.8,0-1.6,0-2.5c0-2.9-1.3-5-4-6.1c-2.5-1.1-4.8-0.6-7,0.8
		c-2.7,1.7-2.5,4.3-2.4,7c-6.1-0.3-12.2-0.6-18.3-0.8c0-0.4,0-0.8,0-1.2c-0.5-3.9-2.8-6.1-6.3-6.3c-3.6-0.2-5.7,1.4-6.7,5.1
		c-0.3,1-0.3,2.1-0.4,3.2c-2.9,0.2-5.6-0.1-7.9-2.2c-0.4-0.4-1.3-0.2-1.9-0.3c0.3-1.7,0.6-3.4,1-5.1c3.4,0,5.5-2,6.2-5
		c0.7-3.2-0.3-6-3.5-7.6C369.9,205.2,370.1,204.7,370.2,204.2"/>
	<path class="st3" d="M483.6,226.7c2.2,0.5,4.7-1,6.7,0.9c-0.5,0.4-1.1,0.8-1.6,1.2c-3.7,2.4-4.1,5.2-2.9,8.8c0.8,2.4,5.1,4.8,7.4,4
		c3.2-1.1,5.7-2.7,5.5-7.6c-0.2-3-2.3-4.2-4.2-5.7c0.5-0.5,0.9-1.5,1.4-1.5c1.8-0.2,3.6-0.1,5.3-0.1c1.4,1.2,1.8,3.5,4.2,3.4
		c-1.2,6.9-3.3,13.4-7.5,19.1c-0.6,0.9-1.3,1.7-2,2.6c-3.1-1.4-6.1-1.1-8.9,0.8c-1.7-0.3-3.4-0.6-5-0.9c1.2-2.9,1.6-5.9,0-8.7
		c-1.4-2.4-4.3-3.4-6.4-2.7c-3.7,1.2-5.3,3-5.2,6.5c0,1.6,0.5,3.2,0.8,4.8c-1.7,0.6-3.4,1.1-5,1.7c-3.1-2.7-6.4-3.6-10-0.9
		c-1.7-0.3-3.3-0.6-5-0.8c0-0.9,0-1.7,0-2.6l0,0c0.3-0.3,0.6-0.7,0.8-1.1c1.7-2.7,3.3-5.5,5-8.2c0.5,0.3,1.1,0.7,1.6,1
		c3,1.6,5.2,0.4,7.3-1.8c2-2.1,2.3-4.7,0.9-7.1c-0.9-1.7-2.6-3-3.9-4.5c2.3-1.9,5-0.4,7.5-0.9c0.7,0.9,1.3,2.1,2.3,2.7
		C476.8,232.2,479.9,231.4,483.6,226.7"/>
	<path class="st3" d="M527.8,229.2c1-2.6,2.9-2.5,5.1-1.7c1.1,0.8,2.1,1.8,3.2,2.5c3.5,2.1,6.7,1,10-3.3c1.9,0.1,3.9-0.4,5.1,1.7
		c-0.5,0.5-0.9,1-1.4,1.5c-2.3,2.2-2.7,5.5-0.9,8.2c2,3.1,5.2,4.2,8.1,2.8c5.1-2.3,5.8-7.4,1.6-11.7c0-1.2,0.6-1.6,1.8-1.7
		c1.1-0.1,2.2-0.6,3.3-0.9c0.6,0.7,1.1,1.4,1.8,2c0.8,0.6,1.7,1,2.6,1.5c-3.1,7.2-6.2,14.5-9.2,21.7c-3.7-1.6-7.1-1.2-10.1,1.6
		c-1.4-0.6-2.8-1.2-4.2-1.7c0.4-1.1,0.9-2.3,1.3-3.4c1-2.7-0.4-4.6-2.2-6.1c-1.8-1.5-3.7-2.6-6.4-1.4c-4.4,2.1-5.5,4.9-3.6,10.2
		c0,1.2-0.6,1.6-1.8,1.7c-0.8,0.1-1.6,0.6-2.4,0.9c-0.7-0.3-1.5-0.6-2.2-1.1c-3.6-2.3-6.2-2-9.5,1c-0.4-0.3-0.8-0.7-1.3-0.8
		c-2.8-0.5-2.8-0.5-1.7-3.2c0.6-1.5,1.2-3-0.4-4.4c0.8-3.5,1.5-6.9,2.3-10.4c0.2,0.9,0.3,1.9,0.6,2.8c1.9,4.6,6.7,5.7,10.4,2.4
		C531.1,236.7,531.1,234,527.8,229.2"/>
	<path class="st4" d="M564.6,204.2c-2,0.4-4.6-1.2-5.8,1.7c-2.2-0.3-4.4-0.6-6.6-0.8c-2-0.3-4-0.6-5.9-0.9c0-1.1,0.2-2.2,0-3.3
		c-0.5-2.9-2.1-4.8-5-6c-2.8-1.2-4.3,0.3-6.3,1.7c-2.5,1.8-2.1,4.3-2.1,6.8c-1.7,0.6-3.4,1.2-5,1.8c-1.7,0-3.4-0.1-5.1-0.1
		c0.6-3.3,1.3-6.6,1.9-10c3.3,0.1,4.8-2.3,5.4-4.8c0.7-2.7-0.2-5.4-3-6.9c0.1-0.8,0-1.6,0.2-2.4c0.9-5,0.9-5,5.8-3.1
		c-0.4,2.9,0.9,5,3.4,6.4s5,1,7.3-0.6c0.7-0.4,1.3-0.9,2-1.4c1.5,0.5,3.1,0.9,4.6,1.3c-0.7,1-1.5,2-2,3.1c-1.4,3.2,0.2,6.5,4,8.4
		c3.1,1.5,6.6,0.6,8.1-2.6c0.7-1.5,0.7-3.4,1-5.2c7,2.3,13.9,4.6,20.9,6.7c1.6,0.5,2,1.2,1.3,2.7c-1.2,2.5-2.4,5-3.6,7.5
		c-0.9,0-1.8,0-2.8,0c0.2-1.3,0.7-2.7,0.5-3.9c-0.8-4.3-4.6-6.7-8.3-5.5C564.7,196.1,563,199.6,564.6,204.2"/>
	<path class="st7" d="M243.3,205c0-1.2,0.6-1.7,1.8-1.7c1.9,0,3.8,0,5.7,0c1.7,1.6,2.5,4,5.6,4.3c4.2,0.4,6.4-1.6,7.8-5.1
		c0.5,0,0.9,0,1.4,0c-0.5,3.3-0.9,6.7-1.4,10l0.1-0.1c-6,3.1-12,6.1-17.9,9.3c-2.7,1.5-5.2,3.5-7.9,5.3c-0.7-2.8-3-2.6-5.1-2.8
		c-1.4-4.4-3.6-6.6-6.7-6.7c-3.8-0.1-6,1.8-7.5,6.7c-0.7,0-1.5-0.2-1.9,0.2c-1.7,1.2-2.9,0.5-3.9-1c-0.6-1.7-1.2-3.3-1.7-5
		c3-0.9,5-2.6,5.1-6c0.1-4.4-0.9-5.8-5.9-7.4c0-1.9,1.3-3,2.9-2.4c2,0.9,3.7-0.3,5.5-0.1c2.6,4.8,3.8,5.5,8.3,5
		c2.8-0.3,4.3-2.3,5.8-4.2c1.9,0.4,4.7-1.1,5.1,2.5c-1,1.1-2.2,2.1-2.8,3.4c-1.6,3.3,0.2,7.7,3.4,9c3.5,1.4,7.6-0.6,8.8-4.3
		C248.9,210.2,247.4,207.3,243.3,205"/>
	<path class="st3" d="M213.3,223.4c1,1.5,2.1,2.1,3.9,1c0.5-0.3,1.3-0.1,1.9-0.2c0.5,3,3.1,6.1,5.8,6.6c3,0.6,5.3-0.9,7-3.3
		c0.7-0.9,0.9-2.2,1.4-3.3c2.1,0.3,4.5,0,5.1,2.8c-2.2,2-4.4,4-6.6,5.9c-6.7,5.9-12.1,12.9-17.3,20c-3.7-3-5.6-3-10.4,0.5
		c-1.4-0.3-2.8-0.6-4.2-0.9c0.3-1.2,0.5-2.4,0.8-3.6c2.3-2.4,4.7-4.9,7-7.3c2.1-0.5,4.2-0.8,6.2-1.6c2.8-1.1,2.9-3.7,2.7-6.2
		c-0.2-2.2-0.6-4.4-3.5-4.7C213.2,227.2,213.3,225.3,213.3,223.4"/>
	<path class="st8" d="M175.7,296.8c-1.1,0-2.2,0.1-3.3,0c-1.7-0.2-2.7-0.6-2.1-2.9c0.8-2.9-1.5-5-3-7.1c1.3-0.3,2.6-0.7,4-0.8
		c1.4-0.1,1.9-0.4,1.4-2c-0.7-2.4-0.7-4.9,0.5-7.2c0.9-2,2.5-2.5,4.7-2.6c2.3-0.1,4.3,0.7,6.2,1.8c0.3,1,0.7,2.1,0.8,3.1
		c0.4,6.9,0.4,6.9,7.6,7c-1,1.1-2,2.2-3,3.4c-1.7,2-1.7,5.1,0,7.7l-5.4,3.1c-0.2-2.7-2.4-3-4.3-3.3
		C178.5,296.6,177.1,296.8,175.7,296.8"/>
	<path class="st5" d="M543.2,288.1c-1.9,4.6-3.8,9.2-5.6,13.9c-0.7,1.7-1.8,1.8-3.3,1.4c-10.4-2.3-20.8-4.5-31.3-6.7
		c-1.6-0.3-2.1-0.9-1.5-2.6c0.9-2.4,1.7-5,2.6-7.4c3.5-1.2,6.7-0.8,9.5,1.8c1.3,2.3,0.9,4.8,0.6,7.2c-0.1,0.6,0.1,1.2,0.1,1.8
		c1.8-0.4,3.4,1.9,5.5,0.3c2.4-1.8,5-1.4,7.7-0.2c1.4,0.6,3.1,0.7,4.7,0.8c0.4,0,1.4-1.3,1.3-1.5c-1.6-2.9,0-5.6,0.2-8.4
		C537,286.2,540.5,286.1,543.2,288.1"/>
	<path class="st9" d="M389.3,290.1c-2.4-4.5-8.5-4.7-12.5-0.8c-1.6,0-3.2,0-4.8,0c0.4-1.7,0.8-3.4,1.2-5.1c2.3,0,4.7-0.2,7,0.1
		c4,0.5,7.8,0,11.6-0.9c4.2,5.2,6.8,5.5,11.8,1.2c0.2-0.2,0.5-0.3,0.7-0.4c4.7,0,9.4,0.1,14,0c1.5,0,2.9-0.5,4.4-0.8
		c3.8,4.6,7.6,4.9,11.2,2.3c0.8-0.6,1.5-1.5,2.2-2.3c4.3,0,8.5-0.4,12.7,1c-8.9,4-18.1,6.7-27.7,8.2c-0.9-5.3-5.8-8.1-10.2-5.8
		c-1.2,0.7-2.1,2.1-3.2,3.2C401.6,290.1,395.5,290.1,389.3,290.1"/>
	<path class="st8" d="M128.2,286.8c-1.3,1.9-2.7,3.7-2.6,6.3c0.1,2.7-0.5,3.2-3.2,3.7c-0.9,0.2-1.7,0.5-2.5,0.8
		c-1.3-0.2-2.5-0.5-3.8-0.7c-1.6-6.9-3.2-13.7-4.8-20.6c2.3-2.8,4.2-3.3,7.2-2c0.7,0.3,1.5,0.5,2.2,0.8c1.3,2.9,3,5.7,1.8,9.1
		c-0.4,1.1,0.5,1.6,1.6,1.8C125.4,286.1,126.8,286.5,128.2,286.8"/>
	<path class="st10" d="M210.8,274.3c0.5-1.4,1-2.8,1.5-4.2c2.5,0,5,0,7.6,0c0.2,3.4,2.4,6.3,4.9,6.7c3.6,0.5,6.4-1.4,7.7-5
		c6.1,0,12.2,0,18.3,0c1.2,3,3.2,5.1,6.7,5c1.9,0,1.6,1.4,1.6,2.6c0,1.7-1.2,1.6-2.3,1.5c-2.8-0.3-5.7-0.5-8.5-0.8
		c-0.2-0.5-0.5-1-0.7-1.5c-1.4-3.6-3.6-4.8-7.6-4.4c-3.2,0.4-4.3,1.7-5,5.8c-6.1-0.3-12.2-0.6-18.3-0.8
		C215.7,276.5,214.1,274.4,210.8,274.3"/>
	<path class="st8" d="M210.8,274.3c3.3,0.1,4.8,2.2,5.8,5c0,1.4,0,2.8,0,4.2c-1.3,1.5-2.2,3.5-4.7,3.6c-0.3,0-0.7,0.8-1,1.2
		c0.5,0.3,1,0.9,1.5,0.9c2.5,0.1,5,0.1,7.5,0.1c0,0.7,0,1.4,0,2.1c0,5.2,0,5.2-4.2,7.1c-2.7-1.8-5.7-1.9-8.7-1.7
		C207.1,289.1,208.1,281.5,210.8,274.3"/>
	<path class="st11" d="M192.4,286c-7.2-0.1-7.1-0.1-7.6-7c-0.1-1-0.5-2.1-0.8-3.1c1.7-0.6,3.3-1.1,5-1.7c0.5,0.3,0.9,0.6,1.4,0.9
		c3.9,2.6,6.4,2.3,9.7-1.2c0.3-0.3,1-0.4,1.5-0.6c1-0.3,2-0.5,2.9-0.8c-1.3,5-2.7,10-4,15C197.8,287.2,195.4,285.2,192.4,286"/>
	<path class="st12" d="M470.3,274.1c-1.6,0.9-3.3,1.9-4.9,2.8c-0.1-1.4-0.9-2-2.1-2.7c-2.2-1.2-4.2,0.1-6.3,0.1
		c-1.7-0.3-3.4-0.6-5-0.9c-0.3-2.5-0.5-5-0.8-7.5c2.3-0.2,5,0.9,6.7-1.7c1.9,0,3.9,0,5.8,0c0,1.2,0.6,1.7,1.8,1.7c1.9,0,3.8,0,5.8,0
		C470.8,268.6,470.6,271.3,470.3,274.1"/>
	<path class="st11" d="M451.9,273.4c1.7,0.3,3.4,0.6,5,0.9c-0.6,0.7-1.4,1.4-1.7,2.2c-0.7,1.8-2.3,3.6-0.4,5.6
		c-1.8,0.7-3.6,1.5-5.4,2.2c-0.2-0.2-0.3-0.4-0.5-0.6c-0.1,0.3-0.2,0.5-0.2,0.7h0c-4.1-1.4-8.4-1-12.7-1c0.7-3.7-0.7-6.7-3.4-9.2
		c2.2-0.3,4.5-0.6,6.7-0.9c2.1,0.8,3,3.3,5.8,3.5C448.6,277.2,449.7,274.6,451.9,273.4"/>
	<path class="st12" d="M120.6,275.1c-0.7-0.3-1.5-0.5-2.2-0.8c-3-1.3-4.9-0.8-7.2,2c-1-3.5-1.9-6.9-2.9-10.4l4.9-1.7
		c1.7,0,3.4,0,5,0c0,1.2,0.6,1.7,1.8,1.7c2.2,0,4.4,0,6.6,0c-1.2,2.8-1.3,5.6,0,8.3C124.5,274.6,122.6,274.8,120.6,275.1"/>
	<path class="st11" d="M391.8,283.4c-3.8,0.9-7.6,1.4-11.6,0.9c-2.3-0.3-4.7-0.1-7-0.1l0.3-1.6c0-0.3,0-0.5,0.1-0.8
		c0.3-3.9,0.5-7.8,0.8-11.7l1.6-0.8c0.3,0.6,0.7,1.1,0.8,1.7c0.4,4.1,1.9,5.6,5.9,5.8c1.1,0,2.2,0,3.3,0c2,0.3,3.9,0.6,5.8,0.8
		C391.4,279.6,390.3,281.5,391.8,283.4"/>
	<path class="st13" d="M527.8,229.2c3.3,4.8,3.2,7.5-0.1,10.5c-3.7,3.4-8.5,2.3-10.4-2.4c-0.4-0.9-0.4-1.9-0.6-2.8
		c0.3-1.5,0.6-3,0.9-4.6c0.5-0.2,1.1-0.4,1.5-0.7C522,227.2,524.9,227.5,527.8,229.2"/>
	<path class="st11" d="M543.2,288.1c-2.7-2-6.2-1.9-9.5,0.4c-1.3-0.3-2.6-0.6-4-0.8c-1.9-0.3-2.4-1-1.3-2.3c1.9-2.1,1.9-4.4,1.9-6.9
		c1.9,0,3.8,0,5.7,0c1.2,0,1.8-0.5,1.8-1.7c0.9,0,1.7,0,2.5,0c0.2,0.5,0.3,1.3,0.6,1.3c2.1,0.2,4.3,1.4,6.4,0.4
		C546,281.7,544.6,284.9,543.2,288.1"/>
	<path class="st14" d="M350.1,369.4c-0.5-0.6-0.8-1.3-1.4-1.6c-3.4-1.9-4.8-5.4-3.4-8.7c1.1-2.7,4.9-4.5,8-3.8
		c3.2,0.7,5.4,3.6,5.2,7c-0.2,2.9-2.3,4.2-4.5,5.5c-0.8,0.5-1.5,1.1-2.2,1.6L350.1,369.4z"/>
	<path class="st14" d="M348.9,331.5c1.7,0.4,3.5,0.7,5.2,1.3c2.9,1.1,4.9,5.1,4.2,7.7c-0.9,3.3-4.4,5.2-8.2,4.7
		c-2.5-0.3-4.9-3.2-4.9-6.2c0-1.2,0-2.5,0-3.7c0.9-0.9,1.7-1.7,2.5-2.6C348.1,332.3,348.5,331.9,348.9,331.5L348.9,331.5z"/>
	<path class="st15" d="M257,217.3c5.4,1,6.9,2.6,7.2,7.8c-1.6,4.6-4.1,6.5-7.9,5.8c-2.9-0.5-5.1-2.9-5.4-5.9
		c-0.1-1.2-0.1-2.4-0.1-3.7C252.8,220,254.9,218.6,257,217.3"/>
	<path class="st14" d="M125.4,336.4c1.1-2.5,3.4-3.6,5.6-4.4c3.2-1.1,4.9,1.5,6.9,3.4c1.8,1.8,1.3,3.8,0.5,5.7
		c-1.3,3.5-4.2,4.8-7.9,4c-1.1-0.2-2.1-0.5-3.2-0.7C126.7,341.7,126.1,339,125.4,336.4"/>
	<path class="st14" d="M186.1,326.2c-0.3,0.6-0.7,1.2-1,1.8c-1.8,4.3-5.2,6-9.5,4.6c-0.3-0.1-0.5-0.2-0.7-0.4
		c-2-1.2-3.2-5.1-2.5-8.3c0.4-2,2.6-3.6,5.3-3.8c2.4-0.2,4.7-0.2,6.4,2c0.3,0.3,1,0.3,1.5,0.5C185.8,323.8,185.9,325,186.1,326.2"/>
	<path class="st14" d="M334.4,334.8c0-1.2-0.6-1.7-1.8-2.3c-2.6-1.1-4.6-4.8-4-7.1c0.7-2.8,2.4-4.8,5.5-5.6c3.5-0.9,7,1.1,7.7,4.7
		c0.2,1.1,0.1,2.2,0.2,3.3C339.4,330.2,336.9,332.5,334.4,334.8"/>
	<path class="st16" d="M527.2,356.1c-1.1,0-2.2,0-3.3,0c-2.9-0.1-6.3-1.9-6.7-4.1c-0.5-2.8-0.6-5.7,2.1-7.9c2.3-1.9,4.6-1.6,7-0.8
		c1.1,0.4,2.1,1.3,3.1,1.9C529.9,349.1,529.1,352.7,527.2,356.1"/>
	<path class="st17" d="M553,265.4c-0.1,0.5-0.3,0.9-0.4,1.4c-2.4,0-4.8,0-7.2,0c-3.7-4.3-6.4-4.5-11.7-0.8c-1.9,0-3.8,0-5.8,0
		c-1.2,0-1.8-0.5-1.8-1.7c2.3-1.3,3.8-3,3.4-5.9c6.1,0.3,12.2,0.6,18.3,0.9C549.6,261.3,551.3,263.3,553,265.4"/>
	<path class="st16" d="M318.9,345.5c-0.9-0.4-1.8-0.8-2.6-1.3c-2.4-1.6-3.7-5.1-2.7-7.6c0.9-2.5,4.8-5,7.1-4.7
		c3.6,0.5,5.7,2.6,6,6.1c0.1,0.8,0.1,1.6,0.1,2.5C324.2,342.1,321.5,343.8,318.9,345.5"/>
	<path class="st13" d="M366,228.3c1.9,0.2,3.8-0.2,5.3,1.6c1.6,1.9,2.8,3.9,2,6.3c-0.9,2.8-2.9,4.6-5.7,5.4
		c-1.8,0.5-5.6-1.6-6.6-3.4c-1.4-2.5-1.1-5.2,0.8-7.4c0.6,0.6,1.1,1.2,1.7,1.8c0.4-0.8,0.8-1.5,1.1-2.3c0.3-0.6,0.5-1.3,0.7-1.9
		C365.5,228.4,365.7,228.4,366,228.3"/>
	<path class="st16" d="M174.9,379.3c-0.6-2.5-2.9-4.3-2.6-7.2c0.4-3.8,2.2-6.1,6-6.7c2.5-0.4,5.5,1.7,6.6,4.6c0.4,1.3,0.6,2.7,0.9,4
		C182.2,375.7,178.5,377.5,174.9,379.3"/>
	<path class="st13" d="M241.7,228.3c3.8,0.3,6.4,2.6,6.6,5.8c0.3,3-2.8,6.9-5.9,7.5c-3.8,0.7-6.7-2-7.5-6.8
		C237.1,232.7,239.4,230.5,241.7,228.3"/>
	<path class="st17" d="M471.1,265.9c-1.9,0-3.8,0-5.7,0c-1.2,0-1.8-0.5-1.8-1.7c2-1.5,3.6-3.1,3.4-5.9c6.1,0,12.2,0,18.3,0
		c0.3,1.3,0.6,2.6,0.9,3.9c-1.4,1.2-2.8,2.3-4.2,3.5C478.2,262.3,475.7,262.4,471.1,265.9"/>
	<path class="st16" d="M175.7,296.8c1.3,0,2.7-0.2,4,0c1.9,0.3,4.1,0.6,4.3,3.3c-1.4,1-1.9,2.1-1.5,3.9c0.4,1.7,0.5,3.5,0.7,5.3
		c-1.2,0.3-2.4,0.7-3.6,0.8c-3,0.3-6.4-1.3-7-3.8c-0.6-2.6-1.2-5.5,1.5-7.6C174.8,298.2,175.2,297.5,175.7,296.8"/>
	<path class="st18" d="M404.4,162.3c0,1.4,0,2.8,0,4.2c-0.1,2.6-2.4,5.6-4.7,6c-3.3,0.6-5.7-0.6-7.4-3.1c-1.8-2.5-0.9-5-0.4-7.5
		C396.1,162,400.2,162.1,404.4,162.3"/>
	<path class="st18" d="M152.1,160.3c0.4,0.9,0.9,1.7,1.2,2.6c0.9,2.5,1.3,4.9-0.7,7.3c-2.1,2.5-4.7,2.8-7.4,2
		c-2.9-0.9-4.5-3-4.5-6.2c0-0.7,0-1.4,0-2.1C144.5,162.7,148.3,161.5,152.1,160.3"/>
	<path class="st19" d="M371.9,252.6c1.9,0,3.9,0,5.8,0c3.9,1.2,7.6,1.7,10.8-1.7c0.3,2.5,2.6,1.9,4.1,2.5c-0.3,1.9-0.6,3.9-0.9,5.8
		c-6.1,0-12.2,0-18.3,0C373,257,372.4,254.8,371.9,252.6"/>
	<path class="st8" d="M389.3,290.1c6.1,0,12.2,0,18.4,0c0,1.7,0,3.4,0,5c-1.5,0.9-3.9,0.1-4.4,2.7c-3-1.1-5.9-1.5-8.9-0.2
		c-0.8,0-1.7,0-2.5,0c-1.7,0-2.5-0.9-2.5-2.6C389.3,293.4,389.3,291.8,389.3,290.1"/>
	<path class="st10" d="M361,253.5c2.3-2.8,5.4-2.7,8.6-2.5c0.4,4.1,0.9,8.3,1.3,12.4c-3,1.2-6,1.1-9,0c-0.6-1.7-1.2-3.3-1.7-5
		C360.4,256.7,360.7,255.1,361,253.5"/>
	<path class="st16" d="M485.3,373.6c0-4.9,1-6.1,4.1-7.6c3.4-1.7,5.7,0.2,7.8,2c2,1.8,2,4.4,0.8,6.9c-0.4,0.7-0.7,1.5-1,2.3
		C492.6,377.5,488.8,376.1,485.3,373.6"/>
	<path class="st15" d="M344.3,225c0.4-3.7,2.4-6.3,5.9-7.6c2.8,3,5.7,6,8.5,9c-0.8,0.7-1.7,1.3-2.5,2.1c-4,3.8-9.2,2.7-11.3-2.4
		C344.7,225.8,344.5,225.4,344.3,225"/>
	<path class="st20" d="M561.3,187.3c-0.3,1.7-0.3,3.7-1,5.2c-1.5,3.2-5,4.2-8.1,2.6c-3.7-1.9-5.3-5.2-4-8.4c0.5-1.1,1.3-2.1,2-3.1
		C554,184.8,557.6,186,561.3,187.3"/>
	<path class="st16" d="M394.3,297.6c3-1.3,6-0.9,8.9,0.2c-1,4.1-2.1,8.2-3.1,12.3c-3,0.4-5.6-0.3-7.5-2.9c-2-2.7-2.2-4.6-0.1-7.4
		C393.1,299.1,393.7,298.4,394.3,297.6"/>
	<path class="st10" d="M537.9,276.8c0,1.2-0.6,1.7-1.8,1.7c-1.9,0-3.8,0-5.7,0c-0.4-0.5-0.8-1.1-1.2-1.6c-1.9-2.5-4.6-3-7.4-2.6
		c-2.8,0.4-4.4,2.1-4.7,4.9c-1.8,0-3.6-0.2-5.3,0.1c-2.1,0.3-3.6-0.5-5-1.9c-0.1-0.3,0-0.5,0.2-0.7c4,0.5,6.5-1.2,7.7-5
		c3,0.3,6,0.7,8.9,0.7c3.1,0,6.2-0.5,9.4-0.7C533.7,274.2,535.4,275.9,537.9,276.8"/>
	<path class="st21" d="M341.8,211.6c-0.3,4.9-3.3,7.3-7.8,6.8c-4.5-0.6-6.9-6.4-4.7-9.4c0.6-0.8,1.1-1.6,1.6-2.4
		C334.6,208.3,338.2,210,341.8,211.6"/>
	<path class="st16" d="M298.4,354.5c-0.1-0.8-0.2-1.6-0.4-2.4c-1.2-4.4,0.8-8.7,4.2-9.3c4.5-0.8,8,1.9,8.7,6.8
		C306.8,351.2,302.6,352.8,298.4,354.5"/>
	<path class="st16" d="M234.1,348.6c0.8-1.2,1.5-2.5,2.4-3.6c2.4-2.7,6-3.1,8.9-1.3c2.7,1.7,3.5,5,2.1,8.3c-0.4,0.9-0.6,1.8-0.9,2.7
		C242,353.4,237.8,351.5,234.1,348.6"/>
	<path class="st17" d="M373.5,259.2c6.1,0,12.2,0,18.3,0c-0.5,2.4,1.8,3.3,2.6,5c-1.7,0.6-3.4,1.2-5.1,1.8c-0.7-0.3-1.5-0.6-2.1-1
		c-5.1-3.2-9.3-1.6-11.2,4.3l-1.6,0.8C374.1,266.5,373.8,262.9,373.5,259.2"/>
	<path class="st18" d="M201.5,152.6c0.4,3.4-0.3,6.3-3.1,8.4c-3.7,2.8-9.5,0.5-10.1-4.1c-0.2-1.2,0-2.5,0-3.7
		C192.7,153,197.1,152.8,201.5,152.6"/>
	<path class="st21" d="M107.3,225.9c-1,3.6-3.6,4.9-7,5.1c-0.5-1.8-1-3.6-1.5-5.5c-0.8-3-0.7-3-4-2.3c0-4.4,3.5-5.9,6.4-5.7
		c3.6,0.3,6.1,2.9,6.1,6.7C107.3,224.8,107.3,225.3,107.3,225.9"/>
	<path class="st16" d="M219.5,335.3c0.8-0.5,1.6-1,2.3-1.6c3.3-2.6,6.3-2.6,9.1,0.4c2.9,3,2.7,6,0.5,9.2c-0.6,0.8-1.1,1.5-1.7,2.3
		C225.7,342.9,222.3,339.4,219.5,335.3"/>
	<path class="st17" d="M214.7,264.2c0.9-1.9,1.8-3.9,2.7-5.8c5.8,0.3,11.6,0.5,17.4,0.8c0.9,1.7,1.7,3.3,2.6,5
		c-1.9,0.4-4.2-0.9-5.9,0.9c-3.2-1.9-6.5-2.4-10-0.9C219.4,264.3,217,264.2,214.7,264.2"/>
	<path class="st16" d="M207,296.8c3.1-0.2,6.1-0.1,8.7,1.7c0.3,1.5,0.7,2.9,0.8,4.4c0.2,4.9-2.1,7.3-7,7.3c-0.4,0-0.8,0-1.2,0
		C207.9,305.7,207.5,301.3,207,296.8"/>
	<path class="st20" d="M89.8,184.2c0.3,0.6,0.7,1.2,0.9,1.8c1.9,4.3,0.4,7.7-4.3,9.4c-3.4,1.3-7-0.8-8.3-4.7
		c-0.2-0.5-0.1-1.1-0.1-1.6C82,187.4,85.9,185.8,89.8,184.2"/>
	<path class="st14" d="M377.7,366.8c-0.3-0.8-0.5-1.5-0.9-2.3c-1.4-3.2-1-5.5,1.2-7.5c2.1-2,5.8-2.4,8.4-0.9c0.6,0.3,1.2,0.7,1.8,1
		c-0.6,2.4-1.2,4.8-1.7,7.2c-0.3,1.2-0.9,1.9-2.3,1.9C382,366.3,379.9,366.6,377.7,366.8"/>
	<path class="st18" d="M436,164.3c0,0.6,0,1.1,0,1.7c-0.2,2.9-2.2,5.9-4.3,6.5c-2.8,0.8-7.1-0.5-8.3-3.2c-0.8-1.9-0.5-4.3-0.7-6.4
		C427.2,163.3,431.6,163.8,436,164.3"/>
	<path class="st11" d="M506.6,277.5c1.4,1.3,2.9,2.1,5,1.9c1.7-0.2,3.5-0.1,5.3-0.1c-0.3,3.2,0.2,6,3.4,7.6c0.2,0.1,0.5,0.7,0.4,0.9
		c-0.1,0.3-0.6,0.6-0.9,0.6c-2.1,0.1-4.1,0-6.2,0.1c-2.8-2.6-6-3-9.5-1.8C505,283.6,505.8,280.5,506.6,277.5"/>
	<path class="st21" d="M522.7,205c1.7,0,3.4,0.1,5.1,0.1c0.3,0.9,0.3,2,0.8,2.7c2.1,2.4,2,5.1,0.7,7.6c-1.4,2.6-3.9,3.2-6.7,3
		c-0.8,0-1.6-0.1-2.5-0.1C521,213.8,521.8,209.4,522.7,205"/>
	<path class="st21" d="M278.3,207.4c1.3,3.1,1.9,6.1-0.7,8.8c-3.7,3.9-9.1,2.7-11.1-2.4c-0.2-0.5-0.5-1-0.7-1.5
		C269.9,210.7,274.1,209.1,278.3,207.4"/>
	<path class="st10" d="M553,265.4c-1.7-2.1-3.4-4.1-5.2-6.1c0.3-1.9,0.6-3.9,0.9-5.8c3-2.8,6.4-3.2,10.1-1.6
		C556.9,256.4,555,260.9,553,265.4"/>
	<path class="st18" d="M248.1,168.3c-1.1,2-2.6,3.7-4.9,4.1c-2.7,0.5-5.1,0.1-7-2.3c-1.8-2.2-1.4-4.4-0.8-6.6
		c0.2-0.9,0.8-1.7,1.3-2.6C240.5,163.3,244.3,165.8,248.1,168.3"/>
	<path class="st8" d="M370,274.3c-1.1,4.5-2.1,8.9-3.2,13.4c-2-1.1-4-2.2-5.9-3.4c-0.3-2.2-0.6-4.5-0.8-6.7
		C362.7,274.4,366.2,273.8,370,274.3"/>
	<path class="st10" d="M204.1,253.5c4.8-3.5,6.7-3.6,10.4-0.5c-2.3,4-4.6,8.1-6.9,12.2c-0.3,0-0.6,0-1,0c-0.4-0.8-0.8-1.6-1.2-2.4
		c-0.7-1.4-1.4-2.8-2.1-4.2C203.5,256.8,203.8,255.1,204.1,253.5"/>
	<path class="st19" d="M234.9,259.2c-5.8-0.3-11.6-0.5-17.4-0.8c1.3-2.3,2.7-4.6,4-6.9c3.3,3.3,6.7,2,10.1,0.2
		c1.4,0.3,2.8,0.6,4.3,0.9C235.5,254.8,235.2,257,234.9,259.2"/>
	<path class="st5" d="M407.7,295.2c0-1.7,0-3.3,0-5c1-1.1,1.9-2.5,3.2-3.2c4.5-2.4,9.3,0.5,10.2,5.8
		C416.6,293.5,412.2,294.3,407.7,295.2"/>
	<path class="st13" d="M231.6,251.7c-3.4,1.8-6.8,3.1-10.1-0.2c2.8-3.8,5.6-7.6,8.4-11.3c0.3,0.6,0.4,1.4,0.8,1.8
		C234.1,245,233.1,248.3,231.6,251.7"/>
	<path class="st12" d="M361.8,263.4c3,1.1,6,1.2,9,0c-0.2,2.5-0.3,5-0.4,7.5c-1.5,0-3.2,0.4-4.4-0.2c-2.6-1.2-5-0.5-7.5,0.2
		c0.1-1.7,0-3.3-1.5-4.5c-0.6-0.5-0.7-1.4-1.1-2.1C357.9,264,359.9,263.7,361.8,263.4"/>
	<path class="st9" d="M360.9,284.3c2,1.1,3.9,2.2,5.9,3.4c-1,2.8-2,5.6-3.1,8.4c-1.2,0-2.5,0.1-3.7-0.2c-0.6-0.1-1.5-1-1.5-1.4
		c0.4-3.3-1.7-5.4-3.4-7.7c0.6-0.6,1-1.4,1.7-1.6C358.1,284.7,359.6,284.6,360.9,284.3"/>
	<path class="st16" d="M474.3,355.2c0.7,0,1.4,0.1,2.1,0c4-0.6,6,1.4,7.1,5.8c0.7,2.7-1.5,5.5-5.2,6.9
		C475.2,364.2,474.2,359.9,474.3,355.2"/>
	<path class="st16" d="M129.9,355.2c2,0.3,4.4-0.1,6,0.9c4.3,2.5,4.3,7.8,0.7,10.3c-1.2,0.9-2.2,2-3.3,3
		C132.2,364.7,131,359.9,129.9,355.2"/>
	<path class="st5" d="M192.4,286c3-0.8,5.4,1.2,8.1,1.7c0.2,1.5-0.3,2.7-1.6,3.5c-3.2,1.9-6.3,3.9-9.5,5.9c-1.7-2.6-1.7-5.7,0-7.7
		C190.4,288.2,191.4,287.1,192.4,286"/>
	<path class="st18" d="M471.1,182.5c-1.5-2.7-0.9-5.4,0-8.1c3.9,2.4,7.8,4.8,11.7,7.2C479.2,186,476.4,186.2,471.1,182.5"/>
	<path class="st16" d="M347.6,321.8c-0.1-0.2-0.2-0.5-0.4-0.7c-2.9-3.3-3.3-5.8-1.6-8.4c2.1-3.3,4.6-4,9-2.7
		c0.5,0.2,1.1,0.2,1.6,0.3C353.4,314.1,350.5,317.9,347.6,321.8"/>
	<path class="st21" d="M568.1,230.1c-0.9-0.5-1.8-0.9-2.6-1.5c-0.7-0.6-1.2-1.3-1.8-2c0-1-0.2-2,0-2.9c1.2-3.6,2.2-6.7,7.7-6.3
		c0.8,0.1,1.6,0.1,2.5,0.1C572,221.8,570.1,226,568.1,230.1"/>
	<path class="st16" d="M156.7,388.2c-0.5-3.6,0-6.8,3.2-9.1c3.5-2.5,7.3-1.4,9.2,2.8C164.9,384,160.8,386.1,156.7,388.2"/>
	<path class="st18" d="M250.9,181.6c0.1-3-0.9-6.4,2.6-8.4c3.4,3.1,6.2,6.7,8.1,10.9C257.4,186.1,253.9,184.7,250.9,181.6"/>
	<path class="st11" d="M471.1,265.9c4.6-3.6,7.1-3.6,10.8-0.1c-3.9,2.7-7.8,5.5-11.6,8.2C470.6,271.3,470.8,268.6,471.1,265.9"/>
	<path class="st16" d="M370,296.7c0.6,1,1.1,2.3,2,3.1c2,1.9,1.9,4.1,1,6.4c-1,2.5-2.9,3.9-5.6,4c-1.1,0.1-2.2,0-3.3-0.1
		C366,305.6,368,301.1,370,296.7"/>
	<path class="st9" d="M514.5,271.8c-1.2,3.8-3.7,5.5-7.6,5c1.1-4.5,2.1-9,3.2-13.5c1.2,0.9,2.4,1.7,3.6,2.6
		C514,267.9,514.2,269.8,514.5,271.8"/>
	<path class="st10" d="M358.5,270.9c2.5-0.7,4.9-1.3,7.5-0.2c1.3,0.6,3,0.2,4.4,0.2c-0.1,1.1-0.2,2.2-0.3,3.4
		c-3.8-0.5-7.3,0.1-9.9,3.3c-1.9-0.3-4.1,0.8-5.8-0.8C355.9,274.9,358.1,273.6,358.5,270.9"/>
	<path class="st12" d="M486.1,262.3c-0.3-1.3-0.6-2.6-0.9-3.9c0.6-1.9,1.1-3.9,1.7-5.8c2.8-1.9,5.8-2.3,8.9-0.8
		C492.6,255.3,489.4,258.8,486.1,262.3"/>
	<path class="st20" d="M495.9,194.9c-2.2,0.2-4.2,1.5-6.7,0.1c-3.3-2-4.6-4.2-3.7-8c0.2-0.9,0.4-1.8,0.6-2.7
		C490.1,187.2,493.3,190.8,495.9,194.9"/>
	<path class="st18" d="M232.6,159c-1,0.8-1.8,1.7-2.9,2.3c-4.9,2.9-9.8-0.3-10.6-6.5C223.9,155.2,228.4,156.8,232.6,159"/>
	<path class="st16" d="M499.5,324.5c-0.5,1.7-0.7,3.5-1.5,5c-1.7,2.9-4.9,3.9-8.6,3.1c-1.1-0.2-2.1-0.5-3.2-0.7
		C489.8,328,494.3,325.5,499.5,324.5"/>
	<path class="st18" d="M350.9,171.7c4.6,0.1,6.2,1.3,7.3,5.1c0.8,2.8-0.4,5.2-3.7,7.4C353.2,180,352,175.8,350.9,171.7"/>
	<path class="st8" d="M454.8,282.1c-1.9-2-0.3-3.8,0.4-5.6c0.3-0.8,1.1-1.5,1.7-2.2c2.1,0,4.1-1.3,6.3-0.1c1.2,0.7,2,1.3,2.1,2.7
		C461.8,278.6,458.3,280.3,454.8,282.1"/>
	<path class="st18" d="M107.2,177c0,1,0.1,2,0.1,3c-2.6,6-8.3,6.9-11.9,2C99.3,180.3,103.3,178.7,107.2,177"/>
	<path class="st18" d="M545.7,182.3c-0.7,0.5-1.3,0.9-2,1.4c-2.3,1.6-4.8,1.9-7.3,0.6c-2.6-1.4-3.8-3.4-3.4-6.4
		C537.2,179.3,541.5,180.8,545.7,182.3"/>
	<path class="st22" d="M343.4,145.9c10.3,0.1,20.6,0.2,30.9,0.3c-0.6,0.4-1.2,1.2-1.7,1.2c-9.1,0.1-18.2,0-27.2,0.1
		C344.2,147.4,343.5,147.2,343.4,145.9"/>
	<path class="st17" d="M513.7,265.9c-1.2-0.9-2.4-1.7-3.6-2.6c0.4-1.6,0.8-3.3,1.2-4.9c1.9,0,3.8,0,5.7,0c-0.2,2.7,1.5,4.4,3.4,5.9
		C518.1,264.8,515.9,265.4,513.7,265.9"/>
	<path class="st18" d="M169.9,155.8c-0.3,3.8-1.3,5.2-5,6.2c-3,0.9-4.5,0.1-6.9-3.4C162,157.7,165.9,156.8,169.9,155.8"/>
	<path class="st16" d="M116,296.9c1.3,0.2,2.5,0.5,3.8,0.7c2,2.1,3.2,4.5,2.4,7.4c-0.5,1.7-1.8,3.3-2.7,4.9
		C118.4,305.5,117.2,301.2,116,296.9"/>
	<path class="st21" d="M369.8,205.7c3.3,1.5,4.2,4.4,3.5,7.5c-0.7,3-2.7,5-6.2,5C368,214.1,368.9,209.9,369.8,205.7"/>
	<path class="st16" d="M139.1,393.6c0.7-0.4,1.6-0.5,2.1-1.1c3.5-4.3,5-4.8,10.1-3.2c0.5,0.2,1.1,0.2,1.6,0.3
		c-3.9,2.1-7.8,4.4-11.8,6.3C138.9,397,139.3,394.8,139.1,393.6"/>
	<path class="st16" d="M394.6,332c-2.9-1.3-3.7-3.8-3.2-6.6c0.6-3.4,2.7-5.1,6.2-5.2C396.6,324.1,395.6,328,394.6,332"/>
	<path class="st21" d="M505.4,230.1c-2.4,0.1-2.8-2.2-4.2-3.4c0.3-1.9,0.2-3.9,0.9-5.6c0.5-1.2,2.1-1.9,3.1-2.8
		C506.3,222.3,506.5,226.2,505.4,230.1"/>
	<path class="st19" d="M517,258.4c-1.9,0-3.8,0-5.7,0c1-4.5,2.1-8.9,3.1-13.4c1.6,1.3,1,2.8,0.4,4.4c-1,2.8-1,2.7,1.8,3.2
		c0.5,0.1,0.9,0.5,1.3,0.8C517.6,255.1,517.3,256.7,517,258.4"/>
	<path class="st22" d="M361,161.5c-2.5-0.2-5-0.4-7.6-0.7c0.7-0.3,1.4-0.9,2.1-0.9c9.4,0,18.8,0,28.3,0.4c-0.9,0.3-1.8,0.6-2.7,0.9
		c-2.8,0.1-5.7,0.3-8.5,0.4C368.7,161.6,364.9,161.6,361,161.5"/>
	<path class="st18" d="M527,183.3c2.8,1.5,3.7,4.2,3,6.9c-0.6,2.4-2.1,4.8-5.4,4.8C525.5,191.1,526.3,187.2,527,183.3"/>
	<path class="st12" d="M214.7,264.2c2.3,0,4.6,0.1,6.9,0.1c-0.6,1.9-1.2,3.9-1.8,5.8c-2.5,0-5,0-7.5,0
		C213.2,268.1,213.9,266.2,214.7,264.2"/>
	<path class="st16" d="M482.8,335.2c1.5,3.5,1.1,6.7-2.1,9c-1.3,0.9-3.2,1.2-4.8,1.7C477.1,341.7,479.6,338.2,482.8,335.2"/>
	<path class="st16" d="M193.1,367.7c-3.7-0.7-4.9-2.1-4.9-5.6c0-2.6,0.9-4.7,3-6.2C191.9,359.8,192.5,363.8,193.1,367.7"/>
	<path class="st8" d="M372,289.3c1.6,0,3.2,0,4.8,0c-0.3,1.6-0.8,3.2-0.8,4.8c0,2.2-0.7,3-2.8,2.8c-1.1-0.1-2.2-0.1-3.3-0.2
		C370.6,294.2,371.3,291.7,372,289.3"/>
	<path class="st18" d="M325.2,204.9c-1,3.7-4.1,2.6-6.5,2.6c-2.6,0-4.2-1.8-4.5-4.5C317.9,203.6,321.5,204.3,325.2,204.9"/>
	<path class="st21" d="M206.6,265.1c0.3,0,0.6,0,1,0c-1,2.5-2,5-3.1,7.5c-1,0.3-2,0.5-2.9,0.8c-0.3-2.5-0.5-5-0.8-7.5
		c0.6-0.3,1.4-0.9,1.6-0.7C203.9,266.3,205.2,265.1,206.6,265.1"/>
	<path class="st12" d="M545.4,266.7c2.4,0,4.8,0,7.2,0l-3.8,8.4c-0.9-0.9-1.7-1.7-2.6-2.6C545.9,270.7,545.7,268.7,545.4,266.7"/>
	<path class="st21" d="M102.6,240.9c4,1.6,4.7,2.4,4.7,6.4c0,0.9,0,1.9,0,2.8c-0.7,0.6-1.4,1.2-2.1,1.9
		C104.3,248.2,103.4,244.6,102.6,240.9"/>
	<path class="st18" d="M295,203.5c-2.2,4.9-6.5,5.8-10.9,2.2C287.7,204.9,291.4,204.2,295,203.5"/>
	<path class="st16" d="M211,320.2c3.6,0.3,5.3,1.8,5.6,5.1c0.1,1.9,0,3.9,0,5.8C214.7,327.4,212.9,323.8,211,320.2"/>
	<path class="st16" d="M524.7,332.6c-1.1,0-2.3,0.3-3.2,0c-2.2-0.7-4.4-1.5-4.5-4.5c0-0.9-0.5-1.8-0.8-2.7
		C519.9,326.8,522.6,329.3,524.7,332.6"/>
	<path class="st10" d="M546.2,272.6c0.9,0.9,1.7,1.7,2.6,2.6c-0.5,1.1-0.9,2.2-1.4,3.3c-2.2,1-4.3-0.2-6.5-0.4
		c-0.2,0-0.4-0.9-0.6-1.3C543.3,276.7,544.6,274.5,546.2,272.6"/>
	<path class="st17" d="M113.1,264.3l-4.9,1.7c-0.6-2.8-1.1-5.6-1.7-8.3c0.8,0,1.6,0,2.4,0C110.2,259.9,110.3,262.9,113.1,264.3"/>
	<path class="st19" d="M109,257.6c-0.8,0-1.6,0-2.4,0c-0.5-1.9-1-3.8-1.5-5.7c0.7-0.6,1.4-1.2,2.1-1.9c1.1,0.9,2.3,1.8,3.4,2.7
		C110.1,254.3,109.6,256,109,257.6"/>
	<path class="st18" d="M464.5,171.6c-5.1,2-7.8,1.1-10-3.4C457.8,169.3,461.1,170.4,464.5,171.6"/>
	<path class="st7" d="M366,228.3c-0.2,0.1-0.5,0.1-0.7,0.1c0.2-0.7,0.4-1.4,0.6-2.1C365.9,226.9,365.9,227.6,366,228.3"/>
	<path class="st5" d="M348.9,331.5c-0.4,0.4-0.8,0.8-1.3,1.2C348.1,332.3,348.5,331.9,348.9,331.5"/>
	<path class="st9" d="M448.7,284.5c0.1-0.2,0.2-0.5,0.2-0.7c0.2,0.2,0.3,0.4,0.5,0.6l-0.3,0.2L448.7,284.5z"/>
	<path class="st9" d="M373.6,281.8c0,0.3,0,0.5-0.1,0.8C373.5,282.3,373.6,282.1,373.6,281.8"/>
	<path class="st22" d="M204.9,137.4c0.3,0,0.6,0,0.8,0C205.5,137.4,205.2,137.4,204.9,137.4"/>
	<path class="st22" d="M189.9,137.5c0.3,0,0.6,0,0.8,0C190.5,137.4,190.2,137.4,189.9,137.5"/>
	<path class="st23" d="M407.7,408.1c6.5,0.2,11,3.8,14,9c6.3,10.7,6.3,21.7,0,32.3c-3,5.2-7.5,8.8-14,8.9c-0.8-2.5-2.9-1.2-4.2-1.2
		c-55-0.1-110.1-0.1-165.1-0.1c-1.1,0-2.2-0.1-3.3,0.1c-0.3,0.1-0.6,0.8-0.9,1.2c-4.9,0.3-8.9-1.9-12.1-5.4
		c-6.8-7.4-8.4-16.3-6.8-25.9c0.9-5.6,3.4-10.6,7.6-14.5c2.9-2.7,6.3-4.5,10.4-4.5c0.7,2.6,2.8,1.3,4.2,1.3
		c55.3,0.1,110.7,0.1,166,0.1c1,0,2,0.1,2.9-0.1C406.9,409.3,407.3,408.5,407.7,408.1 M324.4,439.9c-0.7-1.1-1-1.5-1.3-1.9
		c-3.8-6.6-7.6-13.2-11.3-19.9c-1.2-2.2-2.6-3.5-5.2-3.1c-0.7,0.1-1.4,0-2.1,0c-2.9,0.1-3,0.1-3,3c0,9.2,0,18.3,0,27.5
		c0,1.5,0.1,3,0,4.6c-0.1,1.7,0.7,2.2,2.2,2.1c0.6,0,1.1,0,1.7,0c3.7,0,3.7,0,3.7-3.5c0-1.9,0-3.9,0-5.8v-14.7
		c1.1,0.5,1.5,1.2,1.9,1.8c3.6,6.2,7.3,12.4,10.7,18.8c1.4,2.7,3.2,3.9,6.2,3.4c0.4-0.1,0.8-0.1,1.2,0c2.1,0.3,2.6-0.7,2.5-2.6
		c-0.1-4.9,0-9.7,0-14.6c0-5.8,0-11.7,0-17.5c0-0.8-0.2-2.3-0.4-2.3c-2.1-0.2-4.2-0.2-6.2,0.1c-0.4,0-0.6,1.9-0.6,2.9
		C324.4,425.2,324.4,432.1,324.4,439.9 M254.9,441.1c-0.2,0-0.4,0-0.6,0c-2-7-4-14-6-21c-1.5-5.2-1.5-5.2-7-5c-3,0.1-3.1,0.1-2.1,3
		c3.5,10.4,7,20.7,10.6,31.1c1.1,3.1,1.1,3.1,4.7,3.1c3.4,0,3.6,0.7,4.9-3c3.3-9.7,6.6-19.4,9.9-29.1c1.8-5.2,1.8-5.1-3.6-5.2
		c-2.4,0-3.4,0.7-4,3c-1.5,5.9-3.3,11.8-5,17.6C256.1,437.5,255.5,439.3,254.9,441.1 M344.2,415c-1.2,0-1.7,0-2.3,0
		c-3.1,0.1-3.2,0.1-1.6,3c2.5,4.6,4.8,9.4,7.7,13.8c3.1,4.8,4.1,9.7,3.8,15.3c-0.3,5.4-0.1,5.4,5.3,5.1c0.1,0,0.3,0,0.4,0
		c1.4,0.1,2-0.5,2-1.9c-0.1-2.6,0.1-5.3,0-7.9c-0.1-2.7,0.6-5.1,1.9-7.5c2.7-4.7,5.2-9.5,7.7-14.3c3.1-5.8,3.1-5.7-3.5-5.6
		c-2.1,0-3.3,0.6-4.1,2.6c-1.5,3.7-3.3,7.3-4.9,11c-0.6,1.3-1.2,1.5-1.9,0.1c-1.5-3.1-3.2-6.2-4.5-9.4
		C349.1,416,347.4,413.9,344.2,415 M377,433.6c0,5.4,0,10.8,0,16.2c0,1.8,0.6,2.5,2.4,2.4c3-0.1,6.1,0,9.2,0c4.2,0,8.3,0,12.5,0
		c1.7,0,2.7-0.4,2.5-2.3c0-0.3,0-0.6,0-0.8c0.1-3.9,0.1-3.9-3.7-4c-3.9,0-7.8,0-11.7,0c-2.9,0-3-0.1-3-3c0-7.5,0-15,0-22.5
		c0-5,0-5-5-4.9c-3.1,0.1-3.1,0.1-3.1,3.4C377,423.3,377,428.5,377,433.6 M280.7,433.3c0,5.5,0,11.1,0,16.7c0,1.5,0.4,2.4,2.1,2.3
		c0.6,0,1.1,0,1.7,0c4.5,0,4.1,0.4,4.1-3.9c0-9.4,0-18.9,0-28.3c0-5.5,1.1-4.9-5.2-5c-2.3-0.1-2.8,0.9-2.7,2.9
		C280.8,423,280.7,428.2,280.7,433.3"/>
	<path class="st24" d="M407.7,408.1c-0.4,0.4-0.8,1.2-1.3,1.3c-0.9,0.2-1.9,0.1-2.9,0.1c-55.3,0-110.7,0-166-0.1
		c-1.4,0-3.5,1.3-4.2-1.3c1.2-0.1,2.5-0.2,3.7-0.2c55.6,0,111.2,0,166.9,0C405.2,407.9,406.4,408,407.7,408.1"/>
	<path class="st24" d="M234.2,458.3c0.3-0.4,0.5-1.1,0.9-1.2c1.1-0.2,2.2-0.1,3.3-0.1c55,0,110,0,165.1,0.1c1.4,0,3.4-1.3,4.2,1.2
		c-1.2,0.1-2.5,0.2-3.7,0.2c-55.3,0-110.7,0-166,0C236.7,458.5,235.4,458.4,234.2,458.3"/>
	<path class="st8" d="M323.4,287.6l5.5-10.9c0.4-0.1,0.9-0.1,1.1-0.4c3.7-3.4,6.6-3.5,10.9-0.3c0.3,1.6,0.7,3.2,0.8,4.8
		c0.1,1.7-0.8,4,0,4.9c1,1,3.3,0.8,5,1.2c0.3,0,0.5,0,0.8,0c-1.8,2.6-4.3,4.9-2.7,8.6c0.1,0.3-0.8,1.4-1.4,1.6
		c-1.4,0.4-2.9,0.4-4.3,0.6c-2.5,0.1-5-2-7.5,0c-3.6-0.5-5.8-1.8-5.2-6.2C326.7,290.3,324.5,288.9,323.4,287.6"/>
	<path class="st9" d="M263.2,265.9c-2.5,6.4-3,13.2-3.4,20.1c-0.7,0.3-1.5,0.9-2.2,0.8c-2.8-0.5-4.9,0.8-6.8,2.6
		c-6.1,0-12.2,0-18.4,0c-5.6-4.4-6.9-4.4-12.5,0c-2.5,0-5,0-7.5,0c-0.5,0-1-0.6-1.5-0.9c0.3-0.4,0.6-1.2,1-1.2
		c2.4-0.2,3.3-2.2,4.6-3.7c6.1,1.3,12.2,1.3,18.4,0c1.8,2.8,4.4,4.8,7.8,3.9c3.3-0.9,5.6-3.4,5.6-7.3c2.8,0.3,5.7,0.5,8.5,0.8
		c1.1,0.1,2.3,0.2,2.3-1.5c0-1.2,0.3-2.6-1.6-2.6c-3.5,0-5.5-2-6.7-5c-0.4-2.9,0.7-5.3,2.5-7.5C257,262.6,260.4,263,263.2,265.9"/>
	<path class="st11" d="M347.6,286.8c-0.3,0-0.6,0-0.8,0c-1.7-0.3-4-0.1-5-1.2c-0.8-0.9,0-3.2-0.1-4.9c-0.1-1.6-0.5-3.2-0.8-4.8
		c1-0.3,2-0.5,2.9-0.9c0.6-0.3,0.9-1,1.3-1.6c2.6,2.4,5.5,4,9.2,3.3c1.7,1.7,3.9,0.5,5.8,0.8c0.3,2.2,0.6,4.5,0.8,6.7
		c-1.4,0.3-2.8,0.4-4.1,0.9c-0.7,0.2-1.1,1.1-1.7,1.6C352.6,285.8,350.1,285.8,347.6,286.8"/>
	<path class="st8" d="M232.5,289.3c6.1,0,12.2,0,18.4,0c0,1.1,0,2.2,0,3.3c-0.1,5.8,0.6,4.9-5,5.1c-2.8-0.5-5.6-1.5-8.3,0
		c-5.7-0.1-4.9,0.7-5-5.1C232.5,291.5,232.5,290.4,232.5,289.3"/>
	<path class="st14" d="M287.6,307.9c0.8,0,1.6,0,2.5,0c1.3,1.3,2.6,2.7,3.9,4c2.5,2.7,2.5,5.1,0.1,8c-2.6,3.2-4.8,3.6-8.3,1.8
		c-3.1-1.6-4.5-4.9-3.2-7.8c0.8-1.6,2.3-2.9,3.4-4.3C286.5,309.1,287,308.5,287.6,307.9"/>
	<path class="st14" d="M279.2,349.2c0,4-2.6,6.7-6.5,6.8c-3.8,0.1-7-2.7-6.8-6.2c0.2-5.4,3.3-7.4,7.1-7.2
		C276.6,342.8,279.2,345.3,279.2,349.2"/>
	<path class="st14" d="M288.8,345.2c-5.2,0.1-6.8-3.2-7-6.4c-0.2-3.4,3.6-6.9,7-6.9c3.3,0,7.2,3.5,7,6.9
		C295.6,342,294,345.3,288.8,345.2"/>
	<path class="st14" d="M219.9,315.9c0-4.7,2.1-6.6,6.9-6.6c3.4,0,6.4,3.2,6.4,6.7c0,2.5-3.7,7-7.7,6.7
		C222.4,322.4,219.9,319.7,219.9,315.9"/>
	<path class="st14" d="M326.8,316.1c0,3.8-3.1,6.7-6.9,6.6c-3.7-0.1-6.5-3.2-6.5-7.1c0-3.7,3.1-6.3,7.2-6.2
		C324.1,309.4,326.8,312.3,326.8,316.1"/>
	<path class="st14" d="M264.2,315.4c-0.1,4.3-2.6,6.9-6.3,7.2c-3.8,0.3-6.9-2.9-7-6.9c-0.1-3.4,2.7-6.3,6.1-6.4
		C261,309.2,264.1,311.8,264.2,315.4"/>
	<path class="st14" d="M279.2,326.5c0,4-2.6,6.7-6.5,6.9c-3.2,0.1-6.9-3.7-6.8-7.1c0.1-3.5,3-6.1,6.8-6.1
		C277.5,320.2,279.2,321.9,279.2,326.5"/>
	<path class="st14" d="M304.3,332.7c-4.7,0.5-7-2.8-6.8-6.2c0.2-4,2.6-7,6-7c3.9,0.1,7.3,3.4,7.4,6.9
		C310.9,329.9,308,332.7,304.3,332.7"/>
	<path class="st14" d="M257.2,345.2c-3.6,0-6.3-2.8-6.4-6.6c0-2.8,3.5-6.7,6.2-6.7c4.4-0.1,7.3,2.8,7.2,7.2
		C264.1,342.6,261.1,345.2,257.2,345.2"/>
	<path class="st14" d="M241.5,332.7c-4.8,0-6.6-1.7-6.6-6.3c0-3.7,2.6-6.7,5.8-6.9c3.3-0.1,7.8,3.9,7.4,7
		C247.8,330.3,245.3,333.6,241.5,332.7"/>
	<path class="st14" d="M237.5,297.6c2.8-1.5,5.5-0.5,8.3,0c0.4,0.8,0.8,1.7,1.2,2.5c1.7,2.8,1.2,6.6-1.1,8.6
		c-2.1,1.8-6.1,1.9-8.5,0.1c-3-2.3-3.4-6.9-0.9-9.8C236.9,298.6,237.2,298.1,237.5,297.6"/>
	<path class="st14" d="M331.8,297.6c2.5-1.9,5,0.1,7.5,0c1.4,1.8,2.9,3.5,2.6,6.2c-0.4,2.8-1.8,5.1-4.6,6.1
		c-2.8,0.9-5.6-0.2-7.7-3.3c-1.6-2.4-1.5-4.2,0.4-6.8C330.5,299.1,331.2,298.4,331.8,297.6"/>
	<path class="st16" d="M266.7,299.3c3.4,3.2,7.3,5.7,11.7,7.5c-0.9,2.1-2.7,3.1-4.8,3.4c-5.1,0.6-8-2.9-7.7-8.1
		C266,301.1,266.4,300.2,266.7,299.3"/>
	<path class="st16" d="M297.5,306.6c4.5-2.1,8.9-4.3,13.4-6.4c-0.1,1.6-0.1,3.3-0.4,4.9c-0.8,4.7-6.7,6.4-9.9,4.1
		C299.5,308.4,298.5,307.4,297.5,306.6"/>
	<path class="st8" d="M159,286.8c-0.8,2.8-3.3,5-2.7,8.3c0.1,0.4-1.2,1.2-2,1.6c-0.9,0.5-1.9,0.6-2.9,0.9c-2.8-1.5-5.6-0.5-8.3,0
		c-0.4-0.3-0.8-0.9-1.2-1c-2.5-0.5-3.3-2-3-4.4c0.4-2.7-2.6-3.4-3.3-5.5c1.5-0.3,2.9-0.6,4.4-0.8c1.4-0.2,1.8-1,1.2-2
		c-1.3-2.5-0.3-4.8,0.2-7.2c3.8-3.6,7.8-3.6,11.7,0c0.3,0.9,0.8,1.8,0.8,2.7c0,1.9-1.2,4.4-0.4,5.5
		C154.5,286.3,157.1,286.3,159,286.8"/>
	<path class="st11" d="M141.5,276.8c-0.5,2.4-1.5,4.7-0.2,7.2c0.5,1,0.1,1.8-1.2,2c-1.5,0.2-2.9,0.6-4.4,0.8c-2.5,0-5,0-7.5,0
		c-1.4-0.3-2.7-0.7-4.1-0.8c-1.2-0.1-2-0.7-1.6-1.8c1.2-3.4-0.5-6.2-1.8-9.1c2-0.3,3.9-0.6,5.9-0.9c3,2.7,6.3,3.2,10,1.7
		C138.2,276.2,139.8,276.5,141.5,276.8"/>
	<path class="st11" d="M159,286.8c-1.9-0.6-4.5-0.6-5.5-1.8c-0.8-1.1,0.4-3.6,0.4-5.5c0-0.9-0.5-1.8-0.8-2.7c2-0.3,3.9-0.6,5.9-0.8
		c3.7,1.5,7,1,10-1.7c0.4,2.5,2.6,1.9,4.2,2.5c-1.2,2.3-1.2,4.8-0.5,7.2c0.5,1.6,0,1.9-1.4,2c-1.3,0.1-2.7,0.5-4,0.8
		C164.6,286.8,161.8,286.8,159,286.8"/>
	<path class="st14" d="M154,349c0.5,4.2-3.6,7.3-6.8,7.1c-3.7-0.3-6.5-2.8-6.5-6.6c0-4,2.7-6.8,6.7-6.8
		C151.2,342.7,154,345.4,154,349"/>
	<path class="st14" d="M147.4,378.6c-4,0-6.7-2.4-6.7-6.1c-0.1-4.2,2.9-7.4,6.8-7.3c3.2,0.1,6.6,3.8,6.6,7.1
		C154,376.1,151.4,378.6,147.4,378.6"/>
	<path class="st14" d="M169.9,339.2c0,4.3-1.9,6.1-6.4,6c-4.2,0-6.8-2.6-6.7-6.7c0-3.3,3.8-6.8,7.2-6.7
		C167.5,332,169.9,335,169.9,339.2"/>
	<path class="st14" d="M143.2,297.7c2.8-0.5,5.6-1.5,8.3,0c1.3,1.9,2.8,3.7,2.5,6.3c-0.4,4-3.7,6.7-7.8,6.1
		c-3.7-0.5-6.4-4.3-5.5-7.9C141.2,300.6,142.4,299.2,143.2,297.7"/>
	<path class="st14" d="M169.9,361.6c0,4-2.6,6.9-6.2,6.9c-3.1,0-7.2-3.7-7.1-6.4c0.1-4.2,2.9-7,7.1-7
		C168,355.2,169.9,357.2,169.9,361.6"/>
	<path class="st14" d="M147,332.7c-3.9-0.1-6.4-2.6-6.3-6.5c0.1-3.7,2.8-5.9,6.8-6.1c4.5-0.2,6.8,2.8,6.6,6.5
		C153.8,331,151.9,332.8,147,332.7"/>
	<path class="st14" d="M139,316c0,2.9-3.9,6.9-6.8,6.6c-4-0.5-6.4-2.1-6.6-6.5c-0.1-3.8,2.6-6.8,6.1-6.8
		C136.2,309.3,139,311.9,139,316"/>
	<path class="st14" d="M157.4,315.6c0-4.5,1.7-6.3,6.1-6.3c4.5,0,6.4,1.9,6.4,6.6c0,3.8-2.7,6.7-6.2,6.7
		C160,322.7,157.4,319.8,157.4,315.6"/>
	<path class="st14" d="M172.4,349.1c0-3.9,2.6-6.5,6.4-6.4c3,0,7,3.7,7,6.4c-0.1,3.4-3.7,7-6.9,7
		C174.9,355.9,172.3,353.2,172.4,349.1"/>
	<path class="st22" d="M456.8,239.9c-1.6,2.7-3.3,5.5-4.9,8.2c-0.3,0.3-0.6,0.7-0.8,1.1l0-0.1c-1.7,1.4-3.4,2.8-5.1,4.2l-6.5,3.4
		c-1.2,0.4-2.3,0.8-3.5,1.2c-4.2,0.9-8.3,1.8-12.5,2.7c-2.2,0.2-4.5,0-6.6,0.6c-3,0.7-2.5-1-2.2-2.7c0.3-1.4,0.6-2.8,0.9-4.2
		c0.9-4.5,1.9-8.9,2.8-13.4c1-4.7,2-9.4,3-14c0.8-3.9,1.7-7.8,2.5-11.7c1.2-3.6,1.2-3.6,5-2.6c2.3,0.6,4.7,1.2,7,1.9
		c3.1,1.2,6.1,2.5,9.2,3.7c4.8,2,8.8,5,11.7,9.5c0,0.3,0,0.5,0.2,0.7C458.2,232.3,457.7,236.1,456.8,239.9 M446.1,235
		c-0.2-2.5-1.1-4.6-3.4-5.5c-1.9-0.8-3.9-1.3-5.9-1.8c-1.5-0.4-2.2,0.3-2.5,1.9c-0.9,4.7-2.1,9.4-3.1,14.2c-0.6,2.7-0.3,3,2.3,2.3
		c2.6-0.8,5.3-1.6,7.7-3C444.1,241.3,445.8,238.4,446.1,235"/>
	<path class="st13" d="M279.2,234.6c0.2,4.3-2.4,6.8-6.8,7c-3,0.2-6.5-3.8-6.5-7c0-4.3,2.5-7,6.8-7.1
		C276.3,227.4,279.2,230.5,279.2,234.6"/>
	<path class="st13" d="M404.4,235.2c0,3.7-3,6.6-6.5,6.5c-3.2-0.1-6.9-3.7-6.8-6.7c0-3.7,3.5-7.4,7-7.4
		C401.9,227.6,404.4,230.7,404.4,235.2"/>
	<path class="st13" d="M341.8,234.5c0.1,4.2-2.6,7.2-6.3,7.2c-3.1,0-6.9-3.4-7.1-6.4c-0.2-3.8,3.4-7.7,7.1-7.7
		C339,227.6,341.7,230.6,341.8,234.5"/>
	<path class="st15" d="M407.7,225.9c0-2.6-0.2-5.2,2.4-7c2.2-1.4,4.5-1.9,7-0.8c2.7,1.2,4,3.2,4,6.1c0,0.8,0,1.6,0,2.5
		c-0.4,0.3-1,0.6-1.2,1.1c-2.2,4.6-8.2,4.1-11.9-0.2C407.5,227.2,407.7,226.4,407.7,225.9"/>
	<path class="st10" d="M234.9,259.2c0.3-2.2,0.6-4.4,0.9-6.6c0.4-0.1,0.9,0,1.2-0.2c3-2.3,5.9-1.6,8.7,0.2c0.8,1.7,3.1,2.6,2.5,5
		c-0.8,1.9-1.7,3.9-2.5,5.8c-2.8,0.3-5.5,0.6-8.3,0.8C236.6,262.6,235.8,260.9,234.9,259.2"/>
	<path class="st15" d="M313.4,225c-0.1-3,0.8-5.3,3.6-6.8c2.4-1.2,4.8-1,7,0.4c2.3,1.5,3,3.8,2.9,6.4c-0.5,3.2-2.4,5.2-5.5,5.8
		c-2.8,0.5-5.2-0.6-6.9-2.8C313.8,227.2,313.7,226,313.4,225"/>
	<path class="st15" d="M281.7,225c0.8-5,3.4-7.6,7.5-7.5c3.4,0.1,6,3,6.7,7.5c-1,1.4-1.7,3.3-3,4.3
		C288.5,232.5,283.6,230.6,281.7,225"/>
	<path class="st13" d="M388.5,250.9c-3.2,3.4-6.9,2.9-10.8,1.7c-0.4-0.9-1-1.7-1.3-2.6c-1.2-3.3-0.2-6.3,2.9-8.6
		c2.6-1.9,5.6-1.8,8.2,0.7C390,244.7,389.9,247.8,388.5,250.9"/>
	<path class="st15" d="M376,225.9c0.1-1.1,0.1-2.2,0.4-3.2c1-3.8,3.1-5.3,6.7-5.1c3.5,0.2,5.7,2.4,6.2,6.3c0.1,0.4,0,0.8,0,1.2
		c-0.7,3.5-2.7,5.6-6.4,5.8C379.7,231.1,377.5,229.5,376,225.9"/>
	<path class="st10" d="M394.4,264.3c-0.8-1.7-3.1-2.7-2.6-5c0.3-1.9,0.6-3.9,0.9-5.8c3.2-2.9,5.9-3.2,9.2-1.2
		c0.8,0.5,1.6,0.9,2.5,1.3c0,1.3,0.1,2.7,0.1,4c-0.6,1.9-1.2,3.9-1.7,5.9C399.9,263.7,397.1,264,394.4,264.3"/>
	<path class="st13" d="M251.7,250.9c-1.6-4.4-1.3-6.4,1.8-8.8c1.8-1.5,3.9-2.6,6.4-1.3c2.8,1.5,4.7,4.3,4.3,6.9
		c-0.1,1.1-0.5,2.1-0.8,3.2c-0.2,0.1-0.5,0.2-0.7,0.4c-3.8,4-6.6,3.9-10.3,0C252.2,251.1,251.9,251,251.7,250.9"/>
	<path class="st13" d="M346,251.7c-0.3-1.3-0.7-2.6-0.9-4c-0.3-3,0.5-5.3,3.6-6.7c2.7-1.2,5-1.1,7.1,0.9c2.2,2,3.4,4.3,2.2,7.3
		c-0.2,0.5-0.3,1.1-0.4,1.6c-2.1,2.1-4.5,3.1-7.4,2.5C348.7,253.1,347.4,252.3,346,251.7"/>
	<path class="st10" d="M331.1,263.4c-0.6-3.3-1.2-6.6-1.9-9.9c0.4-0.1,0.9,0,1.2-0.3c3.6-3.4,7.1-2.9,10.5,0.2
		c0.3,1.6,0.6,3.3,0.9,4.9c0.5,2.4-1.8,3.3-2.6,5C336.5,265,333.8,264.2,331.1,263.4"/>
	<path class="st13" d="M418.4,241c-0.9,4.5-1.9,8.9-2.8,13.4c-2.3-0.9-4.7-1.8-7-2.6c-0.3-2.1-0.9-4.3-0.7-6.4
		c0.3-3.3,4.3-5.5,7.7-4.7C416.5,240.8,417.4,240.9,418.4,241"/>
	<path class="st15" d="M310.7,237.8c-4.4-0.1-8.8-0.2-13.2-0.2c0-0.8,0-1.7,0-2.5c0-4.7,2.6-7.6,6.7-7.5c3.1,0.1,7.3,4.4,6.7,7.7
		C310.8,236.1,310.8,237,310.7,237.8"/>
	<path class="st19" d="M341.8,258.4c-0.3-1.6-0.6-3.3-0.9-4.9c1.7-0.6,3.4-1.1,5.1-1.7c1.4,0.6,2.7,1.3,4.2,1.6
		c2.9,0.6,5.4-0.4,7.4-2.5c1.1,0.9,2.3,1.7,3.4,2.6c-0.3,1.6-0.6,3.3-0.9,4.9C354,258.4,347.9,258.4,341.8,258.4"/>
	<path class="st19" d="M251.7,250.9c0.2,0.1,0.5,0.2,0.7,0.4c3.7,3.9,6.4,4,10.3,0c0.2-0.2,0.5-0.2,0.7-0.4c1.4,0.6,2.8,1.1,4.2,1.7
		c-0.6,1.7-1.2,3.3-1.7,5c-2.3-0.1-4.7-0.1-7-0.2c-1.3-0.1-2.7-0.5-4-0.5c-2.2,0.1-4.3,0.4-6.5,0.7c0.5-2.4-1.7-3.3-2.5-5
		C247.8,252,249.7,251.5,251.7,250.9"/>
	<path class="st19" d="M408.6,251.7c2.3,0.9,4.7,1.8,7,2.6c-0.3,1.4-0.6,2.8-0.9,4.2c-3.3-1.8-6.8-0.6-10.2-1c0-1.4-0.1-2.7-0.1-4
		c0.8-0.3,1.5-0.6,2.3-0.9C407.3,252.3,407.9,252,408.6,251.7"/>
	<path class="st17" d="M326.6,248.7c-2.7-2.6-5.5-5.2-8.2-7.9c3.9-1.3,7.6,0.7,8.3,4.6C326.9,246.4,326.7,247.6,326.6,248.7"/>
	<path class="st12" d="M265.8,257.6c0.6-1.7,1.2-3.3,1.7-5c1.9-0.6,3.8-1.1,5.7-1.7c-2.4,3.1-4.9,6.3-7.3,9.4
		C265.9,259.4,265.9,258.5,265.8,257.6"/>
	<path class="st25" d="M233.2,203.3c-1.5,2-3,3.9-5.8,4.2c-4.5,0.5-5.8-0.2-8.3-5c-0.1-3.7,1.3-6.3,4.9-7.6c3.4-1.2,7.1,0.3,8.3,3.6
		C232.9,200.1,233,201.7,233.2,203.3"/>
	<path class="st25" d="M88.1,205.8c3.5,3,4.3,5.6,2.6,8.9c-1.7,3.4-6,4.9-9.1,3.3c-3.1-1.6-4.5-6.1-2.8-9.3c0.7-1.3,1.8-2.4,2.7-3.6
		C83.7,205.3,85.9,205.6,88.1,205.8"/>
	<path class="st25" d="M149.8,205c1,0.9,2.2,1.7,3,2.7c2.2,3,1.6,7-1.4,9.5c-2.4,2-6.8,1.6-8.9-0.8c-2.6-2.9-2.5-7,0.2-9.6
		c0.6-0.7,1.4-1.2,2.2-1.8C146.5,205,148.2,205,149.8,205"/>
	<path class="st20" d="M125.6,180.8c0.3-2.1-0.7-4.4,0.9-6.4c2-2.3,5.1-3.4,7.7-2.7c2.8,0.9,4.6,3.2,4.7,6.5c0,0.8,0,1.7,0,2.5
		c-1.8,2.6-3.9,4.7-7.5,4.2C128.8,184.6,127,183,125.6,180.8"/>
	<path class="st25" d="M119,205.1c0.6,0.7,1.2,1.5,1.8,2.2c2.8,3.1,2.4,5.4,0.7,8.5c-1.2,2.2-4.2,3.2-7.3,2.5
		c-2.2-0.5-5.2-3.4-5.1-5.9c0.1-3.3,1.7-6,4.8-7.4C115.6,205,117.3,205.1,119,205.1"/>
	<path class="st20" d="M237.5,182.5c2.8,0.3,5.5,0.6,8.3,0.8c3.5,4.9,3.3,8-0.6,11c-1.8,1.4-3.8,2-6.1,1c-2.4-1.1-3.7-2.8-4-5.3
		C234.5,187.1,235.7,184.7,237.5,182.5"/>
	<path class="st20" d="M143.2,182.5c2.8,0.3,5.6,0.5,8.3,0.8c1.1,1.8,2.9,3.2,2.6,5.8c-0.3,2.5-1,4.6-3.4,5.8
		c-2.5,1.2-4.9,1.3-7.3-0.8c-2.1-1.9-3.5-4-2.6-6.9C141.4,185.6,142.4,184.1,143.2,182.5"/>
	<path class="st20" d="M174.9,182.5c2.5,0,5,0,7.4,0c1,1.6,2.2,3.1,2.8,4.9c1.1,3.1-1,6.7-4.5,8.1c-2.7,1.1-7-0.5-8-3.3
		c-0.8-2.5-0.8-5.2,0.7-7.6C173.9,183.8,174.4,183.2,174.9,182.5"/>
	<path class="st20" d="M188.2,180.8c0-0.8,0-1.6,0-2.5c0.2-4.1,2.8-6.7,6.7-6.7c3.9,0,6.5,2.6,6.7,6.7c0,0.8,0,1.6,0,2.5
		c-1.8,2.5-3.8,4.5-7.3,4.2C191.4,184.8,189.9,182.8,188.2,180.8"/>
	<path class="st20" d="M112.3,182.5c2.5,0,5,0,7.5,0c1.7,1.9,2.9,3.8,2.6,6.6c-0.3,3.4-2.3,6.2-5.4,6.7c-2.8,0.5-6-1.6-7.2-4.4
		c-0.8-1.9-1-3.6,0.3-5.4C110.9,184.8,111.6,183.7,112.3,182.5"/>
	<path class="st25" d="M243.3,205c4.1,2.3,5.5,5.2,4.3,8.8c-1.3,3.8-5.3,5.8-8.8,4.3c-3.2-1.3-4.9-5.7-3.4-9
		c0.6-1.3,1.9-2.3,2.8-3.4C240,205.5,241.6,205.3,243.3,205"/>
	<path class="st25" d="M139,204.2c-2.1,1-2.9,3.6-5.9,3.5c-3.1-0.1-5.6-0.8-7.4-3.5c0-1,0-1.9,0-2.9c0.1-3.9,2.6-6.8,6.1-7
		c3.2-0.2,6.9,3.1,7.3,6.6C139.1,201.9,139,203.1,139,204.2"/>
	<path class="st20" d="M205.8,183.3c2.8-1.3,5.6-1.3,8.3,0c1.7,1.9,3,3.8,2.5,6.6c-0.4,2.7-2.2,5-4.8,5.7c-2.9,0.8-5.1-0.6-6.9-2.7
		c-1.7-2-2.4-4.3-1-6.9C204.5,185.1,205.2,184.2,205.8,183.3"/>
	<path class="st25" d="M169.9,203.3c-3.4,6-8.6,6-13.4,0c0.1-3.7,0.7-7.1,4.9-8.4c3.9-1.2,7.9,1.2,8.4,5.1
		C170,201.1,169.9,202.2,169.9,203.3"/>
	<path class="st20" d="M156.6,180.8c-0.4-3.1,0.7-5.6,3-7.7c1.9-1.8,4-1.9,6.1-1c2.3,1,4.4,2.4,4.3,5.4c0,1.1,0,2.2,0,3.3
		c-0.8,0.9-1.5,2-2.5,2.8c-2.7,2.2-6,1.9-8.5-0.5C158.1,182.3,157.4,181.6,156.6,180.8"/>
	<path class="st25" d="M76.4,204.2c-2.1,1.1-3.1,3.7-6.2,3.5c-3.4-0.2-5.9-0.9-7.1-4.3c0-0.7,0-1.4,0-2.1c0.1-4.1,2.6-6.8,6.5-6.9
		c3-0.1,6.5,3.1,6.8,6.5C76.5,201.9,76.4,203.1,76.4,204.2"/>
	<path class="st25" d="M107.3,203.3c-3.2,5.7-8.3,6.1-12.6,0.8c-1.2-4.7,0.2-7.9,4-9.2c4-1.4,8.2,1.3,8.5,5.5
		C107.4,201.4,107.3,202.4,107.3,203.3"/>
	<path class="st20" d="M219.9,180.8c0.3-2.2-0.7-4.6,1.2-6.7c3.7-3.9,9.3-3,11.4,2c0.8,1.9,0.6,3.7-0.1,5.5
		c-0.5,0.4-1.1,0.8-1.6,1.2C226.6,186.4,222.9,185.7,219.9,180.8"/>
	<path class="st25" d="M198.2,207.5c-2.7-0.3-5.5-0.5-8.3-0.8c-0.3-0.7-0.6-1.5-1-2.2c-2.2-4.1,0.5-9.8,5.1-10.2
		c2.6-0.2,4.8,1.1,6.3,3.3c1.3,1.9,1.9,4,0.5,6.2C200.1,205.1,199.1,206.3,198.2,207.5"/>
	<path class="st25" d="M264.2,202.5c-1.5,3.5-3.6,5.5-7.8,5.1c-3-0.3-3.8-2.7-5.6-4.3c0-0.1,0-0.3,0-0.4c0.1-4.8,2.8-8.4,6.5-8.6
		C260.9,194.1,263.9,197.8,264.2,202.5"/>
	<path class="st21" d="M211.7,217.9c-1.7-0.6-2.5-3-3.6-4.3c-1.4-1.7-3.1-3-4.9-4.3c1.8-2.6,4-4.7,7.6-4.3c4.9,1.6,6,3,5.9,7.4
		c0,1.9-1.4,5.2-3.6,5.6C212.6,218.1,212.1,218,211.7,217.9"/>
	<path class="st21" d="M183.2,207.4c-3.3,0.4-6.6,0.9-9.9,1.3c0.8-1.2,1.6-2.4,2.4-3.6C178.4,205.2,181.5,204.1,183.2,207.4"/>
	<path class="st14" d="M360.1,348.8c0-3.5,2.7-6,6.3-6.2c4.1-0.3,7.4,3.5,7.1,6.9c-0.3,3.8-2.9,6.5-6.7,6.5
		C362.8,356.1,360.1,353.2,360.1,348.8"/>
	<path class="st14" d="M389.3,316.2c0,3.7-3,6.6-6.5,6.5c-3.2-0.1-7.1-3.8-6.8-6.7c0.5-4.4,2.7-6.8,7.3-6.6
		C387,309.5,389.4,312.2,389.3,316.2"/>
	<path class="st14" d="M389.3,338.8c0,3.9-3,6.6-7,6.4c-4.1-0.2-6-2.5-6.3-6.8c-0.3-3.3,3.8-6.7,7.2-6.6
		C386.8,332,389.4,334.9,389.3,338.8"/>
	<path class="st14" d="M366.7,320.2c3.8,0,6.7,2.4,6.8,5.6c0.1,4-2.6,6.9-6.4,6.9c-4,0-6.8-2.6-6.9-6.5
		C360,322.1,362.1,320.2,366.7,320.2"/>
	<path class="st20" d="M216.6,166c0,3.9-2.6,6.5-6.4,6.5c-4.3,0-7.1-2.8-7-7c0.1-3.7,3.3-6.5,7.3-6.4
		C214,159.2,216.7,162.2,216.6,166"/>
	<path class="st20" d="M172.4,165.9c0-3.8,2.6-6.7,6.1-6.8c3.5-0.1,7.5,3.7,7.1,7.1c-0.4,3.4-1.9,6.2-6.8,6.2
		C174.3,172.5,172.4,170.6,172.4,165.9"/>
	<path class="st20" d="M392.7,184.2c3.1-2.7,6.5-1.8,10-0.8c3.5,5.1,2.7,9.7-2.2,11.9c-2.5,1.2-4.6,0.5-6.5-1.2
		c-1.9-1.7-3.6-3.6-2.6-6.5C391.8,186.5,392.2,185.3,392.7,184.2"/>
	<path class="st20" d="M424.4,184.1c3.1-2.6,6.5-1.7,10-0.8c0.6,1.9,1.5,3.8,1.6,5.7c0.2,3.4-1.1,5-4.3,6.1c-2.9,1-5.8,0.4-7.4-1.6
		c-1.8-2-2.1-5.6-0.8-8C423.8,185,424.1,184.6,424.4,184.1"/>
	<path class="st25" d="M496.1,205.9c0.6,0.8,1.2,1.5,1.6,2.4c1.5,3.1,1.7,6.5-1.9,9.1c-2.2,1.7-6.5,1.3-8.7-0.9
		c-2.4-2.4-2.6-6.2-0.4-9.1c0.5-0.6,1.2-1.1,1.9-1.6C491.1,204.3,493.6,205.1,496.1,205.9"/>
	<path class="st20" d="M407.7,181.6c0-1,0-1.9,0-2.9c0-4.5,2.8-7.3,7.1-7.1c3.7,0.2,6.6,3.6,6.3,7.7c-0.1,0.8-0.5,1.5-0.8,2.3
		c-3.7,4.4-6.9,4.7-11.2,0.9C408.6,182.2,408.1,181.9,407.7,181.6"/>
	<path class="st20" d="M439.4,182.5c0-2.2-1.5-4.3-0.2-6.7c1.5-2.9,3.8-4.6,7.2-4.1c3.1,0.5,5.5,3.1,5.5,6.1c0,1.6-0.5,3.2-0.8,4.8
		C446,186,444.4,186,439.4,182.5"/>
	<path class="st20" d="M367.6,195.8c-5.2-0.3-7.6-2.6-7.5-7.3c0.1-3.3,2.6-6.1,6-6c1.9,0,3.8,0.5,5.7,0.8c0,0.3,0,0.6,0.1,0.8
		C375.2,189.8,373.5,192.9,367.6,195.8"/>
	<path class="st20" d="M455.3,184.2c3.6-2.4,7.2-2.4,10.8,0c0.3,2.4,2.2,4.4,0.9,7.1c-1.3,2.8-4.4,5-7.2,4.5c-3-0.5-6.3-4-6.1-7
		C453.8,187.3,454.7,185.7,455.3,184.2"/>
	<path class="st25" d="M464.4,205.9c0.7,0.9,1.5,1.6,2,2.6c1.4,2.1,0.8,6.5-0.9,8.4c-1.6,1.7-5.6,2.2-8.1,0.9
		c-2.3-1.1-3.5-4.4-3.3-7.2c0.2-2.2,1.9-3.1,2.8-4.7C459.4,204.8,461.9,204.8,464.4,205.9"/>
	<path class="st25" d="M421,204.2c-1.8,1.1-3.4,2.8-5.3,3.3c-3.2,0.8-6.1-0.2-8-3.2c0-1,0-1.9,0-2.9c0.1-3.9,2.5-6.8,6.1-7
		c3.2-0.2,6.9,3.1,7.3,6.6C421.1,201.9,421,203.1,421,204.2"/>
	<path class="st25" d="M483.6,204.2c-1.8,1.1-3.4,2.8-5.3,3.3c-3.2,0.8-6.1-0.2-8-3.2c0-1,0-1.9,0-2.9c0.1-4,2.6-6.8,6.1-7
		c3.2-0.2,6.9,3.1,7.3,6.6C483.7,201.9,483.6,203.1,483.6,204.2"/>
	<path class="st20" d="M376.9,182.5c0.2-2.1-1.5-4-0.3-6.4c1.6-3.2,3.9-5,7.4-4.4c3.1,0.5,5.4,3.2,5.4,6.4c0,1.5-0.5,2.9-0.8,4.4
		C383.5,186,381.8,186,376.9,182.5"/>
	<path class="st25" d="M401.9,205.9c0.8,1.5,2.1,2.9,2.4,4.6c0.6,3.5-1.3,6.9-3.9,7.8c-2.4,0.9-6.2-0.2-7.6-2.1
		c-2.5-3.5-2.3-6.2,0.7-9.5C396.1,204.3,399,204.9,401.9,205.9"/>
	<path class="st25" d="M451.9,204.2c-4.4,5.3-9.9,4.9-13.3-0.8c0.3-1.6,0.3-3.3,0.9-4.8c0.9-2.6,4-4.5,6.4-4.1
		c3.8,0.6,5.9,2.6,6.1,6C452,201.7,451.9,202.9,451.9,204.2"/>
	<path class="st25" d="M389.3,204.2c-2,0.8-2.7,3.3-5.5,3.5c-3.4,0.2-5.8-1-7.9-3.5c-0.1-2.6-0.2-5.2,1.9-7.3
		c2.1-2.2,4.4-2.8,7.3-1.8c3,1.1,4,2.5,4.2,5.8C389.4,202,389.3,203.1,389.3,204.2"/>
	<path class="st21" d="M435.9,214.5c-2.4-0.6-4.7-1.2-7-1.9c-3.7-1-3.7-1-5,2.6c-1.6-2.4-1.7-5-0.1-7.4c0.7-1,1.5-1.9,2.3-2.8
		c2.2,0,4.4,0,6.6,0C435.2,207.7,436.9,210.6,435.9,214.5"/>
	<path class="st20" d="M361,161.5c3.9,0,7.7,0.1,11.6,0.1c0.3,0.9,0.7,1.8,0.8,2.7c0.4,2.8-0.3,5.2-2.7,6.9
		c-1.9,1.4-5.8,1.6-7.4,0.4c-2.4-1.8-3.8-4-3.1-7.1C360.4,163.6,360.7,162.6,361,161.5"/>
	<path class="st14" d="M498.7,348.9c0,4.4-2.6,7.2-6.7,7.2c-3.8,0-6.5-2.7-6.6-6.5c-0.1-4,2.7-6.9,6.6-6.9
		C495.7,342.7,498.6,345.3,498.7,348.9"/>
	<path class="st14" d="M514.5,362c0,3.9-3,6.7-6.8,6.6c-3-0.1-6.5-4-6.6-6.9c-0.1-3.4,3.3-6.7,7.1-6.5
		C512.7,355.4,514.5,357.2,514.5,362"/>
	<path class="st14" d="M514.5,338.7c0,3.9-2.9,6.6-6.8,6.5c-3.6-0.1-6.4-2.7-6.5-6.2c-0.1-3.3,3.7-7.5,6.8-7.1
		C511.6,332.4,515.3,334.4,514.5,338.7"/>
	<path class="st13" d="M115.6,227.6c3.2,0.4,5.6,1.8,6.8,5c1.1,2.8,0.3,5-1.7,7c-2.4,2.4-4.2,2.7-7.5,1.3c-2.8-1.1-4.2-3.6-4.1-6.1
		c0.1-3,2.1-5.5,4.8-7.2C114.5,227.6,115.1,227.6,115.6,227.6"/>
	<path class="st15" d="M139,225.9c-0.9,3.4-3.4,4.9-6.7,4.9c-3.3,0-5.8-1.5-6.7-4.9c-0.1-2.6-0.3-5.2,2.4-7c2.2-1.4,4.5-1.9,7-0.8
		c2.5,1.1,3.8,3,4,5.7C139,224.5,139,225.2,139,225.9"/>
	<path class="st13" d="M149,227.6c1,0.9,2.1,1.7,3.1,2.6c2.7,2.6,2.7,7,0.1,9.5c-2.3,2.3-6.1,2.1-8.9,0.1c-4.2-3-3-9,0.7-11
		c0.9-0.4,1.7-0.9,2.6-1.3C147.3,227.6,148.2,227.6,149,227.6"/>
	<path class="st15" d="M166.5,218.3c0.8,3.4,1.6,6.7,2.4,10.1c-1.5,0.8-3,2.1-4.6,2.4c-3.8,0.6-6-1.9-7.6-4.9
		c0.2-1.2,0.2-2.5,0.6-3.6C158.9,217.6,161.4,216.6,166.5,218.3"/>
	<path class="st10" d="M142.4,252.6c3.8-2.6,7.4-2.2,10.8,0.8c0.3,1.7,0.6,3.3,0.9,4.9c-0.7,3.9-2.8,5.8-6.4,5.9
		c-4.4,0.1-6.2-1.6-7-6.7C141.2,255.9,141.8,254.3,142.4,252.6"/>
	<path class="st13" d="M126.5,251.7c-0.3-1.3-0.8-2.6-0.9-4c-0.3-4.3,1.1-6.1,5.5-7.2c2.8-0.7,5.7,0.9,7.1,4c0.4,1,0.4,2.3,0.4,3.5
		c0,1.2-0.4,2.4-0.6,3.6c-0.6,0.2-1.4,0.3-1.9,0.7c-2.4,2.1-4.9,2.2-7.5,0.4C128.1,252.4,127.3,252.1,126.5,251.7"/>
	<path class="st13" d="M158.2,251.7c-0.6-1.2-1.4-2.3-1.6-3.5c-0.6-3.9,3.1-8,7-8.1c3.7,0,6.5,3,6.3,7.2c-0.1,1.5-0.6,3-0.9,4.4
		C165.4,253.8,161.8,254.6,158.2,251.7"/>
	<path class="st10" d="M109,257.6c0.6-1.6,1.1-3.3,1.7-4.9c0.6-0.2,1.3-0.4,1.9-0.7c2.3-1.4,4.6-1.4,6.9,0c0.6,0.3,1.3,0.4,1.9,0.7
		c0.3,1.6,0.6,3.3,0.9,4.9c0.5,3.4-1.9,5.1-4.2,6.7c-1.7,0-3.3,0-5,0C110.3,262.9,110.2,259.9,109,257.6"/>
	<path class="st19" d="M158.2,251.7c3.6,2.8,7.2,2,10.8,0c1.4,0.6,2.8,1.1,4.2,1.7c-0.3,1.9-0.6,3.9-0.9,5.8c-2.6,0-5.2,0.1-7.8,0
		c-3.5-0.2-7-0.5-10.5-0.8c-0.3-1.6-0.6-3.3-0.9-4.9C154.6,252.4,156.2,251.3,158.2,251.7"/>
	<path class="st19" d="M122.4,257.6c-0.3-1.6-0.6-3.3-1-4.9c1.7-0.3,3.4-0.6,5.1-0.9c0.7,0.4,1.5,0.6,2.2,1.1
		c2.6,1.8,5.1,1.7,7.5-0.4c0.5-0.4,1.2-0.5,1.8-0.7c1.4,0.3,2.8,0.6,4.3,0.9c-0.6,1.7-1.1,3.3-1.7,4.9c-2.7-0.3-5.4-0.8-8.1-0.8
		C129.2,256.8,125.8,257.3,122.4,257.6"/>
	<path class="st12" d="M172.3,259.2c0.3-1.9,0.6-3.9,0.9-5.8c0.3-0.3,0.6-0.7,1-1.1c0.6,2.4,1.2,4.8,1.8,7.1c1,4,0.9,3.9,4.5,2.1
		c1.3-0.7,2.7-1.2,4.1-1.8c-0.1,0.6,0.1,1.5-0.2,1.9c-1.5,2.2-3.8,3.5-6.4,3.1C174.9,264.4,172.7,262.6,172.3,259.2"/>
	<path class="st25" d="M303.8,218.4c-3.6,0-6.2-2.6-6.3-6.2c0-4.4,2.6-7.2,6.7-7.2c3.9,0,6.5,2.8,6.6,6.9
		C311,215.7,308,218.4,303.8,218.4"/>
	<path class="st13" d="M494.5,228.3c1.9,1.5,4.1,2.7,4.2,5.7c0.3,4.9-2.3,6.5-5.5,7.6c-2.3,0.8-6.6-1.7-7.4-4
		c-1.2-3.6-0.8-6.4,2.9-8.8c0.6-0.4,1.1-0.8,1.6-1.2C491.7,227.9,493.1,228.1,494.5,228.3"/>
	<path class="st15" d="M483.6,226.7c-3.7,4.7-6.8,5.5-11.1,2.7c-0.9-0.6-1.5-1.8-2.3-2.7c0-0.8,0-1.6,0-2.5c0-3.6,2.4-6.3,5.8-6.7
		c3.5-0.4,6,1.2,7,4.8C483.4,223.7,483.4,225.2,483.6,226.7"/>
	<path class="st13" d="M456.8,239.9c0.9-3.8,1.5-7.6,0.3-11.5c1.3-0.3,2.7-0.6,4-0.9c0.6,0,1.1,0,1.6,0c1.3,1.5,3,2.8,3.9,4.5
		c1.3,2.4,1.1,4.9-0.9,7.1c-2.1,2.2-4.3,3.4-7.3,1.8C457.9,240.6,457.3,240.3,456.8,239.9"/>
	<path class="st3" d="M461.1,227.6c-1.3,0.3-2.7,0.6-4,0.9c-0.2-0.2-0.3-0.4-0.2-0.7c1-0.5,1.9-1.2,3-1.5
		C460.1,226.1,460.7,227.1,461.1,227.6"/>
	<path class="st25" d="M552.1,205c2.2,0.3,4.4,0.6,6.6,0.9c0.6,0.8,1.2,1.5,1.6,2.4c1.9,4.2,1.2,6.9-2.2,9.4
		c-2.3,1.7-6.7,0.9-8.6-1.5c-2.5-3-2.2-7,0.7-9.7C550.8,206,551.5,205.5,552.1,205"/>
	<path class="st25" d="M564.6,204.2c-1.6-4.6,0.2-8,4.7-9.4c3.7-1.1,7.5,1.2,8.3,5.5c0.3,1.2-0.3,2.6-0.5,3.9
		C573.1,209.1,568.5,209.1,564.6,204.2"/>
	<path class="st13" d="M558.7,229.2c4.2,4.3,3.4,9.4-1.6,11.7c-3,1.4-6.1,0.3-8.1-2.8c-1.7-2.7-1.4-6,0.9-8.2c0.5-0.5,0.9-1,1.4-1.5
		C553.8,227.8,556.4,227.8,558.7,229.2"/>
	<path class="st15" d="M546.2,226.7c-3.3,4.3-6.5,5.4-10,3.3c-1.2-0.7-2.1-1.7-3.2-2.5c0-1.1-0.1-2.2,0-3.3c0.1-4.1,2.8-6.7,6.7-6.7
		s6.5,2.6,6.7,6.7C546.2,225.1,546.2,225.9,546.2,226.7"/>
	<path class="st25" d="M532.8,203.3c0.1-2.4-0.4-5,2.1-6.8c1.9-1.4,3.5-2.9,6.3-1.7c2.9,1.2,4.5,3.1,5,6c0.2,1.1,0,2.2,0,3.3
		c-2,0.8-2.7,3.2-5.3,3.4C537.1,207.9,534.7,206.4,532.8,203.3"/>
	<path class="st10" d="M467,258.4c0.2,2.7-1.5,4.4-3.4,5.9c-1.9,0-3.9,0-5.8,0c-2.4-1.6-3.7-3.7-3.4-6.7c-0.4-2,0.7-3.5,1.7-5
		c3.6-2.7,6.9-1.8,10,0.9C466.4,255.1,466.7,256.7,467,258.4"/>
	<path class="st13" d="M471.1,251.7c-0.3-1.6-0.8-3.2-0.8-4.8c-0.1-3.5,1.5-5.3,5.2-6.5c2.1-0.7,5,0.3,6.4,2.7
		c1.6,2.8,1.2,5.8,0,8.7C478.3,254.6,474.7,253.8,471.1,251.7"/>
	<path class="st19" d="M471.1,251.7c3.6,2.1,7.2,2.8,10.8,0c1.7,0.3,3.3,0.6,5,0.9c-0.6,1.9-1.2,3.9-1.7,5.8c-6.1,0-12.2,0-18.3,0
		c-0.3-1.6-0.6-3.3-0.9-5C467.8,252.9,469.5,252.3,471.1,251.7"/>
	<path class="st19" d="M456.1,252.6c-1,1.5-2.1,3-1.7,5c-1.6,0.1-3.3,0-4.9,0.5c-3.6,1-6.8-0.2-10.1-1.2l6.5-3.4
		c1.7-0.5,3.4-1.1,5.2-1.6C452.7,252,454.4,252.3,456.1,252.6"/>
	<path class="st21" d="M451.1,251.7c-1.7,0.5-3.4,1.1-5.2,1.6c1.7-1.4,3.4-2.8,5.1-4.2C451,250,451.1,250.9,451.1,251.7"/>
	<path class="st21" d="M451,249.2c0.3-0.3,0.6-0.7,0.8-1.1C451.5,248.5,451.3,248.8,451,249.2"/>
	<path class="st10" d="M517,258.4c0.3-1.7,0.6-3.3,0.9-5c3.3-3,5.8-3.2,9.5-1c0.7,0.4,1.4,0.7,2.2,1.1c0,1.6,0.1,3.3,0.1,4.9
		c0.3,2.8-1.1,4.6-3.4,5.9h-5.8C518.4,262.8,516.8,261.1,517,258.4"/>
	<path class="st13" d="M533.7,250.9c-1.9-5.3-0.8-8.1,3.6-10.2c2.6-1.2,4.6-0.1,6.4,1.4c1.8,1.5,3.2,3.5,2.2,6.1
		c-0.4,1.2-0.9,2.3-1.3,3.5C540.6,254.4,537.9,254.2,533.7,250.9"/>
	<path class="st19" d="M533.7,250.9c4.2,3.3,6.9,3.5,10.9,0.8c1.4,0.6,2.8,1.1,4.2,1.7c-0.3,1.9-0.6,3.9-0.9,5.8
		c-6.1-0.3-12.2-0.6-18.3-0.9c0-1.6-0.1-3.3-0.1-4.9c0.8-0.3,1.6-0.8,2.4-0.9C533.1,252.5,533.7,252.1,533.7,250.9"/>
	<path class="st15" d="M233.3,224.2c-0.4,1.1-0.7,2.4-1.4,3.3c-1.7,2.3-4,3.9-7,3.3c-2.7-0.5-5.3-3.6-5.8-6.6
		c1.5-4.9,3.7-6.8,7.5-6.7C229.7,217.6,231.9,219.8,233.3,224.2"/>
	<path class="st19" d="M189.9,256.6c1.7-1.1,3.3-2.2,5-3.3c1.7-0.3,3.4-0.6,5-0.8c1.4,0.3,2.8,0.6,4.2,0.9c-0.3,1.6-0.6,3.3-0.9,4.9
		c-3,0.3-6-0.7-9.1-0.1C192.8,258.5,191.3,257.2,189.9,256.6"/>
	<path class="st21" d="M207.7,241.7c1.8-4.2,3.7-8.3,5.5-12.5c2.8,0.3,3.3,2.5,3.5,4.7c0.2,2.5,0,5.1-2.7,6.2
		C211.9,240.9,209.7,241.2,207.7,241.7"/>
	<path class="st21" d="M199.9,252.6c-1.7,0.3-3.4,0.6-5,0.8c1.9-1.5,3.9-2.9,5.8-4.4C200.4,250.2,200.1,251.4,199.9,252.6"/>
	<path class="st12" d="M173.2,276.8c-1.5-0.6-3.8,0-4.2-2.5c0.3-2.5,0.6-5,0.8-7.5c6.4-0.3,12.8-0.6,19.2-0.8
		c-1.1,2.8-1.1,5.6,0,8.3c-1.7,0.6-3.3,1.1-5,1.7c-1.9-1.1-3.9-1.8-6.2-1.8C175.7,274.2,174.1,274.8,173.2,276.8"/>
	<path class="st8" d="M513.7,288.5c2.1,0,4.1,0,6.2-0.1c0.3,0,0.8-0.3,0.9-0.6c0.1-0.2-0.1-0.8-0.4-0.9c-3.2-1.6-3.7-4.5-3.4-7.6
		c0.4-2.8,1.9-4.6,4.7-4.9c2.8-0.4,5.5,0.1,7.4,2.6c0.4,0.5,0.8,1,1.2,1.6c0,2.5,0,4.8-1.9,6.9c-1.2,1.3-0.6,2,1.3,2.3
		c1.3,0.2,2.7,0.6,4,0.8c-0.2,2.8-1.8,5.5-0.2,8.4c0.1,0.2-0.8,1.5-1.3,1.5c-1.6,0-3.3-0.1-4.7-0.7c-2.7-1.2-5.3-1.6-7.7,0.2
		c-2.1,1.5-3.6-0.8-5.5-0.3c0-0.6-0.2-1.2-0.1-1.8C514.6,293.2,514.9,290.8,513.7,288.5"/>
	<path class="st8" d="M391.8,283.4c-1.5-1.9-0.5-3.9,0-5.8c4-4.8,8.5-4.8,12.5,0c0.5,2.2,0.5,4.4,0,6.7c-0.3,0.1-0.5,0.2-0.7,0.4
		C398.6,288.9,396,288.6,391.8,283.4"/>
	<path class="st8" d="M432.7,274.3c2.6,2.5,4.1,5.4,3.3,9.2c-0.7,0.8-1.3,1.7-2.2,2.3c-3.5,2.5-7.4,2.2-11.2-2.3
		c0.3-2.5,0.6-5,0.8-7.5c2-2.1,4.6-1.7,7.1-1.7C431.4,274.3,432,274.3,432.7,274.3"/>
	<path class="st11" d="M423.6,276c-0.3,2.5-0.6,5-0.8,7.5c-1.5,0.3-2.9,0.8-4.3,0.8c-4.7,0.1-9.3,0-14,0c0.5-2.2,0.5-4.5,0-6.7
		c2.2-0.3,4.5-0.6,6.7-0.8c3,0.1,6.1,0.2,8.3-2.4c0.1-0.2,0.5-0.1,0.8-0.1C421.3,274.8,422.4,275.4,423.6,276"/>
	<path class="st12" d="M237.5,264.3c2.8-0.3,5.5-0.6,8.3-0.8c2.5,0.3,5,0.6,7.6,0.9c-1.8,2.2-3,4.6-2.6,7.5c-6.1,0-12.2,0-18.3,0
		c-0.3-2.2-0.6-4.4-0.9-6.6C233.3,263.4,235.6,264.6,237.5,264.3"/>
	<path class="st8" d="M248.3,280.1c0,3.8-2.3,6.3-5.6,7.3c-3.3,0.9-5.9-1.1-7.7-3.9c0-1.1,0-2.2,0-3.4c0.7-4.1,1.8-5.5,5-5.8
		c4.1-0.5,6.3,0.8,7.6,4.4C247.8,279.1,248.1,279.6,248.3,280.1"/>
	<path class="st9" d="M231.6,265.2c0.3,2.2,0.6,4.4,0.9,6.6c-1.2,3.6-4.1,5.5-7.7,5c-2.6-0.4-4.7-3.3-4.9-6.7
		c0.6-1.9,1.2-3.8,1.8-5.8C225.1,262.8,228.4,263.2,231.6,265.2"/>
	<path class="st11" d="M234.9,280.1c0,1.1,0,2.2,0,3.4c-6.1,1.3-12.2,1.3-18.3,0c0-1.4,0-2.8,0-4.2
		C222.7,279.5,228.8,279.8,234.9,280.1"/>
	<path class="st9" d="M189.1,274.3c-1.1-2.8-1.1-5.6,0-8.3c0.7-0.6,1.4-1.3,2.2-1.7c3.6-1.8,6.7-0.7,9.5,1.7c0.3,2.5,0.5,5,0.8,7.5
		c-0.5,0.2-1.1,0.3-1.5,0.6c-3.3,3.4-5.8,3.8-9.7,1.2C190,274.9,189.5,274.6,189.1,274.3"/>
	<path class="st17" d="M439.4,256.8c3.3,1,6.5,2.3,10.1,1.2c1.5-0.4,3.2-0.3,4.9-0.5c-0.3,3,1,5.1,3.4,6.7c-1.7,2.6-4.4,1.4-6.7,1.7
		c-3.4-3.4-7-3.2-10.8-0.8c-2.5-0.3-5-0.6-7.6-0.9c1.2-2,3.7-3.4,3.2-6.3C437.1,257.6,438.3,257.2,439.4,256.8"/>
	<path class="st9" d="M440.3,265.1c3.8-2.4,7.4-2.5,10.8,0.8c0.3,2.5,0.6,5,0.8,7.5c-2.2,1.1-3.4,3.8-6.7,3.5
		c-2.8-0.2-3.7-2.7-5.8-3.5C437.7,270.4,439.4,267.8,440.3,265.1"/>
	<path class="st12" d="M440.3,265.1c-0.9,2.7-2.6,5.3-0.9,8.3c-2.2,0.3-4.4,0.6-6.7,0.9c-0.7,0-1.4,0-2.1,0c-2.5,0-5.1-0.4-7.1,1.7
		c-1.1-0.6-2.2-1.1-3.4-1.7c-0.3-3-0.6-6.1-0.8-9.1c2.2-0.3,4.5-0.6,6.7-0.9h6.6C435.2,264.5,437.8,264.8,440.3,265.1"/>
	<path class="st17" d="M200.7,265.9c-2.8-2.4-5.9-3.5-9.5-1.7c-0.8,0.4-1.4,1.1-2.2,1.7c-6.4,0.3-12.8,0.6-19.2,0.8
		c-0.4-0.3-0.9-0.6-1.3-0.9c-4.1-3.8-7.4-3.5-11.2,0.9l-18.4,0c-0.7-0.6-1.5-1.2-2.2-1.8c-3.2-2.4-7-2.1-10.3,0.9
		c-2.2,0-4.4,0-6.6,0c-1.2,0-1.8-0.5-1.8-1.7c2.3-1.7,4.7-3.3,4.2-6.7c3.4-0.3,6.8-0.7,10.2-0.7c2.7,0,5.4,0.5,8.1,0.8
		c0.8,5.1,2.5,6.8,7,6.7c3.6,0,5.7-2,6.4-5.9c3.5,0.3,7,0.6,10.5,0.8c2.6,0.1,5.2,0,7.8,0c0.4,3.4,2.6,5.2,5.7,5.7
		c2.6,0.4,4.8-1,6.3-3.1c0.3-0.5,0.2-1.3,0.2-1.9l0.1,0c0.3-0.3,0.6-0.6,1-0.8c1.4-0.8,2.8-1.6,4.2-2.4c1.4,0.6,3,1.9,4.2,1.6
		c3.1-0.6,6.1,0.4,9.1,0.1c0.7,1.4,1.4,2.8,2.1,4.2c0.4,0.8,0.8,1.6,1.2,2.4c-1.4,0-2.7,1.2-4.3,0.1
		C202.1,265,201.3,265.7,200.7,265.9"/>
	<path class="st9" d="M126.5,265.9c3.2-3,7.1-3.4,10.3-0.9c0.8,0.6,1.5,1.2,2.2,1.8c0.3,3.3,0,6.5-2.5,9.1c-3.7,1.5-7,1-10-1.7
		C125.2,271.5,125.2,268.7,126.5,265.9"/>
	<path class="st9" d="M376,269.3c1.9-5.9,6.1-7.5,11.2-4.3c0.7,0.4,1.4,0.7,2.1,1c0,1.4,0,2.7,0,4.1c0.3,3-2,4.6-3.4,6.7
		c-1.1,0-2.2,0-3.3,0c-4-0.2-5.5-1.7-5.9-5.8C376.7,270.4,376.3,269.8,376,269.3"/>
	<path class="st10" d="M386,276.8c1.3-2.1,3.7-3.7,3.4-6.7c6.1,0,12.2,0,18.3,0c-0.9,3.3,2.2,4.5,3.4,6.7c-2.2,0.3-4.5,0.6-6.7,0.8
		c-4-4.8-8.5-4.8-12.5,0C389.9,277.3,387.9,277.1,386,276.8"/>
	<path class="st9" d="M546.2,272.6c-1.6,1.9-2.9,4.1-5.8,4.2c-0.8,0-1.7,0-2.5,0c-2.5-0.9-4.1-2.6-5-5c0.3-1.9,0.6-3.9,0.9-5.8
		c5.3-3.7,8-3.5,11.7,0.8C545.7,268.7,545.9,270.7,546.2,272.6"/>
	<path class="st12" d="M533.7,265.9c-0.3,1.9-0.6,3.9-0.9,5.8c-3.1,0.3-6.2,0.7-9.4,0.7c-3,0-6-0.5-9-0.7c-0.3-1.9-0.6-3.9-0.9-5.8
		c2.2-0.6,4.5-1.1,6.7-1.7h5.8c0,1.2,0.6,1.7,1.8,1.7C529.9,265.9,531.8,265.9,533.7,265.9"/>
	<path class="st17" d="M341.8,258.4c6.1,0,12.2,0,18.3,0c0.6,1.7,1.2,3.4,1.7,5c-2,0.3-4,0.6-5.9,0.9c-4-1.8-7.5-0.6-10.8,1.7
		c-0.7-0.3-1.3-0.6-2-0.9c-1.3-0.6-2.6-1.1-3.9-1.7C340.1,261.7,342.3,260.7,341.8,258.4"/>
	<path class="st12" d="M407.7,270.1c-6.1,0-12.2,0-18.3,0c0-1.4,0-2.7-0.1-4.1c1.7-0.6,3.4-1.2,5.1-1.8c2.8-0.3,5.5-0.6,8.3-0.8
		c1,0.3,2,0.6,3,0.8c1,0.3,1.9,0.6,2.9,0.9C408.2,266.8,408,268.4,407.7,270.1"/>
	<path class="st9" d="M345.1,266c3.3-2.3,6.8-3.5,10.8-1.7c0.3,0.7,0.5,1.7,1.1,2.1c1.5,1.2,1.6,2.8,1.5,4.5c-0.4,2.7-2.6,4-4.2,5.8
		c-3.7,0.6-6.6-0.9-9.2-3.3C344.3,271,345.2,268.5,345.1,266"/>
	<path class="st26" d="M324.4,439.9c0-7.7,0-14.7,0-21.6c0-1,0.3-2.9,0.6-2.9c2-0.3,4.1-0.2,6.2-0.1c0.2,0,0.5,1.5,0.5,2.3
		c0,5.8,0,11.7,0,17.5c0,4.9-0.1,9.7,0,14.6c0,1.9-0.5,2.9-2.5,2.6c-0.4-0.1-0.8-0.1-1.2,0c-3,0.5-4.8-0.7-6.2-3.4
		c-3.4-6.4-7.1-12.5-10.7-18.8c-0.4-0.7-0.8-1.3-1.9-1.8v14.7c0,2,0,3.9,0,5.8c0,3.5,0,3.5-3.7,3.5c-0.6,0-1.1,0-1.7,0
		c-1.5,0.1-2.3-0.5-2.2-2.1c0.1-1.5,0-3,0-4.6c0-9.2,0-18.3,0-27.5c0-2.9,0.1-2.9,3-3c0.7,0,1.4,0.1,2.1,0c2.6-0.4,4,0.9,5.2,3.1
		c3.7,6.7,7.5,13.3,11.3,19.9C323.3,438.4,323.7,438.8,324.4,439.9"/>
	<path class="st26" d="M254.9,441.1c0.6-1.8,1.2-3.6,1.7-5.5c1.7-5.9,3.5-11.7,5-17.6c0.6-2.3,1.6-3.1,4-3.1c5.4,0.1,5.4,0,3.6,5.2
		c-3.3,9.7-6.7,19.4-9.9,29.1c-1.2,3.7-1.5,3-4.9,3c-3.6,0-3.7,0-4.7-3.1c-3.6-10.4-7.1-20.7-10.6-31.1c-1-2.9-0.9-2.9,2.1-3
		c5.6-0.2,5.5-0.2,7,5c2,7,4,14,6,21C254.5,441.1,254.7,441.1,254.9,441.1"/>
	<path class="st26" d="M344.2,415c3.3-1.1,4.9,1,6.2,4.3c1.2,3.2,3,6.3,4.5,9.4c0.7,1.4,1.3,1.2,1.9-0.1c1.7-3.7,3.5-7.3,5-11
		c0.8-2,1.9-2.6,4.1-2.6c6.5,0,6.5-0.1,3.5,5.6c-2.6,4.8-5,9.6-7.7,14.3c-1.4,2.4-2.1,4.8-1.9,7.5c0.1,2.6,0,5.3,0,7.9
		c0,1.4-0.6,2.1-2,1.9c-0.1,0-0.3,0-0.4,0c-5.4,0.3-5.6,0.3-5.3-5.1c0.3-5.6-0.7-10.6-3.8-15.3c-2.9-4.4-5.2-9.2-7.7-13.8
		c-1.6-2.9-1.5-2.9,1.6-3C342.5,415,343,415,344.2,415"/>
	<path class="st26" d="M377,433.6c0-5.1,0-10.3,0-15.4c0-3.3,0-3.3,3.1-3.4c5-0.1,5-0.1,5,4.9c0,7.5,0,15,0,22.5c0,2.9,0.1,3,3,3
		c3.9,0,7.8,0,11.6,0c3.8,0,3.8,0,3.7,4c0,0.3,0,0.6,0,0.8c0.2,1.9-0.8,2.3-2.5,2.3c-4.2-0.1-8.3,0-12.5,0c-3.1,0-6.1-0.1-9.2,0
		c-1.8,0.1-2.4-0.6-2.4-2.4C377.1,444.4,377,439,377,433.6"/>
	<path class="st1" d="M280.7,433.3c0-5.1,0.1-10.3,0-15.4c0-2.1,0.4-3,2.7-2.9c6.2,0.2,5.1-0.4,5.2,5c0.1,9.4,0,18.9,0,28.3
		c0,4.3,0.3,3.9-4.1,3.9c-0.6,0-1.1,0-1.7,0c-1.7,0.1-2.1-0.8-2.1-2.3C280.8,444.4,280.7,438.8,280.7,433.3"/>
	<path class="st1" d="M315.1,268.9c0,11.9-11.8,23.6-23.7,23.6c-8.5,0-14.7-6.3-14.8-14.8c0-12.8,12.8-24.7,25.6-23.6
		C309.9,254.8,315.6,261.5,315.1,268.9"/>
	<path class="st12" d="M345.1,266c0,2.5-0.8,5,0,7.4c-0.4,0.5-0.7,1.3-1.3,1.6c-0.9,0.5-1.9,0.6-2.9,0.9c-4.2-3.2-7.2-3.1-10.8,0.3
		c-0.3,0.3-0.7,0.3-1.1,0.4c0.7-4.4,1.4-8.8,2.1-13.3c2.7,0.8,5.5,1.6,8.2,0c1.3,0.6,2.6,1.1,3.8,1.7
		C343.8,265.4,344.5,265.7,345.1,266"/>
	<path class="st17" d="M253.4,264.3c-2.5-0.3-5-0.6-7.6-0.9c0.9-1.9,1.7-3.9,2.5-5.8c2.2-0.2,4.3-0.6,6.5-0.7c1.3-0.1,2.7,0.4,4,0.5
		c2.3,0.1,4.7,0.1,7,0.2c0,0.9,0.1,1.8,0.1,2.7c-0.9,1.9-1.8,3.7-2.7,5.6C260.3,263,257,262.6,253.4,264.3"/>
	<path class="st10" d="M136.5,275.9c2.4-2.6,2.8-5.8,2.5-9.1l18.4,0c-1.4,3.4-0.1,6.3,1.7,9.2c-1.9,0.3-3.9,0.6-5.8,0.8
		c-3.9-3.6-7.8-3.6-11.7,0C139.8,276.5,138.2,276.2,136.5,275.9"/>
	<path class="st9" d="M159,275.9c-1.8-2.8-3.1-5.8-1.7-9.2c3.7-4.4,7.1-4.7,11.2-0.9c0.4,0.4,0.9,0.6,1.3,0.9
		c-0.3,2.5-0.6,5-0.8,7.5C166.1,276.9,162.7,277.5,159,275.9"/>
	<path class="st26" d="M446.1,235c-0.3,3.4-2,6.3-4.9,8c-2.3,1.4-5,2.2-7.7,3c-2.6,0.7-2.8,0.4-2.3-2.3c1-4.7,2.2-9.4,3.1-14.2
		c0.3-1.6,1-2.3,2.5-1.9c2,0.5,4,1,5.9,1.8C445,230.4,445.9,232.4,446.1,235"/>
	<path class="st17" d="M408.5,265.2c-1-0.3-1.9-0.6-2.9-0.9c-1-0.3-2-0.6-3-0.9c0.6-2,1.2-3.9,1.7-5.9c3.4,0.4,7-0.8,10.2,1
		c-0.3,1.7-0.8,3.4,2.2,2.7c2.1-0.5,4.4-0.4,6.6-0.6c0.9,1.2,1.8,2.4,2.6,3.6c-2.2,0.3-4.5,0.6-6.7,0.9
		C415.7,263,412.1,262.7,408.5,265.2"/>
	<path class="st10" d="M426.1,264.3c-0.9-1.2-1.8-2.4-2.6-3.6c4.2-0.9,8.3-1.8,12.5-2.7c0.4,2.9-2,4.3-3.2,6.3H426.1z"/>
	<path class="st26" d="M200.5,228.1c-0.6,1.2-1.3,3.7-2.7,5.6c-2.7,3.7-6.7,5.7-10.6,7.8c-1.7,0.9-1.8-0.6-2.1-1.5
		c-1.1-4.7-2.2-9.4-3.2-14.2c-1.2-5.2-1.2-5.3,4.1-5.9c2.7-0.3,5.5-0.6,8.2-0.2C197.9,220.2,200.4,223.4,200.5,228.1"/>
	<path class="st12" d="M185.7,259.1c-0.3,0.3-0.6,0.6-1,0.8C185,259.6,185.3,259.3,185.7,259.1"/>
	<path class="st9" d="M408.5,265.2c3.6-2.4,7.2-2.1,10.8,0c0.3,3,0.6,6.1,0.9,9.1c-0.3,0-0.7-0.1-0.8,0.1c-2.3,2.6-5.3,2.5-8.3,2.4
		c-1.2-2.2-4.3-3.4-3.4-6.7C408,268.4,408.2,266.8,408.5,265.2"/>
	<path class="st22" d="M273.9,250.5c18.3-17.8,42.6-21.7,53.8,1.2c20,40.8-52.1,81-67,35.8C256.5,274.7,263.3,260.7,273.9,250.5
		 M315,267.8c0.5-7.4-5.1-14.1-12.8-14.8c-12.8-1.1-25.7,10.7-25.6,23.6c0,8.5,6.3,14.7,14.8,14.8C303.2,291.5,315,279.7,315,267.8"
		/>
	<path class="st22" d="M213.3,223.4c0.8,6.5-2.5,12.7-5.8,18c-2.5,4.1-6.1,7.3-9.9,10.1c-3.1,2.3-19.4,17.8-21.5,8
		c-0.5-2.4-1.2-4.8-1.8-7.1c-1.8-8-3.6-16-5.3-24c-0.8-3.4-1.6-6.7-2.4-10.1c-0.4-1.9-0.6-3.8-1.1-5.6c-0.5-1.7-0.3-2.5,1.6-2.7
		c2.1-0.2,4.2-0.9,6.3-1.3c3.3-0.4,6.6-0.9,9.9-1.3c2.2-0.2,4.5-0.4,6.7-0.6c2.8,0.3,5.5,0.5,8.3,0.8c1.7,0.6,3.3,1.2,5,1.7
		c3.5,2.4,6.2,5.5,8.4,9.1C212.5,220,213.1,221.7,213.3,223.4 M200.5,228.1c-0.1-4.7-2.6-7.9-6.3-8.4c-2.7-0.4-5.5-0.1-8.2,0.2
		c-5.2,0.6-5.2,0.7-4.1,5.9c1.1,4.7,2.1,9.4,3.2,14.2c0.2,1,0.3,2.4,2.1,1.5c3.9-2.1,8-4.1,10.6-7.8
		C199.2,231.8,199.9,229.3,200.5,228.1"/>
</g>
</svg>
