<?xml version="1.0" encoding="utf-8"?>
<!-- Generator: Adobe Illustrator 16.0.0, SVG Export Plug-In . SVG Version: 6.00 Build 0)  -->
<!DOCTYPE svg PUBLIC "-//W3C//DTD SVG 1.1//EN" "http://www.w3.org/Graphics/SVG/1.1/DTD/svg11.dtd">
<svg version="1.1" id="Layer_1" xmlns="http://www.w3.org/2000/svg" xmlns:xlink="http://www.w3.org/1999/xlink" x="0px" y="0px"
	 width="1000px" height="340.858px" viewBox="0 0 1000 340.858" enable-background="new 0 0 1000 340.858" xml:space="preserve">
<g>
	<path fill="#1895CF" d="M294.722,151.876c-6.475-6.072-26.784-3.68-66.028-1.539c7.725-32.342,13.258-60.592,27.743-82.629
		c67.203,3.722,149.776,13.055,244.319,12.796c186.24-0.532,187.884-69.078,187.884-69.078
		C609.432,34.009,500.596,27.3,418.331,19.82C314.993,10.433,211.659-13.067,126.284,9.502
		C25.458,36.136,15.769,110.152,19.365,141.921c40.423-52.512,95.163-71.19,165.259-75.102c6.639-0.35,13.635-0.511,20.799-0.56
		c-12.754,13.194-22.646,33.993-32.859,66.378c-2.246,7.107-4.415,13.908-6.549,20.54c-86.225,7.423-102.974,46.349-98,56.569
		c5.262,10.893,35.841-3.394,74.057-7.57c2.424-0.266,4.774-0.51,7.104-0.727c-14.936,38.113-31.391,65.335-57.922,81.236
		C50.797,306.97,8.5,295.728,0,288.99c3.288,44.494,70.925,68.742,128.453,37.624c45.845-24.793,72.395-83.986,86.915-128.326
		c12.512-0.176,24.523-0.315,37.887-1.197C287.975,194.762,303.184,159.838,294.722,151.876"/>
	<path fill="#1895CF" d="M973.344,110.915c2.298-7.213,10.001-11.151,17.165-8.857c7.178,2.295,11.158,10.005,8.821,17.189
		c-2.277,7.164-9.962,11.131-17.161,8.836l-1.7-0.707l-35.371,45.334l-94.929-30.488l-2.406-57.324l-1.588-0.406
		c-7.178-2.315-11.142-10.004-8.825-17.175c2.298-7.178,9.979-11.131,17.161-8.829c7.181,2.295,11.141,9.983,8.825,17.168
		c-1.105,3.421-3.436,6.149-6.366,7.779c3.764,17.07,8.465,31.083,14.775,33.147c8.213,2.588,15.985-18.925,21.159-39.982
		c-6.313-3.295-9.511-10.725-7.272-17.741c2.498-7.801,10.907-12.11,18.7-9.613c7.85,2.52,12.173,10.894,9.661,18.722
		c-1.812,5.61-6.639,9.424-12.116,10.2c-2.554,22.072-3.204,42.283,6.597,45.41l0.343,0.057
		c9.753,2.848,20.872-13.887,31.541-33.224c-3.851-3.834-5.533-9.662-3.742-15.21c2.477-7.828,10.868-12.123,18.683-9.619
		c7.85,2.498,12.169,10.886,9.654,18.722c-2.26,7.065-9.333,11.271-16.438,10.158c-8.027,20.12-14.232,42.192-6.006,44.823
		c6.332,2.057,18.393-6.71,31.433-18.519C972.568,117.785,972.243,114.287,973.344,110.915"/>
	<path fill="#1895CF" d="M929.255,178.063c-2.494-1.651-71.726-22.443-71.726-22.443s-22.587,8.374-38.265,23.073
		c-5.355,4.98-10.508,10.179-15.156,15.922h-0.035l-0.07,0.126c-4.323,5.373-7.744,11.096-11.361,17.245
		c-5.062,8.521-9.511,17.462-12.964,26.837v-0.042c0,0-9.08,18.966-15.755,28.445c-6.436,9.186-18.714,18.001-23.618,21.324
		c-5.407,2.477-11.319,4.771-17.721,6.625c-40.293,11.613-47.705-17.063-38.701-30.601c3.256-4.827,25.556-21.771,40.817-34.351
		c29.495-24.233,49.696-39.583,63.583-53.512c14.705-14.747,5.212-22.912-6.198-24.836c-28.487-4.848-41.524,2.645-49.825,9.683
		c-10.001,8.479-69.61,79.537-69.61,79.537S759.695,55.507,775.607,23.619c13.132-26.276-49.896-29.914-67.329,7.885
		c-10.109,21.981-79.642,181.259-88.107,200.944c-15.517,36.022-16.44,41.668-24.213,47.979l-0.255,0.28l-0.56,0.392l-0.074,0.035
		c-7.468,6.114-17.938,11.627-24.919,11.522c-4.198-0.056-6.675-2.532-7.381-7.633c-0.721-5.093-0.105-11.593,1.847-19.477
		c1.158-4.701,2.715-9.878,4.666-15.482c1.987-5.583,4.107-11.257,6.419-17c2.299-5.723,4.685-11.341,7.108-16.783
		c2.441-5.499,4.666-10.515,6.691-15.111c2.043-4.575,3.726-8.535,5.135-11.852c1.413-3.295,2.26-5.659,2.589-7.052
		c2.351-9.409,1.896-17.902-0.546-23.262c-2.441-5.352-6.87-7.996-13.236-7.996c-6.401,0-12.403,1.763-17.993,4.891
		c-6.115,3.463-11.666,7.269-17.452,14.159c-1.283,1.519-3.222,3.869-5.789,7.06c-2.546,3.183-5.46,6.849-8.644,10.977
		c-3.2,4.135-6.601,8.486-10.183,12.984c-3.634,4.54-6.995,8.801-10.179,12.887c-3.204,4.1-6.003,7.667-8.409,10.795
		c-2.477,3.134-4.197,5.372-5.317,6.785h-3.833c0.217-0.889,0.832-2.63,1.86-5.261c1.032-2.595,2.281-5.667,3.708-9.171
		c1.448-3.484,2.983-7.318,4.646-11.439c1.665-4.148,3.26-8.164,4.792-12.054c1.539-3.876,2.896-7.43,4.089-10.689
		c1.176-3.246,2.008-5.813,2.48-7.737c1.714-6.996,1.77-12.6,0.126-16.805c-1.647-4.184-5.915-6.311-12.803-6.311
		c-6.912,0-12.823,2.001-17.833,5.939c-4.995,3.946-8.916,8.836-11.756,14.691c-3.652,7.521-7.741,16.553-12.282,27.131
		c-4.498,10.592-8.969,21.533-13.306,32.943c-4.341,11.404-8.396,22.598-12.138,33.609c-1.715,5.072-3.236,9.836-4.611,14.334
		c-9.094,4.576-18.482,8.444-28.211,11.376c-3.742,1.126-8.392,1.889-11.067-0.931c-1.956-2.092-2.008-5.296-1.739-8.15
		c1.393-15.09,7.924-29.145,14.107-42.962c10.418-23.255,20.146-46.804,29.209-70.646c1.123-2.98,2.26-6.247,1.263-9.256
		c-1.519-4.771-7.248-6.506-12.169-7.156c-10.688-1.386-22.986-0.314-29.895,7.947c-2.277,2.722-3.76,6.017-5.188,9.276
		c-11.795,26.612-23.604,53.261-35.414,79.894c-7.43,16.77-16.615,35.232-33.979,41.207c-3.002,1.028-6.401,1.608-9.313,0.328
		c-3.707-1.65-5.624-6.002-5.624-10.095c0-4.037,1.588-7.927,3.127-11.704c14.594-35.519,25.374-60.222,39.947-95.796
		c0.688-1.609,4.306-9.927,4.414-13.831c0.073-2.756-2.042-5.107-3.761-5.904c-9.314-4.24-20.654-1.672-29.064,4.155
		c-13.215,9.228-20.449,24.115-26.962,38.254c-7.251,15.733-14.629,31.419-21.212,47.433c-7.541,18.322-15.625,36.064-19.75,55.484
		c-2.098,9.907-1.518,22.724,5.695,29.824c4.705,4.646,11.756,5.975,18.322,6.185c26.729,0.847,52.029-13.132,71.541-31.412
		c0.672,9.683,2.115,20.757,10.221,26.095c5.17,3.429,11.823,3.513,17.973,2.861c12.407-1.287,24.395-5.162,35.952-9.773
		c4.813-1.909,9.605-3.98,14.307-6.163c0.056,2.085,0.252,4.03,0.651,5.849c0.797,3.764,2.512,6.744,5.17,8.977
		c2.645,2.245,6.568,3.357,11.795,3.357c4.229,0,8.153-0.958,11.809-2.883c3.67-1.896,7.396-5.463,11.246-10.676l74.728-99.335
		h3.071c-4.051,10.207-7.682,19.693-10.886,28.558c-3.218,8.856-5.751,17.111-7.633,24.744c-4.827,19.477-6.093,34.28-3.813,44.39
		c2.295,10.13,6.943,15.202,13.96,15.202c7.053,0,13.961-0.986,20.831-2.967c6.873-1.979,13.656-4.533,20.31-7.639
		c4.596-2.155,9.098-4.597,13.564-7.137c0,1.666-0.469,4.877-0.542,6.395c-0.255,5.479,0.56,6.625,3.145,8.997
		c2.554,2.351,5.191,2.574,10.655,2.574c4.12,0,5.586-0.335,9.186-2.966c3.4-2.441,15.717-20.604,25.171-33.574
		c1.574-2.119,3.296-4.344,5.156-6.61c-3.47,16.063,4.016,39.499,26.403,43.15c21.757,3.554,57.149-1.371,102.83-36.574
		c0.814,4.911,2.025,9.542,3.76,13.872c3.31,8.291,8.521,15.021,15.626,20.163c7.107,5.142,16.566,7.724,28.375,7.724
		c8.192,0,16.241-1.399,24.161-4.226c7.94-2.792,15.552-6.611,22.859-11.425c7.271-4.813,14.086-10.501,20.487-17.042
		c6.388-6.556,12.117-13.572,17.273-21.064c4.861-7.08,9.042-14.447,12.642-22.017c6.562-14.789,9.71-25.836,12.984-42.851
		c1.535-9.066,2.351-17.084,2.225-24.437C932.547,197.798,931.732,179.706,929.255,178.063 M881.42,261.888
		c-17.615,30.937-42.77,46.698-56.17,35.197c-13.418-11.488-10.019-45.852,7.598-76.76c17.612-30.95,42.787-46.705,56.185-35.232
		C902.455,196.581,899.054,230.966,881.42,261.888"/>
</g>
</svg>
